AmstelvarA2-Roman_opsz8_wght100_wdth125.ufo
<glyph name="exclam" format="2">
  <advance width="832"/>
  <unicode hex="0021"/>
  <outline>
    <contour>
      <point x="308" y="90" type="qcurve" smooth="yes"/>
      <point x="308" y="133"/>
      <point x="369" y="198"/>
      <point x="416" y="198" type="qcurve" smooth="yes"/>
      <point x="463" y="198"/>
      <point x="523" y="133"/>
      <point x="523" y="90" type="qcurve" smooth="yes"/>
      <point x="523" y="48"/>
      <point x="463" y="-16"/>
      <point x="416" y="-16" type="qcurve" smooth="yes"/>
      <point x="369" y="-16"/>
      <point x="308" y="48"/>
    </contour>
    <contour>
      <point x="349" y="1391" type="line" smooth="yes"/>
      <point x="347" y="1459"/>
      <point x="375" y="1546"/>
      <point x="415" y="1547" type="qcurve" smooth="yes"/>
      <point x="454" y="1548"/>
      <point x="485" y="1461"/>
      <point x="483" y="1392" type="qcurve" smooth="yes"/>
      <point x="475" y="1108" type="line"/>
      <point x="453" y="800" type="line"/>
      <point x="453" y="435" type="line"/>
      <point x="377" y="435" type="line"/>
      <point x="377" y="800" type="line"/>
      <point x="357" y="1108" type="line"/>
    </contour>
  </outline>
</glyph>
<glyph name="quotedbl" format="2">
  <advance width="1294"/>
  <unicode hex="0022"/>
  <outline>
    <contour>
      <point x="367" y="964" type="line"/>
      <point x="313" y="1457" type="line"/>
      <point x="313" y="1492"/>
      <point x="359" y="1558"/>
      <point x="406" y="1558" type="qcurve" smooth="yes"/>
      <point x="453" y="1558"/>
      <point x="499" y="1492"/>
      <point x="499" y="1457" type="qcurve"/>
      <point x="443" y="964" type="line"/>
    </contour>
    <contour>
      <point x="850" y="964" type="line"/>
      <point x="795" y="1457" type="line"/>
      <point x="795" y="1492"/>
      <point x="841" y="1558"/>
      <point x="888" y="1558" type="qcurve" smooth="yes"/>
      <point x="936" y="1558"/>
      <point x="982" y="1492"/>
      <point x="982" y="1457" type="qcurve"/>
      <point x="925" y="964" type="line"/>
    </contour>
  </outline>
</glyph>
<glyph name="numbersign" format="2">
  <advance width="1817"/>
  <unicode hex="0023"/>
  <outline>
    <contour>
      <point x="198" y="505" type="line"/>
      <point x="198" y="616" type="line"/>
      <point x="1524" y="616" type="line"/>
      <point x="1524" y="505" type="line"/>
    </contour>
    <contour>
      <point x="293" y="865" type="line"/>
      <point x="293" y="976" type="line"/>
      <point x="1619" y="976" type="line"/>
      <point x="1619" y="865" type="line"/>
    </contour>
    <contour>
      <point x="261" y="3" type="line"/>
      <point x="820" y="1524" type="line"/>
      <point x="899" y="1502" type="line"/>
      <point x="342" y="-19" type="line"/>
    </contour>
    <contour>
      <point x="939" y="3" type="line"/>
      <point x="1498" y="1524" type="line"/>
      <point x="1578" y="1502" type="line"/>
      <point x="1020" y="-19" type="line"/>
    </contour>
  </outline>
</glyph>
<glyph name="dollar" format="2">
  <advance width="1872"/>
  <unicode hex="0024"/>
  <outline>
    <contour>
      <point x="170" y="272" type="qcurve"/>
      <point x="304" y="333" type="line"/>
      <point x="382" y="226"/>
      <point x="744" y="98"/>
      <point x="1008" y="98" type="qcurve" smooth="yes"/>
      <point x="1272" y="98"/>
      <point x="1556" y="263"/>
      <point x="1556" y="387" type="qcurve" smooth="yes"/>
      <point x="1556" y="538"/>
      <point x="1201" y="687"/>
      <point x="924" y="745" type="qcurve" smooth="yes"/>
      <point x="587" y="820"/>
      <point x="383" y="984"/>
      <point x="383" y="1132" type="qcurve" smooth="yes"/>
      <point x="383" y="1284"/>
      <point x="613" y="1501"/>
      <point x="943" y="1501" type="qcurve" smooth="yes"/>
      <point x="1142" y="1501"/>
      <point x="1499" y="1436"/>
      <point x="1629" y="1373" type="qcurve"/>
      <point x="1575" y="1284" type="line"/>
      <point x="1481" y="1329"/>
      <point x="1178" y="1396"/>
      <point x="977" y="1396" type="qcurve" smooth="yes"/>
      <point x="731" y="1396"/>
      <point x="526" y="1276"/>
      <point x="526" y="1163" type="qcurve" smooth="yes"/>
      <point x="526" y="1039"/>
      <point x="663" y="905"/>
      <point x="999" y="827" type="qcurve" smooth="yes"/>
      <point x="1292" y="759"/>
      <point x="1696" y="593"/>
      <point x="1696" y="421" type="qcurve" smooth="yes"/>
      <point x="1696" y="248"/>
      <point x="1299" y="1"/>
      <point x="976" y="1" type="qcurve" smooth="yes"/>
      <point x="672" y="1"/>
      <point x="286" y="142"/>
    </contour>
    <contour>
      <point x="951" y="-190" type="line"/>
      <point x="951" y="42" type="line"/>
      <point x="967" y="42" type="line"/>
      <point x="967" y="820" type="line"/>
      <point x="1067" y="778" type="line"/>
      <point x="1067" y="42" type="line"/>
      <point x="1084" y="42" type="line"/>
      <point x="1084" y="-149" type="line"/>
    </contour>
    <contour>
      <point x="950" y="1617" type="line"/>
      <point x="1083" y="1649" type="line"/>
      <point x="1083" y="1435" type="line"/>
      <point x="1067" y="1435" type="line"/>
      <point x="1067" y="778" type="line"/>
      <point x="967" y="820" type="line"/>
      <point x="967" y="1435" type="line"/>
      <point x="950" y="1435" type="line"/>
    </contour>
  </outline>
</glyph>
<glyph name="ampersand" format="2">
  <advance width="2839"/>
  <unicode hex="0026"/>
  <outline>
    <contour>
      <point x="994" y="-28" type="qcurve" smooth="yes"/>
      <point x="543" y="-28"/>
      <point x="184" y="211"/>
      <point x="184" y="369" type="qcurve" smooth="yes"/>
      <point x="184" y="528"/>
      <point x="485" y="787"/>
      <point x="907" y="843" type="qcurve"/>
      <point x="1282" y="927"/>
      <point x="1475" y="1067"/>
      <point x="1475" y="1177" type="qcurve" smooth="yes"/>
      <point x="1475" y="1286"/>
      <point x="1274" y="1429"/>
      <point x="1087" y="1429" type="qcurve" smooth="yes"/>
      <point x="925" y="1429"/>
      <point x="716" y="1301"/>
      <point x="716" y="1187" type="qcurve" smooth="yes"/>
      <point x="716" y="1098"/>
      <point x="852" y="956"/>
      <point x="1063" y="846" type="qcurve"/>
      <point x="1863" y="266" type="line" smooth="yes"/>
      <point x="2009" y="156"/>
      <point x="2202" y="72"/>
      <point x="2332" y="72" type="qcurve" smooth="yes"/>
      <point x="2432" y="72"/>
      <point x="2589" y="119"/>
      <point x="2652" y="157" type="qcurve"/>
      <point x="2703" y="94" type="line"/>
      <point x="2637" y="31"/>
      <point x="2444" y="-36"/>
      <point x="2302" y="-37" type="qcurve" smooth="yes"/>
      <point x="2153" y="-38"/>
      <point x="1923" y="59"/>
      <point x="1761" y="189" type="qcurve" smooth="yes"/>
      <point x="905" y="829" type="line"/>
      <point x="801" y="863"/>
      <point x="571" y="1052"/>
      <point x="577" y="1186" type="qcurve" smooth="yes"/>
      <point x="584" y="1317"/>
      <point x="828" y="1516"/>
      <point x="1097" y="1516" type="qcurve" smooth="yes"/>
      <point x="1363" y="1516"/>
      <point x="1642" y="1349"/>
      <point x="1642" y="1202" type="qcurve" smooth="yes"/>
      <point x="1642" y="1068"/>
      <point x="1401" y="868"/>
      <point x="1071" y="783" type="qcurve"/>
      <point x="623" y="706"/>
      <point x="328" y="533"/>
      <point x="327" y="403" type="qcurve" smooth="yes"/>
      <point x="326" y="255"/>
      <point x="645" y="93"/>
      <point x="981" y="93" type="qcurve" smooth="yes"/>
      <point x="1517" y="93"/>
      <point x="2377" y="573"/>
      <point x="2639" y="871" type="qcurve"/>
      <point x="2733" y="859" type="line"/>
      <point x="2512" y="543"/>
      <point x="1507" y="-28"/>
    </contour>
    <contour>
      <point x="1883" y="833" type="line"/>
      <point x="1920" y="888"/>
      <point x="2059" y="958"/>
      <point x="2132" y="958" type="qcurve" smooth="yes"/>
      <point x="2202" y="958"/>
      <point x="2414" y="899"/>
      <point x="2474" y="899" type="qcurve" smooth="yes"/>
      <point x="2517" y="899"/>
      <point x="2579" y="910"/>
      <point x="2625" y="937" type="qcurve"/>
      <point x="2733" y="865" type="line"/>
      <point x="2633" y="783"/>
      <point x="2524" y="775"/>
      <point x="2494" y="778" type="qcurve" smooth="yes"/>
      <point x="2429" y="779"/>
      <point x="2225" y="845"/>
      <point x="2164" y="845" type="qcurve" smooth="yes"/>
      <point x="2099" y="845"/>
      <point x="2001" y="802"/>
      <point x="1969" y="777" type="qcurve"/>
    </contour>
  </outline>
</glyph>
<glyph name="quotesingle" format="2">
  <advance width="812"/>
  <unicode hex="0027"/>
  <outline>
    <contour>
      <point x="375" y="964" type="line"/>
      <point x="313" y="1457" type="line"/>
      <point x="313" y="1492"/>
      <point x="359" y="1558"/>
      <point x="406" y="1558" type="qcurve" smooth="yes"/>
      <point x="453" y="1558"/>
      <point x="499" y="1492"/>
      <point x="499" y="1457" type="qcurve"/>
      <point x="435" y="964" type="line"/>
    </contour>
  </outline>
</glyph>
<glyph name="parenleft" format="2">
  <advance width="541"/>
  <unicode hex="0028"/>
  <outline>
    <contour>
      <point x="68" y="521" type="qcurve" smooth="yes"/>
      <point x="68" y="816"/>
      <point x="323" y="1389"/>
      <point x="466" y="1526" type="qcurve"/>
      <point x="521" y="1467" type="line"/>
      <point x="393" y="1314"/>
      <point x="206" y="812"/>
      <point x="206" y="521" type="qcurve" smooth="yes"/>
      <point x="206" y="230"/>
      <point x="389" y="-276"/>
      <point x="521" y="-426" type="qcurve"/>
      <point x="466" y="-485" type="line"/>
      <point x="323" y="-348"/>
      <point x="68" y="213"/>
    </contour>
  </outline>
</glyph>
<glyph name="asterisk" format="2">
  <advance width="1108"/>
  <unicode hex="002A"/>
  <outline>
    <contour>
      <point x="554" y="664" type="qcurve" smooth="yes"/>
      <point x="511" y="664"/>
      <point x="474" y="724"/>
      <point x="485" y="761" type="qcurve" smooth="yes"/>
      <point x="540" y="1083" type="line"/>
      <point x="538" y="1085" type="line"/>
      <point x="285" y="876" type="line" smooth="yes"/>
      <point x="264" y="854"/>
      <point x="190" y="848"/>
      <point x="167" y="888" type="qcurve" smooth="yes"/>
      <point x="143" y="927"/>
      <point x="186" y="987"/>
      <point x="217" y="995" type="qcurve" smooth="yes"/>
      <point x="522" y="1108" type="line"/>
      <point x="521" y="1113" type="line"/>
      <point x="217" y="1228" type="line" smooth="yes"/>
      <point x="187" y="1235"/>
      <point x="144" y="1295"/>
      <point x="168" y="1336" type="qcurve" smooth="yes"/>
      <point x="190" y="1375"/>
      <point x="264" y="1369"/>
      <point x="286" y="1347" type="qcurve" smooth="yes"/>
      <point x="536" y="1137" type="line"/>
      <point x="539" y="1139" type="line"/>
      <point x="485" y="1461" type="line" smooth="yes"/>
      <point x="474" y="1500"/>
      <point x="512" y="1558"/>
      <point x="554" y="1558" type="qcurve" smooth="yes"/>
      <point x="597" y="1558"/>
      <point x="634" y="1498"/>
      <point x="623" y="1461" type="qcurve" smooth="yes"/>
      <point x="568" y="1139" type="line"/>
      <point x="571" y="1137" type="line"/>
      <point x="823" y="1346" type="line" smooth="yes"/>
      <point x="844" y="1368"/>
      <point x="918" y="1374"/>
      <point x="941" y="1334" type="qcurve" smooth="yes"/>
      <point x="965" y="1295"/>
      <point x="923" y="1234"/>
      <point x="891" y="1227" type="qcurve" smooth="yes"/>
      <point x="586" y="1114" type="line"/>
      <point x="587" y="1109" type="line"/>
      <point x="891" y="995" type="line" smooth="yes"/>
      <point x="923" y="987"/>
      <point x="965" y="927"/>
      <point x="941" y="887" type="qcurve" smooth="yes"/>
      <point x="918" y="848"/>
      <point x="844" y="853"/>
      <point x="823" y="876" type="qcurve" smooth="yes"/>
      <point x="572" y="1085" type="line"/>
      <point x="569" y="1083" type="line"/>
      <point x="623" y="761" type="line" smooth="yes"/>
      <point x="633" y="724"/>
      <point x="600" y="664"/>
    </contour>
  </outline>
</glyph>
<glyph name="plus" format="2">
  <advance width="1877"/>
  <unicode hex="002B"/>
  <outline>
    <contour>
      <point x="194" y="572" type="line"/>
      <point x="194" y="694" type="line"/>
      <point x="1683" y="694" type="line"/>
      <point x="1683" y="572" type="line"/>
    </contour>
    <contour>
      <point x="875" y="-113" type="line"/>
      <point x="875" y="1377" type="line"/>
      <point x="1003" y="1377" type="line"/>
      <point x="1003" y="-113" type="line"/>
    </contour>
  </outline>
</glyph>
<glyph name="comma" format="2">
  <advance width="812"/>
  <unicode hex="002C"/>
  <outline>
    <contour>
      <point x="257" y="-231" type="line"/>
      <point x="306" y="-193"/>
      <point x="403" y="-76"/>
      <point x="419" y="-5" type="qcurve"/>
      <point x="366" y="-4"/>
      <point x="309" y="48"/>
      <point x="309" y="93" type="qcurve" smooth="yes"/>
      <point x="309" y="137"/>
      <point x="369" y="201"/>
      <point x="416" y="201" type="qcurve" smooth="yes"/>
      <point x="460" y="201"/>
      <point x="523" y="144"/>
      <point x="523" y="87" type="qcurve" smooth="yes"/>
      <point x="523" y="-17"/>
      <point x="386" y="-223"/>
      <point x="297" y="-277" type="qcurve"/>
    </contour>
  </outline>
</glyph>
<glyph name="hyphen" format="2">
  <advance width="1641"/>
  <unicode hex="002D"/>
  <outline>
    <contour>
      <point x="194" y="572" type="line"/>
      <point x="194" y="694" type="line"/>
      <point x="821" y="691" type="line"/>
      <point x="1447" y="694" type="line"/>
      <point x="1447" y="572" type="line"/>
      <point x="821" y="575" type="line"/>
    </contour>
  </outline>
</glyph>
<glyph name="period" format="2">
  <advance width="812"/>
  <unicode hex="002E"/>
  <outline>
    <contour>
      <point x="299" y="90" type="qcurve" smooth="yes"/>
      <point x="299" y="133"/>
      <point x="359" y="198"/>
      <point x="406" y="198" type="qcurve" smooth="yes"/>
      <point x="453" y="198"/>
      <point x="513" y="133"/>
      <point x="513" y="90" type="qcurve" smooth="yes"/>
      <point x="513" y="48"/>
      <point x="453" y="-17"/>
      <point x="406" y="-17" type="qcurve"/>
      <point x="359" y="-17"/>
      <point x="299" y="48"/>
    </contour>
  </outline>
</glyph>
<glyph name="slash" format="2">
  <advance width="1440"/>
  <unicode hex="002F"/>
  <outline>
    <contour>
      <point x="65" y="-86" type="line"/>
      <point x="1254" y="1555" type="line"/>
      <point x="1354" y="1480" type="line"/>
      <point x="165" y="-161" type="line"/>
    </contour>
  </outline>
</glyph>
<glyph name="zero" format="2">
  <advance width="1777"/>
  <unicode hex="0030"/>
  <outline>
    <contour>
      <point x="188" y="751" type="qcurve" smooth="yes"/>
      <point x="188" y="1098"/>
      <point x="585" y="1530"/>
      <point x="890" y="1530" type="qcurve" smooth="yes"/>
      <point x="1204" y="1530"/>
      <point x="1589" y="1104"/>
      <point x="1589" y="759" type="qcurve" smooth="yes"/>
      <point x="1589" y="435"/>
      <point x="1208" y="-22"/>
      <point x="895" y="-22" type="qcurve" smooth="yes"/>
      <point x="580" y="-22"/>
      <point x="188" y="402"/>
    </contour>
    <contour>
      <point x="319" y="777" type="qcurve" smooth="yes"/>
      <point x="320" y="474"/>
      <point x="634" y="69"/>
      <point x="888" y="69" type="qcurve" smooth="yes"/>
      <point x="1162" y="69"/>
      <point x="1456" y="440"/>
      <point x="1458" y="751" type="qcurve" smooth="yes"/>
      <point x="1460" y="1045"/>
      <point x="1150" y="1425"/>
      <point x="891" y="1425" type="qcurve" smooth="yes"/>
      <point x="612" y="1425"/>
      <point x="318" y="1079"/>
    </contour>
  </outline>
</glyph>
<glyph name="two" format="2">
  <advance width="1672"/>
  <unicode hex="0032"/>
  <outline>
    <contour>
      <point x="146" y="0" type="line"/>
      <point x="146" y="122" type="line"/>
      <point x="191" y="247"/>
      <point x="496" y="497"/>
      <point x="797" y="641" type="qcurve" smooth="yes"/>
      <point x="1112" y="793"/>
      <point x="1345" y="1002"/>
      <point x="1345" y="1151" type="qcurve" smooth="yes"/>
      <point x="1345" y="1283"/>
      <point x="1112" y="1425"/>
      <point x="904" y="1425" type="qcurve" smooth="yes"/>
      <point x="710" y="1425"/>
      <point x="336" y="1348"/>
      <point x="198" y="1233" type="qcurve"/>
      <point x="136" y="1304" type="line"/>
      <point x="200" y="1387"/>
      <point x="559" y="1530"/>
      <point x="842" y="1530" type="qcurve" smooth="yes"/>
      <point x="1115" y="1530"/>
      <point x="1481" y="1330"/>
      <point x="1481" y="1141" type="qcurve" smooth="yes"/>
      <point x="1481" y="935"/>
      <point x="1026" y="656"/>
      <point x="847" y="571" type="qcurve" smooth="yes"/>
      <point x="637" y="470"/>
      <point x="271" y="246"/>
      <point x="246" y="129" type="qcurve"/>
      <point x="256" y="118" type="line"/>
      <point x="1548" y="118" type="line"/>
      <point x="1548" y="0" type="line"/>
    </contour>
  </outline>
</glyph>
<glyph name="three" format="2">
  <advance width="1705"/>
  <unicode hex="0033"/>
  <outline>
    <contour>
      <point x="118" y="143" type="qcurve"/>
      <point x="175" y="227" type="line"/>
      <point x="302" y="142"/>
      <point x="614" y="78"/>
      <point x="814" y="78" type="qcurve" smooth="yes"/>
      <point x="1036" y="78"/>
      <point x="1330" y="235"/>
      <point x="1330" y="399" type="qcurve" smooth="yes"/>
      <point x="1330" y="578"/>
      <point x="909" y="745"/>
      <point x="581" y="746" type="qcurve" smooth="yes"/>
      <point x="498" y="746" type="line"/>
      <point x="441" y="827" type="line"/>
      <point x="618" y="832" type="line" smooth="yes"/>
      <point x="932" y="841"/>
      <point x="1274" y="1020"/>
      <point x="1274" y="1182" type="qcurve" smooth="yes"/>
      <point x="1274" y="1305"/>
      <point x="1050" y="1436"/>
      <point x="873" y="1436" type="qcurve" smooth="yes"/>
      <point x="689" y="1436"/>
      <point x="396" y="1365"/>
      <point x="230" y="1265" type="qcurve"/>
      <point x="181" y="1350" type="line"/>
      <point x="293" y="1435"/>
      <point x="596" y="1530"/>
      <point x="805" y="1530" type="qcurve" smooth="yes"/>
      <point x="1082" y="1530"/>
      <point x="1411" y="1341"/>
      <point x="1411" y="1192" type="qcurve" smooth="yes"/>
      <point x="1411" y="1034"/>
      <point x="1157" y="850"/>
      <point x="885" y="805" type="qcurve"/>
      <point x="884" y="798" type="line"/>
      <point x="1183" y="788"/>
      <point x="1467" y="605"/>
      <point x="1467" y="407" type="qcurve" smooth="yes"/>
      <point x="1467" y="190"/>
      <point x="1057" y="-22"/>
      <point x="731" y="-22" type="qcurve" smooth="yes"/>
      <point x="544" y="-22"/>
      <point x="188" y="67"/>
    </contour>
  </outline>
</glyph>
<glyph name="four" format="2">
  <advance width="2003"/>
  <unicode hex="0034"/>
  <outline>
    <contour>
      <point x="162" y="557" type="line"/>
      <point x="1360" y="1556" type="line"/>
      <point x="1430" y="1519" type="line"/>
      <point x="1453" y="1503" type="line"/>
      <point x="1447" y="503" type="line"/>
      <point x="1447" y="133" type="line"/>
      <point x="1829" y="98" type="line"/>
      <point x="1829" y="0" type="line"/>
      <point x="933" y="0" type="line"/>
      <point x="933" y="98" type="line"/>
      <point x="1319" y="133" type="line"/>
      <point x="1328" y="501" type="line"/>
      <point x="1328" y="1424" type="line"/>
      <point x="318" y="577" type="line"/>
      <point x="324" y="567" type="line"/>
      <point x="1849" y="541" type="line"/>
      <point x="1849" y="464" type="line"/>
      <point x="182" y="460" type="line"/>
    </contour>
  </outline>
</glyph>
<glyph name="five" format="2">
  <advance width="1679"/>
  <unicode hex="0035"/>
  <outline>
    <contour>
      <point x="116" y="143" type="qcurve"/>
      <point x="206" y="229" type="line"/>
      <point x="310" y="155"/>
      <point x="583" y="85"/>
      <point x="785" y="85" type="qcurve" smooth="yes"/>
      <point x="1008" y="85"/>
      <point x="1315" y="253"/>
      <point x="1315" y="433" type="qcurve" smooth="yes"/>
      <point x="1315" y="610"/>
      <point x="894" y="809"/>
      <point x="383" y="809" type="qcurve" smooth="yes"/>
      <point x="269" y="809" type="line"/>
      <point x="232" y="855" type="line"/>
      <point x="300" y="1476" type="line"/>
      <point x="327" y="1509" type="line"/>
      <point x="1343" y="1509" type="line"/>
      <point x="1336" y="1384" type="line"/>
      <point x="385" y="1384" type="line"/>
      <point x="375" y="1373" type="line"/>
      <point x="319" y="898" type="line"/>
      <point x="606" y="940" type="line"/>
      <point x="968" y="940"/>
      <point x="1452" y="719"/>
      <point x="1452" y="500" type="qcurve" smooth="yes"/>
      <point x="1452" y="262"/>
      <point x="1032" y="-22"/>
      <point x="748" y="-22" type="qcurve" smooth="yes"/>
      <point x="525" y="-22"/>
      <point x="222" y="61"/>
    </contour>
  </outline>
</glyph>
<glyph name="six" format="2">
  <advance width="1732"/>
  <unicode hex="0036"/>
  <outline>
    <contour>
      <point x="188" y="623" type="qcurve" smooth="yes"/>
      <point x="188" y="953"/>
      <point x="820" y="1468"/>
      <point x="1379" y="1589" type="qcurve"/>
      <point x="1408" y="1510" type="line"/>
      <point x="915" y="1403"/>
      <point x="318" y="925"/>
      <point x="318" y="620" type="qcurve" smooth="yes"/>
      <point x="318" y="374"/>
      <point x="677" y="67"/>
      <point x="947" y="67" type="qcurve" smooth="yes"/>
      <point x="1182" y="67"/>
      <point x="1428" y="282"/>
      <point x="1428" y="460" type="qcurve" smooth="yes"/>
      <point x="1428" y="637"/>
      <point x="1140" y="815"/>
      <point x="935" y="815" type="qcurve" smooth="yes"/>
      <point x="846" y="815"/>
      <point x="656" y="784"/>
      <point x="575" y="743" type="qcurve"/>
      <point x="535" y="803" type="line"/>
      <point x="618" y="872"/>
      <point x="868" y="932"/>
      <point x="967" y="932" type="qcurve" smooth="yes"/>
      <point x="1208" y="932"/>
      <point x="1567" y="690"/>
      <point x="1567" y="459" type="qcurve" smooth="yes"/>
      <point x="1567" y="260"/>
      <point x="1190" y="-22"/>
      <point x="930" y="-22" type="qcurve" smooth="yes"/>
      <point x="587" y="-22"/>
      <point x="188" y="339"/>
    </contour>
  </outline>
</glyph>
<glyph name="seven" format="2">
  <advance width="1734"/>
  <unicode hex="0037"/>
  <outline>
    <contour>
      <point x="153" y="1168" type="line"/>
      <point x="172" y="1509" type="line"/>
      <point x="1544" y="1509" type="line"/>
      <point x="1544" y="1440" type="line"/>
      <point x="1006" y="632" type="line"/>
      <point x="621" y="-13" type="line"/>
      <point x="473" y="-13" type="line"/>
      <point x="473" y="45" type="line"/>
      <point x="927" y="664" type="line"/>
      <point x="1444" y="1367" type="line"/>
      <point x="1414" y="1390" type="line"/>
      <point x="275" y="1390" type="line"/>
      <point x="241" y="1168" type="line"/>
    </contour>
  </outline>
</glyph>
<glyph name="eight" format="2">
  <advance width="1849"/>
  <unicode hex="0038"/>
  <outline>
    <contour>
      <point x="165" y="392" type="qcurve" smooth="yes"/>
      <point x="165" y="584"/>
      <point x="557" y="806"/>
      <point x="803" y="887" type="qcurve"/>
      <point x="963" y="837" type="line"/>
      <point x="651" y="758"/>
      <point x="276" y="575"/>
      <point x="276" y="412" type="qcurve" smooth="yes"/>
      <point x="276" y="264"/>
      <point x="639" y="66"/>
      <point x="951" y="66" type="qcurve" smooth="yes"/>
      <point x="1220" y="66"/>
      <point x="1588" y="243"/>
      <point x="1588" y="384" type="qcurve" smooth="yes"/>
      <point x="1588" y="508"/>
      <point x="1384" y="748"/>
      <point x="1060" y="834" type="qcurve" smooth="yes"/>
      <point x="714" y="925"/>
      <point x="322" y="1043"/>
      <point x="322" y="1176" type="qcurve" smooth="yes"/>
      <point x="322" y="1341"/>
      <point x="666" y="1540"/>
      <point x="954" y="1540" type="qcurve" smooth="yes"/>
      <point x="1235" y="1540"/>
      <point x="1565" y="1358"/>
      <point x="1565" y="1226" type="qcurve" smooth="yes"/>
      <point x="1565" y="1095"/>
      <point x="1288" y="905"/>
      <point x="1034" y="852" type="qcurve"/>
      <point x="928" y="901" type="line"/>
      <point x="1192" y="944"/>
      <point x="1445" y="1090"/>
      <point x="1445" y="1204" type="qcurve" smooth="yes"/>
      <point x="1444" y="1311"/>
      <point x="1192" y="1451"/>
      <point x="945" y="1451" type="qcurve" smooth="yes"/>
      <point x="715" y="1451"/>
      <point x="456" y="1302"/>
      <point x="456" y="1197" type="qcurve" smooth="yes"/>
      <point x="456" y="1097"/>
      <point x="708" y="952"/>
      <point x="1090" y="862" type="qcurve" smooth="yes"/>
      <point x="1466" y="773"/>
      <point x="1708" y="569"/>
      <point x="1708" y="409" type="qcurve" smooth="yes"/>
      <point x="1708" y="234"/>
      <point x="1285" y="-22"/>
      <point x="936" y="-22" type="qcurve" smooth="yes"/>
      <point x="578" y="-22"/>
      <point x="165" y="229"/>
    </contour>
  </outline>
</glyph>
<glyph name="nine" format="2">
  <advance width="1732"/>
  <unicode hex="0039"/>
  <outline>
    <contour>
      <point x="165" y="1009" type="qcurve" smooth="yes"/>
      <point x="165" y="1242"/>
      <point x="547" y="1529"/>
      <point x="831" y="1529" type="qcurve" smooth="yes"/>
      <point x="1154" y="1529"/>
      <point x="1544" y="1163"/>
      <point x="1544" y="879" type="qcurve" smooth="yes"/>
      <point x="1544" y="549"/>
      <point x="922" y="21"/>
      <point x="365" y="-86" type="qcurve"/>
      <point x="336" y="-7" type="line"/>
      <point x="834" y="124"/>
      <point x="1413" y="536"/>
      <point x="1413" y="882" type="qcurve" smooth="yes"/>
      <point x="1413" y="1152"/>
      <point x="1061" y="1440"/>
      <point x="822" y="1440" type="qcurve" smooth="yes"/>
      <point x="584" y="1440"/>
      <point x="303" y="1240"/>
      <point x="303" y="1045" type="qcurve" smooth="yes"/>
      <point x="303" y="865"/>
      <point x="600" y="687"/>
      <point x="852" y="687" type="qcurve" smooth="yes"/>
      <point x="952" y="687"/>
      <point x="1097" y="710"/>
      <point x="1190" y="752" type="qcurve"/>
      <point x="1221" y="673" type="line"/>
      <point x="1135" y="619"/>
      <point x="918" y="571"/>
      <point x="799" y="571" type="qcurve" smooth="yes"/>
      <point x="511" y="571"/>
      <point x="165" y="812"/>
    </contour>
  </outline>
</glyph>
<glyph name="colon" format="2">
  <advance width="892"/>
  <unicode hex="003A"/>
  <outline>
    <contour>
      <point x="338" y="91" type="qcurve" smooth="yes"/>
      <point x="338" y="135"/>
      <point x="398" y="199"/>
      <point x="445" y="199" type="qcurve" smooth="yes"/>
      <point x="492" y="199"/>
      <point x="553" y="135"/>
      <point x="553" y="91" type="qcurve" smooth="yes"/>
      <point x="553" y="49"/>
      <point x="492" y="-15"/>
      <point x="445" y="-15" type="qcurve" smooth="yes"/>
      <point x="398" y="-15"/>
      <point x="338" y="49"/>
    </contour>
    <contour>
      <point x="339" y="921" type="qcurve" smooth="yes"/>
      <point x="339" y="964"/>
      <point x="399" y="1028"/>
      <point x="446" y="1028" type="qcurve" smooth="yes"/>
      <point x="493" y="1028"/>
      <point x="553" y="964"/>
      <point x="553" y="921" type="qcurve" smooth="yes"/>
      <point x="553" y="878"/>
      <point x="493" y="814"/>
      <point x="446" y="814" type="qcurve" smooth="yes"/>
      <point x="399" y="814"/>
      <point x="339" y="878"/>
    </contour>
  </outline>
</glyph>
<glyph name="semicolon" format="2">
  <advance width="892"/>
  <unicode hex="003B"/>
  <outline>
    <contour>
      <point x="302" y="-237" type="line"/>
      <point x="347" y="-207"/>
      <point x="465" y="-67"/>
      <point x="481" y="-5" type="qcurve"/>
      <point x="419" y="-9"/>
      <point x="348" y="44"/>
      <point x="348" y="93" type="qcurve" smooth="yes"/>
      <point x="348" y="136"/>
      <point x="408" y="200"/>
      <point x="455" y="200" type="qcurve" smooth="yes"/>
      <point x="499" y="200"/>
      <point x="562" y="144"/>
      <point x="562" y="86" type="qcurve" smooth="yes"/>
      <point x="562" y="-17"/>
      <point x="426" y="-223"/>
      <point x="336" y="-277" type="qcurve"/>
    </contour>
    <contour>
      <point x="339" y="921" type="qcurve" smooth="yes"/>
      <point x="339" y="964"/>
      <point x="399" y="1028"/>
      <point x="446" y="1028" type="qcurve" smooth="yes"/>
      <point x="493" y="1028"/>
      <point x="553" y="964"/>
      <point x="553" y="921" type="qcurve" smooth="yes"/>
      <point x="553" y="878"/>
      <point x="493" y="814"/>
      <point x="446" y="814" type="qcurve" smooth="yes"/>
      <point x="399" y="814"/>
      <point x="339" y="878"/>
    </contour>
  </outline>
</glyph>
<glyph name="less" format="2">
  <advance width="1877"/>
  <unicode hex="003C"/>
  <outline>
    <contour>
      <point x="283" y="634" type="qcurve"/>
      <point x="286" y="638"/>
      <point x="1338" y="1071"/>
      <point x="1410" y="1084" type="qcurve" smooth="yes"/>
      <point x="1479" y="1098"/>
      <point x="1522" y="994"/>
      <point x="1446" y="975" type="qcurve" smooth="yes"/>
      <point x="1273" y="935"/>
      <point x="590" y="636"/>
      <point x="585" y="636" type="qcurve"/>
      <point x="590" y="636"/>
      <point x="1261" y="361"/>
      <point x="1437" y="319" type="qcurve" smooth="yes"/>
      <point x="1509" y="301"/>
      <point x="1486" y="193"/>
      <point x="1413" y="201" type="qcurve" smooth="yes"/>
      <point x="1335" y="210"/>
      <point x="285" y="630"/>
    </contour>
  </outline>
</glyph>
<glyph name="equal" format="2">
  <advance width="1878"/>
  <unicode hex="003D"/>
  <outline>
    <contour>
      <point x="186" y="351" type="line"/>
      <point x="186" y="489" type="line"/>
      <point x="934" y="486" type="line"/>
      <point x="1692" y="489" type="line"/>
      <point x="1692" y="351" type="line"/>
      <point x="934" y="354" type="line"/>
    </contour>
    <contour>
      <point x="186" y="753" type="line"/>
      <point x="186" y="891" type="line"/>
      <point x="934" y="888" type="line"/>
      <point x="1692" y="891" type="line"/>
      <point x="1692" y="753" type="line"/>
      <point x="934" y="756" type="line"/>
    </contour>
  </outline>
</glyph>
<glyph name="greater" format="2">
  <advance width="1733"/>
  <unicode hex="003E"/>
  <outline>
    <contour>
      <point x="405" y="267" type="qcurve" smooth="yes"/>
      <point x="565" y="322"/>
      <point x="1173" y="613"/>
      <point x="1178" y="613" type="qcurve"/>
      <point x="1173" y="613"/>
      <point x="579" y="880"/>
      <point x="415" y="939" type="qcurve" smooth="yes"/>
      <point x="346" y="965"/>
      <point x="382" y="1063"/>
      <point x="450" y="1047" type="qcurve" smooth="yes"/>
      <point x="521" y="1032"/>
      <point x="1450" y="619"/>
      <point x="1452" y="615" type="qcurve"/>
      <point x="1449" y="611"/>
      <point x="517" y="186"/>
      <point x="450" y="165" type="qcurve" smooth="yes"/>
      <point x="386" y="145"/>
      <point x="337" y="245"/>
    </contour>
  </outline>
</glyph>
<glyph name="question" format="2">
  <advance width="1629"/>
  <unicode hex="003F"/>
  <outline>
    <contour>
      <point x="521" y="84" type="qcurve" smooth="yes"/>
      <point x="521" y="128"/>
      <point x="581" y="192"/>
      <point x="628" y="192" type="qcurve" smooth="yes"/>
      <point x="675" y="192"/>
      <point x="736" y="128"/>
      <point x="736" y="84" type="qcurve" smooth="yes"/>
      <point x="736" y="42"/>
      <point x="675" y="-22"/>
      <point x="628" y="-22" type="qcurve" smooth="yes"/>
      <point x="581" y="-22"/>
      <point x="521" y="42"/>
    </contour>
    <contour>
      <point x="183" y="1248" type="qcurve" smooth="yes"/>
      <point x="183" y="1380"/>
      <point x="468" y="1540"/>
      <point x="729" y="1540" type="qcurve" smooth="yes"/>
      <point x="980" y="1540"/>
      <point x="1284" y="1343"/>
      <point x="1284" y="1163" type="qcurve" smooth="yes"/>
      <point x="1284" y="967"/>
      <point x="1088" y="829"/>
      <point x="888" y="731" type="qcurve" smooth="yes"/>
      <point x="789" y="680"/>
      <point x="654" y="602"/>
      <point x="656" y="522" type="qcurve" smooth="yes"/>
      <point x="656" y="435" type="line"/>
      <point x="576" y="435" type="line"/>
      <point x="563" y="519" type="line" smooth="yes"/>
      <point x="552" y="594"/>
      <point x="637" y="749"/>
      <point x="803" y="824" type="qcurve" smooth="yes"/>
      <point x="949" y="889"/>
      <point x="1151" y="1000"/>
      <point x="1151" y="1150" type="qcurve" smooth="yes"/>
      <point x="1151" y="1295"/>
      <point x="900" y="1451"/>
      <point x="701" y="1451" type="qcurve" smooth="yes"/>
      <point x="507" y="1451"/>
      <point x="291" y="1360"/>
      <point x="291" y="1297" type="qcurve" smooth="yes"/>
      <point x="291" y="1265"/>
      <point x="382" y="1222"/>
      <point x="383" y="1186" type="qcurve" smooth="yes"/>
      <point x="386" y="1156"/>
      <point x="340" y="1107"/>
      <point x="295" y="1107" type="qcurve" smooth="yes"/>
      <point x="245" y="1107"/>
      <point x="183" y="1180"/>
    </contour>
  </outline>
</glyph>
<glyph name="at" format="2">
  <advance width="2867"/>
  <unicode hex="0040"/>
  <outline>
    <contour>
      <point x="194" y="727" type="qcurve" smooth="yes"/>
      <point x="194" y="1059"/>
      <point x="864" y="1520"/>
      <point x="1414" y="1520" type="qcurve" smooth="yes"/>
      <point x="1932" y="1520"/>
      <point x="2616" y="1156"/>
      <point x="2616" y="868" type="qcurve" smooth="yes"/>
      <point x="2616" y="630"/>
      <point x="2495" y="346"/>
      <point x="2151" y="346" type="qcurve" smooth="yes"/>
      <point x="2056" y="346"/>
      <point x="1963" y="417"/>
      <point x="1946" y="471" type="qcurve"/>
      <point x="1850" y="405"/>
      <point x="1502" y="317"/>
      <point x="1317" y="317" type="qcurve" smooth="yes"/>
      <point x="1094" y="317"/>
      <point x="821" y="453"/>
      <point x="821" y="544" type="qcurve" smooth="yes"/>
      <point x="821" y="662"/>
      <point x="1300" y="874"/>
      <point x="1975" y="862" type="qcurve"/>
      <point x="1985" y="796" type="line"/>
      <point x="1518" y="795"/>
      <point x="934" y="667"/>
      <point x="934" y="554" type="qcurve" smooth="yes"/>
      <point x="934" y="485"/>
      <point x="1167" y="418"/>
      <point x="1312" y="418" type="qcurve" smooth="yes"/>
      <point x="1483" y="418"/>
      <point x="1842" y="505"/>
      <point x="1915" y="549" type="qcurve"/>
      <point x="1922" y="878" type="line" smooth="yes"/>
      <point x="1925" y="1026"/>
      <point x="1655" y="1131"/>
      <point x="1408" y="1131" type="qcurve" smooth="yes"/>
      <point x="1207" y="1131"/>
      <point x="1026" y="1086"/>
      <point x="1016" y="1065" type="qcurve"/>
      <point x="1038" y="1045"/>
      <point x="1061" y="1005"/>
      <point x="1063" y="990" type="qcurve" smooth="yes"/>
      <point x="1068" y="963"/>
      <point x="1037" y="924"/>
      <point x="1007" y="924" type="qcurve" smooth="yes"/>
      <point x="975" y="924"/>
      <point x="938" y="978"/>
      <point x="938" y="1024" type="qcurve" smooth="yes"/>
      <point x="938" y="1118"/>
      <point x="1206" y="1213"/>
      <point x="1460" y="1213" type="qcurve" smooth="yes"/>
      <point x="1797" y="1213"/>
      <point x="2026" y="1042"/>
      <point x="2024" y="854" type="qcurve" smooth="yes"/>
      <point x="2031" y="514" type="line" smooth="yes"/>
      <point x="2031" y="477"/>
      <point x="2103" y="438"/>
      <point x="2196" y="438" type="qcurve" smooth="yes"/>
      <point x="2421" y="438"/>
      <point x="2502" y="665"/>
      <point x="2502" y="863" type="qcurve" smooth="yes"/>
      <point x="2502" y="1102"/>
      <point x="1922" y="1411"/>
      <point x="1409" y="1411" type="qcurve" smooth="yes"/>
      <point x="893" y="1411"/>
      <point x="313" y="1029"/>
      <point x="313" y="737" type="qcurve" smooth="yes"/>
      <point x="313" y="461"/>
      <point x="926" y="74"/>
      <point x="1407" y="74" type="qcurve" smooth="yes"/>
      <point x="1653" y="74"/>
      <point x="1959" y="143"/>
      <point x="2035" y="178" type="qcurve"/>
      <point x="2082" y="108" type="line"/>
      <point x="1994" y="57"/>
      <point x="1664" y="-30"/>
      <point x="1408" y="-30" type="qcurve" smooth="yes"/>
      <point x="885" y="-30"/>
      <point x="194" y="399"/>
    </contour>
  </outline>
</glyph>
<glyph name="A" format="2">
  <advance width="2236"/>
  <unicode hex="0041"/>
  <anchor x="1150" y="0" name="bottom"/>
  <anchor x="2059" y="0" name="ogonek"/>
  <anchor x="898" y="1500" name="tonos"/>
  <anchor x="1159" y="1500" name="top"/>
  <outline>
    <contour>
      <point x="39" y="0" type="line"/>
      <point x="39" y="98" type="line"/>
      <point x="287" y="133" type="line"/>
      <point x="542" y="564" type="line"/>
      <point x="1106" y="1508" type="line"/>
      <point x="1192" y="1508" type="line"/>
      <point x="1728" y="571" type="line"/>
      <point x="1977" y="133" type="line"/>
      <point x="2210" y="98" type="line"/>
      <point x="2210" y="0" type="line"/>
      <point x="1594" y="0" type="line"/>
      <point x="1594" y="98" type="line"/>
      <point x="1833" y="129" type="line"/>
      <point x="1611" y="503" type="line"/>
      <point x="1201" y="1222" type="line"/>
      <point x="1133" y="1338" type="line"/>
      <point x="1113" y="1338" type="line"/>
      <point x="1042" y="1222" type="line"/>
      <point x="639" y="499" type="line"/>
      <point x="409" y="128" type="line"/>
      <point x="650" y="98" type="line"/>
      <point x="650" y="0" type="line"/>
    </contour>
    <contour>
      <point x="1147" y="546" type="line"/>
      <point x="1603" y="561" type="line"/>
      <point x="1682" y="462" type="line"/>
      <point x="1147" y="462" type="line"/>
    </contour>
    <contour>
      <point x="604" y="463" type="line"/>
      <point x="686" y="560" type="line"/>
      <point x="1147" y="546" type="line"/>
      <point x="1147" y="462" type="line"/>
    </contour>
  </outline>
</glyph>
<glyph name="B" format="2">
  <advance width="1732"/>
  <unicode hex="0042"/>
  <anchor x="867" y="0" name="bottom"/>
  <anchor x="867" y="1500" name="top"/>
  <outline>
    <contour>
      <point x="136" y="0" type="line"/>
      <point x="136" y="98" type="line"/>
      <point x="404" y="134" type="line"/>
      <point x="408" y="784" type="line"/>
      <point x="404" y="1354" type="line"/>
      <point x="136" y="1388" type="line"/>
      <point x="136" y="1500" type="line"/>
      <point x="862" y="1500" type="line" smooth="yes"/>
      <point x="1141" y="1500"/>
      <point x="1406" y="1315"/>
      <point x="1406" y="1172" type="qcurve" smooth="yes"/>
      <point x="1406" y="1037"/>
      <point x="1268" y="854"/>
      <point x="1146" y="831" type="qcurve"/>
      <point x="1146" y="821" type="line"/>
      <point x="1315" y="797"/>
      <point x="1552" y="600"/>
      <point x="1552" y="433" type="qcurve" smooth="yes"/>
      <point x="1552" y="246"/>
      <point x="1200" y="0"/>
      <point x="889" y="0" type="qcurve" smooth="yes"/>
    </contour>
    <contour>
      <point x="532" y="114" type="line"/>
      <point x="565" y="93" type="line"/>
      <point x="822" y="93" type="line" smooth="yes"/>
      <point x="1128" y="93"/>
      <point x="1420" y="257"/>
      <point x="1420" y="435" type="qcurve" smooth="yes"/>
      <point x="1420" y="587"/>
      <point x="1167" y="749"/>
      <point x="931" y="749" type="qcurve" smooth="yes"/>
      <point x="541" y="749" type="line"/>
      <point x="532" y="735" type="line"/>
    </contour>
    <contour>
      <point x="531" y="856" type="line"/>
      <point x="540" y="841" type="line"/>
      <point x="805" y="841" type="line" smooth="yes"/>
      <point x="1038" y="841"/>
      <point x="1277" y="990"/>
      <point x="1277" y="1138" type="qcurve" smooth="yes"/>
      <point x="1277" y="1272"/>
      <point x="1044" y="1395"/>
      <point x="821" y="1395" type="qcurve" smooth="yes"/>
      <point x="562" y="1395" type="line"/>
      <point x="533" y="1376" type="line"/>
    </contour>
  </outline>
</glyph>
<glyph name="C" format="2">
  <advance width="2158"/>
  <unicode hex="0043"/>
  <anchor x="1112" y="0" name="bottom"/>
  <anchor x="1115" y="1500" name="top"/>
  <outline>
    <contour>
      <point x="194" y="750" type="qcurve" smooth="yes"/>
      <point x="194" y="1083"/>
      <point x="715" y="1520"/>
      <point x="1165" y="1520" type="qcurve" smooth="yes"/>
      <point x="1344" y="1520"/>
      <point x="1625" y="1459"/>
      <point x="1700" y="1422" type="qcurve"/>
      <point x="1734" y="1506" type="line"/>
      <point x="1805" y="1506" type="line"/>
      <point x="1805" y="1019" type="line"/>
      <point x="1710" y="1019" type="line"/>
      <point x="1657" y="1199" type="line" smooth="yes"/>
      <point x="1623" y="1308"/>
      <point x="1372" y="1417"/>
      <point x="1185" y="1417" type="qcurve" smooth="yes"/>
      <point x="790" y="1417"/>
      <point x="322" y="1073"/>
      <point x="327" y="740" type="qcurve" smooth="yes"/>
      <point x="329" y="428"/>
      <point x="779" y="86"/>
      <point x="1154" y="86" type="qcurve" smooth="yes"/>
      <point x="1429" y="86"/>
      <point x="1783" y="210"/>
      <point x="1886" y="312" type="qcurve"/>
      <point x="2004" y="245" type="line"/>
      <point x="1859" y="110"/>
      <point x="1428" y="-30"/>
      <point x="1185" y="-30" type="qcurve" smooth="yes"/>
      <point x="723" y="-30"/>
      <point x="194" y="371"/>
    </contour>
  </outline>
</glyph>
<glyph name="D" format="2">
  <advance width="2264"/>
  <unicode hex="0044"/>
  <anchor x="1121" y="0" name="bottom"/>
  <anchor x="513" y="754" name="center"/>
  <anchor x="1121" y="1500" name="top"/>
  <outline>
    <contour>
      <point x="136" y="0" type="line"/>
      <point x="136" y="98" type="line"/>
      <point x="404" y="133" type="line"/>
      <point x="405" y="754" type="line"/>
      <point x="404" y="1354" type="line"/>
      <point x="136" y="1388" type="line"/>
      <point x="136" y="1500" type="line"/>
      <point x="941" y="1500" type="line" smooth="yes"/>
      <point x="1450" y="1500"/>
      <point x="2070" y="1119"/>
      <point x="2070" y="777" type="qcurve" smooth="yes"/>
      <point x="2070" y="410"/>
      <point x="1447" y="0"/>
      <point x="874" y="0" type="qcurve" smooth="yes"/>
    </contour>
    <contour>
      <point x="532" y="108" type="line"/>
      <point x="590" y="99"/>
      <point x="735" y="93"/>
      <point x="955" y="93" type="qcurve" smooth="yes"/>
      <point x="1386" y="93"/>
      <point x="1930" y="428"/>
      <point x="1934" y="761" type="qcurve" smooth="yes"/>
      <point x="1936" y="1070"/>
      <point x="1367" y="1399"/>
      <point x="894" y="1399" type="qcurve" smooth="yes"/>
      <point x="740" y="1399"/>
      <point x="594" y="1392"/>
      <point x="532" y="1382" type="qcurve"/>
      <point x="528" y="754" type="line"/>
    </contour>
  </outline>
</glyph>
<glyph name="E" format="2">
  <advance width="1897"/>
  <unicode hex="0045"/>
  <anchor x="967" y="0" name="bottom"/>
  <anchor x="1495" y="0" name="ogonek"/>
  <anchor x="978" y="1500" name="top"/>
  <anchor x="253" y="1500" name="tonos"/>
  <outline>
    <contour>
      <point x="136" y="0" type="line"/>
      <point x="136" y="98" type="line"/>
      <point x="404" y="135" type="line"/>
      <point x="405" y="783" type="line"/>
      <point x="404" y="1354" type="line"/>
      <point x="136" y="1388" type="line"/>
      <point x="136" y="1500" type="line"/>
      <point x="1623" y="1500" type="line"/>
      <point x="1623" y="1140" type="line"/>
      <point x="1531" y="1140" type="line"/>
      <point x="1496" y="1405" type="line"/>
      <point x="550" y="1405" type="line"/>
      <point x="526" y="1385" type="line"/>
      <point x="525" y="783" type="line"/>
      <point x="526" y="129" type="line"/>
      <point x="556" y="87" type="line"/>
      <point x="1559" y="87" type="line"/>
      <point x="1635" y="390" type="line"/>
      <point x="1727" y="390" type="line"/>
      <point x="1687" y="0" type="line"/>
    </contour>
    <contour>
      <point x="469" y="747" type="line"/>
      <point x="469" y="824" type="line"/>
      <point x="1350" y="832" type="line"/>
      <point x="1385" y="1016" type="line"/>
      <point x="1477" y="1016" type="line"/>
      <point x="1477" y="556" type="line"/>
      <point x="1385" y="556" type="line"/>
      <point x="1350" y="739" type="line"/>
    </contour>
  </outline>
</glyph>
<glyph name="F" format="2">
  <advance width="1676"/>
  <unicode hex="0046"/>
  <anchor x="746" y="0" name="bottom"/>
  <anchor x="898" y="1500" name="top"/>
  <outline>
    <contour>
      <point x="136" y="0" type="line"/>
      <point x="136" y="98" type="line"/>
      <point x="404" y="135" type="line"/>
      <point x="405" y="760" type="line"/>
      <point x="404" y="1354" type="line"/>
      <point x="136" y="1388" type="line"/>
      <point x="136" y="1500" type="line"/>
      <point x="1504" y="1500" type="line"/>
      <point x="1504" y="1130" type="line"/>
      <point x="1412" y="1130" type="line"/>
      <point x="1377" y="1405" type="line"/>
      <point x="562" y="1405" type="line"/>
      <point x="532" y="1385" type="line"/>
      <point x="530" y="760" type="line"/>
      <point x="532" y="130" type="line"/>
      <point x="820" y="98" type="line"/>
      <point x="820" y="0" type="line"/>
    </contour>
    <contour>
      <point x="468" y="719" type="line"/>
      <point x="468" y="801" type="line"/>
      <point x="1231" y="807" type="line"/>
      <point x="1266" y="1000" type="line"/>
      <point x="1358" y="1000" type="line"/>
      <point x="1358" y="510" type="line"/>
      <point x="1266" y="510" type="line"/>
      <point x="1231" y="713" type="line"/>
    </contour>
  </outline>
</glyph>
<glyph name="G" format="2">
  <advance width="2339"/>
  <unicode hex="0047"/>
  <anchor x="1247" y="0" name="bottom"/>
  <anchor x="1236" y="1500" name="top"/>
  <outline>
    <contour>
      <point x="194" y="744" type="qcurve" smooth="yes"/>
      <point x="194" y="1068"/>
      <point x="808" y="1520"/>
      <point x="1269" y="1520" type="qcurve" smooth="yes"/>
      <point x="1500" y="1520"/>
      <point x="1822" y="1457"/>
      <point x="1896" y="1427" type="qcurve"/>
      <point x="1930" y="1506" type="line"/>
      <point x="2015" y="1506" type="line"/>
      <point x="2015" y="1029" type="line"/>
      <point x="1919" y="1029" type="line"/>
      <point x="1855" y="1193" type="line" smooth="yes"/>
      <point x="1810" y="1305"/>
      <point x="1520" y="1411"/>
      <point x="1297" y="1411" type="qcurve" smooth="yes"/>
      <point x="842" y="1411"/>
      <point x="325" y="1070"/>
      <point x="329" y="768" type="qcurve" smooth="yes"/>
      <point x="331" y="464"/>
      <point x="872" y="71"/>
      <point x="1344" y="71" type="qcurve" smooth="yes"/>
      <point x="1538" y="71"/>
      <point x="1861" y="155"/>
      <point x="1976" y="226" type="qcurve"/>
      <point x="1976" y="525" type="line"/>
      <point x="1717" y="560" type="line"/>
      <point x="1717" y="658" type="line"/>
      <point x="2289" y="658" type="line"/>
      <point x="2289" y="560" type="line"/>
      <point x="2098" y="525" type="line"/>
      <point x="2098" y="219" type="line"/>
      <point x="1984" y="127"/>
      <point x="1586" y="-30"/>
      <point x="1320" y="-30" type="qcurve" smooth="yes"/>
      <point x="824" y="-30"/>
      <point x="194" y="394"/>
    </contour>
  </outline>
</glyph>
<glyph name="H" format="2">
  <advance width="2385"/>
  <unicode hex="0048"/>
  <anchor x="1183" y="0" name="bottom"/>
  <anchor x="1182" y="1079" name="center"/>
  <anchor x="1183" y="1500" name="top"/>
  <anchor x="114" y="1500" name="tonos"/>
  <outline>
    <contour>
      <point x="136" y="0" type="line"/>
      <point x="136" y="98" type="line"/>
      <point x="404" y="133" type="line"/>
      <point x="405" y="754" type="line"/>
      <point x="404" y="1354" type="line"/>
      <point x="136" y="1388" type="line"/>
      <point x="136" y="1500" type="line"/>
      <point x="800" y="1500" type="line"/>
      <point x="800" y="1388" type="line"/>
      <point x="532" y="1354" type="line"/>
      <point x="530" y="754" type="line"/>
      <point x="532" y="133" type="line"/>
      <point x="800" y="98" type="line"/>
      <point x="800" y="0" type="line"/>
    </contour>
    <contour>
      <point x="468" y="728" type="line"/>
      <point x="468" y="834" type="line"/>
      <point x="1189" y="828" type="line"/>
      <point x="1917" y="834" type="line"/>
      <point x="1917" y="728" type="line"/>
      <point x="1189" y="728" type="line"/>
    </contour>
    <contour>
      <point x="1586" y="0" type="line"/>
      <point x="1586" y="98" type="line"/>
      <point x="1854" y="133" type="line"/>
      <point x="1855" y="754" type="line"/>
      <point x="1854" y="1354" type="line"/>
      <point x="1586" y="1388" type="line"/>
      <point x="1586" y="1500" type="line"/>
      <point x="2249" y="1500" type="line"/>
      <point x="2249" y="1388" type="line"/>
      <point x="1981" y="1354" type="line"/>
      <point x="1980" y="754" type="line"/>
      <point x="1981" y="133" type="line"/>
      <point x="2249" y="98" type="line"/>
      <point x="2249" y="0" type="line"/>
    </contour>
  </outline>
</glyph>
<glyph name="J" format="2">
  <advance width="1099"/>
  <unicode hex="004A"/>
  <anchor x="609" y="-208" name="bottom"/>
  <anchor x="664" y="1500" name="top"/>
  <outline>
    <contour>
      <point x="151" y="-204" type="qcurve"/>
      <point x="151" y="-103" type="line"/>
      <point x="195" y="-105"/>
      <point x="294" y="-104"/>
      <point x="358" y="-99" type="qcurve" smooth="yes"/>
      <point x="477" y="-90"/>
      <point x="588" y="-8"/>
      <point x="588" y="86" type="qcurve" smooth="yes"/>
      <point x="586" y="834" type="line"/>
      <point x="585" y="1354" type="line"/>
      <point x="322" y="1388" type="line"/>
      <point x="322" y="1500" type="line"/>
      <point x="963" y="1500" type="line"/>
      <point x="963" y="1386" type="line"/>
      <point x="713" y="1352" type="line"/>
      <point x="711" y="834" type="line"/>
      <point x="720" y="167" type="line" smooth="yes"/>
      <point x="723" y="-29"/>
      <point x="535" y="-203"/>
      <point x="373" y="-207" type="qcurve" smooth="yes"/>
      <point x="283" y="-210"/>
      <point x="181" y="-206"/>
    </contour>
  </outline>
</glyph>
<glyph name="K" format="2">
  <advance width="2037"/>
  <unicode hex="004B"/>
  <anchor x="962" y="0" name="bottom"/>
  <anchor x="920" y="1500" name="top"/>
  <outline>
    <contour>
      <point x="136" y="0" type="line"/>
      <point x="136" y="98" type="line"/>
      <point x="404" y="133" type="line"/>
      <point x="405" y="754" type="line"/>
      <point x="404" y="1354" type="line"/>
      <point x="136" y="1388" type="line"/>
      <point x="136" y="1500" type="line"/>
      <point x="790" y="1500" type="line"/>
      <point x="790" y="1388" type="line"/>
      <point x="532" y="1354" type="line"/>
      <point x="530" y="751" type="line"/>
      <point x="532" y="130" type="line"/>
      <point x="800" y="98" type="line"/>
      <point x="800" y="0" type="line"/>
    </contour>
    <contour>
      <point x="469" y="539" type="line"/>
      <point x="469" y="642" type="line"/>
      <point x="1523" y="1340" type="line"/>
      <point x="1316" y="1388" type="line"/>
      <point x="1316" y="1500" type="line"/>
      <point x="1923" y="1500" type="line"/>
      <point x="1923" y="1388" type="line"/>
      <point x="1685" y="1340" type="line"/>
      <point x="885" y="775" type="line"/>
      <point x="836" y="756" type="line"/>
    </contour>
    <contour>
      <point x="783" y="799" type="line"/>
      <point x="884" y="852" type="line"/>
      <point x="1802" y="133" type="line"/>
      <point x="2019" y="98" type="line"/>
      <point x="2019" y="0" type="line"/>
      <point x="1418" y="0" type="line"/>
      <point x="1418" y="98" type="line"/>
      <point x="1646" y="133" type="line"/>
    </contour>
  </outline>
</glyph>
<glyph name="L" format="2">
  <advance width="1878"/>
  <unicode hex="004C"/>
  <anchor x="1007" y="0" name="bottom"/>
  <anchor x="1230" y="750" name="centerright"/>
  <anchor x="934" y="1500" name="top"/>
  <anchor x="1086" y="1001" name="topright"/>
  <anchor x="467" y="750" name="center"/>
  <outline>
    <contour>
      <point x="136" y="0" type="line"/>
      <point x="136" y="98" type="line"/>
      <point x="404" y="130" type="line"/>
      <point x="405" y="754" type="line"/>
      <point x="404" y="1354" type="line"/>
      <point x="136" y="1388" type="line"/>
      <point x="136" y="1500" type="line"/>
      <point x="823" y="1500" type="line"/>
      <point x="823" y="1388" type="line"/>
      <point x="532" y="1354" type="line"/>
      <point x="530" y="754" type="line"/>
      <point x="532" y="114" type="line"/>
      <point x="572" y="87" type="line"/>
      <point x="1568" y="87" type="line"/>
      <point x="1654" y="436" type="line"/>
      <point x="1756" y="436" type="line"/>
      <point x="1705" y="0" type="line"/>
    </contour>
  </outline>
</glyph>
<glyph name="M" format="2">
  <advance width="2856"/>
  <unicode hex="004D"/>
  <anchor x="1500" y="0" name="bottom"/>
  <anchor x="1533" y="1500" name="top"/>
  <outline>
    <contour>
      <point x="277" y="0" type="line"/>
      <point x="277" y="98" type="line"/>
      <point x="545" y="133" type="line"/>
      <point x="545" y="754" type="line"/>
      <point x="545" y="1354" type="line"/>
      <point x="277" y="1388" type="line"/>
      <point x="277" y="1500" type="line"/>
      <point x="683" y="1500" type="line"/>
      <point x="1092" y="800" type="line"/>
      <point x="1446" y="173" type="line"/>
      <point x="1512" y="59" type="line"/>
      <point x="1522" y="59" type="line"/>
      <point x="1587" y="173" type="line"/>
      <point x="1921" y="775" type="line"/>
      <point x="2326" y="1500" type="line"/>
      <point x="2720" y="1500" type="line"/>
      <point x="2720" y="1388" type="line"/>
      <point x="2452" y="1354" type="line"/>
      <point x="2448" y="754" type="line"/>
      <point x="2452" y="133" type="line"/>
      <point x="2720" y="98" type="line"/>
      <point x="2720" y="0" type="line"/>
      <point x="2027" y="0" type="line"/>
      <point x="2027" y="98" type="line"/>
      <point x="2325" y="133" type="line"/>
      <point x="2326" y="754" type="line"/>
      <point x="2325" y="1210" type="line"/>
      <point x="2329" y="1329" type="line"/>
      <point x="2319" y="1331" type="line"/>
      <point x="2253" y="1224" type="line"/>
      <point x="1979" y="733" type="line"/>
      <point x="1559" y="-8" type="line"/>
      <point x="1420" y="-8" type="line"/>
      <point x="993" y="726" type="line"/>
      <point x="715" y="1226" type="line"/>
      <point x="646" y="1333" type="line"/>
      <point x="636" y="1328" type="line"/>
      <point x="641" y="1212" type="line"/>
      <point x="641" y="754" type="line"/>
      <point x="644" y="133" type="line"/>
      <point x="922" y="98" type="line"/>
      <point x="922" y="0" type="line"/>
    </contour>
  </outline>
</glyph>
<glyph name="N" format="2">
  <advance width="2270"/>
  <unicode hex="004E"/>
  <anchor x="1092" y="0" name="bottom"/>
  <anchor x="1115" y="1500" name="top"/>
  <outline>
    <contour>
      <point x="136" y="0" type="line"/>
      <point x="136" y="98" type="line"/>
      <point x="404" y="133" type="line"/>
      <point x="406" y="754" type="line"/>
      <point x="404" y="1354" type="line"/>
      <point x="136" y="1388" type="line"/>
      <point x="136" y="1500" type="line"/>
      <point x="542" y="1500" type="line"/>
      <point x="1188" y="877" type="line"/>
      <point x="1692" y="290" type="line"/>
      <point x="1780" y="185" type="line"/>
      <point x="1789" y="188" type="line"/>
      <point x="1786" y="307" type="line"/>
      <point x="1787" y="754" type="line"/>
      <point x="1786" y="1354" type="line"/>
      <point x="1498" y="1388" type="line"/>
      <point x="1498" y="1500" type="line"/>
      <point x="2150" y="1500" type="line"/>
      <point x="2150" y="1388" type="line"/>
      <point x="1882" y="1354" type="line"/>
      <point x="1881" y="754" type="line"/>
      <point x="1877" y="0" type="line"/>
      <point x="1812" y="0" type="line"/>
      <point x="1124" y="749" type="line"/>
      <point x="596" y="1308" type="line"/>
      <point x="505" y="1417" type="line"/>
      <point x="496" y="1414" type="line"/>
      <point x="501" y="1294" type="line"/>
      <point x="499" y="754" type="line"/>
      <point x="501" y="133" type="line"/>
      <point x="779" y="98" type="line"/>
      <point x="779" y="0" type="line"/>
    </contour>
  </outline>
</glyph>
<glyph name="O" format="2">
  <advance width="2358"/>
  <unicode hex="004F"/>
  <anchor x="1179" y="0" name="bottom"/>
  <anchor x="1179" y="750" name="center"/>
  <anchor x="1466" y="0" name="ogonek"/>
  <anchor x="1179" y="1500" name="top"/>
  <anchor x="1405" y="1500" name="topright"/>
  <anchor x="304" y="1500" name="tonos"/>
  <outline>
    <contour>
      <point x="194" y="742" type="qcurve" smooth="yes"/>
      <point x="194" y="1068"/>
      <point x="736" y="1520"/>
      <point x="1179" y="1520" type="qcurve" smooth="yes"/>
      <point x="1621" y="1520"/>
      <point x="2164" y="1095"/>
      <point x="2164" y="752" type="qcurve" smooth="yes"/>
      <point x="2164" y="415"/>
      <point x="1630" y="-31"/>
      <point x="1187" y="-31" type="qcurve" smooth="yes"/>
      <point x="748" y="-31"/>
      <point x="194" y="402"/>
    </contour>
    <contour>
      <point x="330" y="768" type="qcurve" smooth="yes"/>
      <point x="329" y="468"/>
      <point x="803" y="75"/>
      <point x="1185" y="75" type="qcurve" smooth="yes"/>
      <point x="1594" y="75"/>
      <point x="2029" y="425"/>
      <point x="2029" y="746" type="qcurve" smooth="yes"/>
      <point x="2029" y="1034"/>
      <point x="1564" y="1408"/>
      <point x="1181" y="1408" type="qcurve" smooth="yes"/>
      <point x="766" y="1408"/>
      <point x="329" y="1049"/>
    </contour>
  </outline>
</glyph>
<glyph name="P" format="2">
  <advance width="1742"/>
  <unicode hex="0050"/>
  <anchor x="705" y="0" name="bottom"/>
  <anchor x="901" y="1500" name="top"/>
  <outline>
    <contour>
      <point x="136" y="0" type="line"/>
      <point x="136" y="98" type="line"/>
      <point x="404" y="135" type="line"/>
      <point x="405" y="754" type="line"/>
      <point x="404" y="1354" type="line"/>
      <point x="136" y="1388" type="line"/>
      <point x="136" y="1500" type="line"/>
      <point x="931" y="1500" type="line" smooth="yes"/>
      <point x="1256" y="1500"/>
      <point x="1578" y="1284"/>
      <point x="1578" y="1072" type="qcurve" smooth="yes"/>
      <point x="1578" y="860"/>
      <point x="1228" y="599"/>
      <point x="916" y="599" type="qcurve" smooth="yes"/>
      <point x="751" y="599"/>
      <point x="495" y="617"/>
      <point x="418" y="625" type="qcurve"/>
      <point x="430" y="711" type="line"/>
      <point x="521" y="700"/>
      <point x="710" y="690"/>
      <point x="865" y="690" type="qcurve" smooth="yes"/>
      <point x="1144" y="690"/>
      <point x="1440" y="893"/>
      <point x="1440" y="1072" type="qcurve" smooth="yes"/>
      <point x="1440" y="1240"/>
      <point x="1158" y="1405"/>
      <point x="897" y="1405" type="qcurve" smooth="yes"/>
      <point x="563" y="1405" type="line"/>
      <point x="532" y="1383" type="line"/>
      <point x="527" y="764" type="line"/>
      <point x="529" y="130" type="line"/>
      <point x="967" y="98" type="line"/>
      <point x="967" y="0" type="line"/>
    </contour>
  </outline>
</glyph>
<glyph name="Q" format="2">
  <advance width="2358"/>
  <unicode hex="0051"/>
  <anchor x="1187" y="0" name="bottom"/>
  <anchor x="1237" y="1489" name="top"/>
  <outline>
    <contour>
      <point x="194" y="746" type="qcurve" smooth="yes"/>
      <point x="194" y="1065"/>
      <point x="717" y="1520"/>
      <point x="1179" y="1520" type="qcurve" smooth="yes"/>
      <point x="1672" y="1520"/>
      <point x="2164" y="1092"/>
      <point x="2164" y="753" type="qcurve" smooth="yes"/>
      <point x="2164" y="393"/>
      <point x="1665" y="-23"/>
      <point x="1185" y="-23" type="qcurve" smooth="yes"/>
      <point x="710" y="-23"/>
      <point x="194" y="413"/>
    </contour>
    <contour>
      <point x="330" y="769" type="qcurve" smooth="yes"/>
      <point x="330" y="470"/>
      <point x="799" y="71"/>
      <point x="1183" y="71" type="qcurve" smooth="yes"/>
      <point x="1592" y="72"/>
      <point x="2028" y="439"/>
      <point x="2029" y="747" type="qcurve" smooth="yes"/>
      <point x="2030" y="1036"/>
      <point x="1564" y="1408"/>
      <point x="1181" y="1408" type="qcurve" smooth="yes"/>
      <point x="766" y="1408"/>
      <point x="328" y="1051"/>
    </contour>
    <contour>
      <point x="705" y="-55" type="qcurve" identifier="jWZBD98qkQ"/>
      <point x="1848" y="-277" type="line" smooth="yes" identifier="7ZXZEQkAbx"/>
      <point x="1931" y="-199"/>
      <point x="2025" y="-205"/>
      <point x="2059" y="-138" type="qcurve"/>
      <point x="2131" y="-179" type="line"/>
      <point x="2086" y="-284"/>
      <point x="1969" y="-205"/>
      <point x="1811" y="-387" type="qcurve" smooth="yes" identifier="bSft9tBggp"/>
      <point x="683" y="-166" type="line" identifier="aDYWDNvZlZ"/>
      <point x="615" y="-163"/>
      <point x="500" y="-212"/>
      <point x="442" y="-278" type="qcurve"/>
      <point x="387" y="-226" type="line"/>
      <point x="443" y="-140"/>
      <point x="602" y="-50"/>
    </contour>
    <contour>
      <point x="787" y="-100" type="line"/>
      <point x="1061" y="324" type="line"/>
      <point x="1158" y="288" type="line"/>
      <point x="881" y="-129" type="line"/>
    </contour>
  </outline>
</glyph>
<glyph name="R" format="2">
  <advance width="2001"/>
  <unicode hex="0052"/>
  <anchor x="864" y="0" name="bottom"/>
  <anchor x="887" y="1500" name="top"/>
  <outline>
    <contour>
      <point x="136" y="0" type="line"/>
      <point x="136" y="98" type="line"/>
      <point x="404" y="134" type="line"/>
      <point x="405" y="794" type="line"/>
      <point x="404" y="1354" type="line"/>
      <point x="139" y="1388" type="line"/>
      <point x="139" y="1500" type="line"/>
      <point x="919" y="1500" type="line" smooth="yes"/>
      <point x="1192" y="1500"/>
      <point x="1453" y="1315"/>
      <point x="1453" y="1149" type="qcurve" smooth="yes"/>
      <point x="1453" y="966"/>
      <point x="1133" y="736"/>
      <point x="917" y="736" type="qcurve" smooth="yes"/>
      <point x="815" y="736"/>
      <point x="498" y="741"/>
      <point x="408" y="744" type="qcurve"/>
      <point x="408" y="824" type="line"/>
      <point x="820" y="824" type="line" smooth="yes"/>
      <point x="1077" y="824"/>
      <point x="1313" y="995"/>
      <point x="1313" y="1137" type="qcurve" smooth="yes"/>
      <point x="1313" y="1264"/>
      <point x="1109" y="1405"/>
      <point x="882" y="1405" type="qcurve" smooth="yes"/>
      <point x="562" y="1405" type="line"/>
      <point x="533" y="1387" type="line"/>
      <point x="528" y="794" type="line"/>
      <point x="532" y="134" type="line"/>
      <point x="947" y="98" type="line"/>
      <point x="947" y="0" type="line"/>
    </contour>
    <contour>
      <point x="784" y="768" type="line"/>
      <point x="949" y="792" type="line"/>
      <point x="1487" y="313" type="line" smooth="yes"/>
      <point x="1651" y="161"/>
      <point x="1879" y="99"/>
      <point x="2003" y="98" type="qcurve"/>
      <point x="2003" y="0" type="line"/>
      <point x="1656" y="0" type="line"/>
      <point x="1606" y="20" type="line"/>
    </contour>
  </outline>
</glyph>
<glyph name="S" format="2">
  <advance width="1755"/>
  <unicode hex="0053"/>
  <anchor x="910" y="0" name="bottom"/>
  <anchor x="863" y="1500" name="top"/>
  <outline>
    <contour>
      <point x="184" y="-6" type="line"/>
      <point x="184" y="496" type="line"/>
      <point x="281" y="496" type="line"/>
      <point x="314" y="379" type="line" smooth="yes"/>
      <point x="366" y="216"/>
      <point x="723" y="79"/>
      <point x="970" y="79" type="qcurve" smooth="yes"/>
      <point x="1232" y="79"/>
      <point x="1486" y="243"/>
      <point x="1486" y="372" type="qcurve" smooth="yes"/>
      <point x="1486" y="526"/>
      <point x="1165" y="682"/>
      <point x="832" y="758" type="qcurve" smooth="yes"/>
      <point x="576" y="812"/>
      <point x="300" y="996"/>
      <point x="300" y="1142" type="qcurve" smooth="yes"/>
      <point x="300" y="1313"/>
      <point x="594" y="1520"/>
      <point x="848" y="1520" type="qcurve" smooth="yes"/>
      <point x="1000" y="1520"/>
      <point x="1266" y="1457"/>
      <point x="1350" y="1414" type="qcurve"/>
      <point x="1384" y="1493" type="line"/>
      <point x="1464" y="1493" type="line"/>
      <point x="1464" y="1039" type="line"/>
      <point x="1368" y="1039" type="line"/>
      <point x="1330" y="1203" type="line" smooth="yes"/>
      <point x="1303" y="1309"/>
      <point x="1040" y="1412"/>
      <point x="840" y="1412" type="qcurve" smooth="yes"/>
      <point x="643" y="1412"/>
      <point x="414" y="1284"/>
      <point x="414" y="1175" type="qcurve" smooth="yes"/>
      <point x="414" y="1067"/>
      <point x="657" y="926"/>
      <point x="988" y="853" type="qcurve" smooth="yes"/>
      <point x="1266" y="791"/>
      <point x="1602" y="588"/>
      <point x="1602" y="409" type="qcurve" smooth="yes"/>
      <point x="1602" y="216"/>
      <point x="1272" y="-20"/>
      <point x="980" y="-20" type="qcurve" smooth="yes"/>
      <point x="761" y="-20"/>
      <point x="437" y="58"/>
      <point x="340" y="120" type="qcurve"/>
      <point x="261" y="-6" type="line"/>
    </contour>
  </outline>
</glyph>
<glyph name="T" format="2">
  <advance width="1991"/>
  <unicode hex="0054"/>
  <anchor x="995" y="0" name="bottom"/>
  <anchor x="995" y="750" name="center"/>
  <anchor x="995" y="1500" name="top"/>
  <outline>
    <contour>
      <point x="162" y="1040" type="line"/>
      <point x="162" y="1500" type="line"/>
      <point x="1829" y="1500" type="line"/>
      <point x="1829" y="1039" type="line"/>
      <point x="1737" y="1039" type="line"/>
      <point x="1702" y="1405" type="line"/>
      <point x="1078" y="1405" type="line"/>
      <point x="1059" y="1385" type="line"/>
      <point x="1058" y="754" type="line"/>
      <point x="1059" y="134" type="line"/>
      <point x="1336" y="98" type="line"/>
      <point x="1336" y="0" type="line"/>
      <point x="653" y="0" type="line"/>
      <point x="653" y="98" type="line"/>
      <point x="932" y="134" type="line"/>
      <point x="933" y="754" type="line"/>
      <point x="932" y="1385" type="line"/>
      <point x="923" y="1405" type="line"/>
      <point x="289" y="1405" type="line"/>
      <point x="254" y="1040" type="line"/>
    </contour>
  </outline>
</glyph>
<glyph name="U" format="2">
  <advance width="2276"/>
  <unicode hex="0055"/>
  <anchor x="1166" y="0" name="bottom"/>
  <anchor x="1444" y="0" name="ogonek"/>
  <anchor x="1176" y="1500" name="top"/>
  <anchor x="2236" y="1500" name="topright"/>
  <outline>
    <contour>
      <point x="118" y="1388" type="line"/>
      <point x="118" y="1500" type="line"/>
      <point x="774" y="1500" type="line"/>
      <point x="774" y="1388" type="line"/>
      <point x="507" y="1354" type="line"/>
      <point x="499" y="794" type="line"/>
      <point x="506" y="474" type="line" smooth="yes"/>
      <point x="508" y="267"/>
      <point x="871" y="85"/>
      <point x="1168" y="85" type="qcurve" smooth="yes"/>
      <point x="1448" y="85"/>
      <point x="1827" y="283"/>
      <point x="1828" y="494" type="qcurve" smooth="yes"/>
      <point x="1831" y="794" type="line"/>
      <point x="1828" y="1354" type="line"/>
      <point x="1550" y="1388" type="line"/>
      <point x="1550" y="1500" type="line"/>
      <point x="2208" y="1500" type="line"/>
      <point x="2208" y="1388" type="line"/>
      <point x="1940" y="1354" type="line"/>
      <point x="1939" y="794" type="line"/>
      <point x="1941" y="493" type="line" smooth="yes"/>
      <point x="1943" y="236"/>
      <point x="1503" y="-31"/>
      <point x="1156" y="-31" type="qcurve" smooth="yes"/>
      <point x="791" y="-31"/>
      <point x="376" y="242"/>
      <point x="378" y="481" type="qcurve" smooth="yes"/>
      <point x="378" y="794" type="line"/>
      <point x="376" y="1354" type="line"/>
    </contour>
  </outline>
</glyph>
<glyph name="V" format="2">
  <advance width="2154"/>
  <unicode hex="0056"/>
  <anchor x="1051" y="0" name="bottom"/>
  <anchor x="1072" y="1500" name="top"/>
  <outline>
    <contour>
      <point x="24" y="1388" type="line"/>
      <point x="24" y="1500" type="line"/>
      <point x="622" y="1500" type="line"/>
      <point x="622" y="1388" type="line"/>
      <point x="394" y="1347" type="line"/>
      <point x="685" y="826" type="line"/>
      <point x="1041" y="165" type="line"/>
      <point x="1084" y="94" type="line"/>
      <point x="1096" y="94" type="line"/>
      <point x="1141" y="165" type="line"/>
      <point x="1508" y="843" type="line"/>
      <point x="1795" y="1354" type="line"/>
      <point x="1548" y="1388" type="line"/>
      <point x="1548" y="1500" type="line"/>
      <point x="2150" y="1506" type="line"/>
      <point x="2150" y="1394" type="line"/>
      <point x="1911" y="1349" type="line"/>
      <point x="1583" y="796" type="line"/>
      <point x="1116" y="-8" type="line"/>
      <point x="1029" y="-8" type="line"/>
      <point x="604" y="730" type="line"/>
      <point x="252" y="1349" type="line"/>
    </contour>
  </outline>
</glyph>
<glyph name="W" format="2">
  <advance width="3092"/>
  <unicode hex="0057"/>
  <anchor x="1471" y="0" name="bottom"/>
  <anchor x="1471" y="1500" name="top"/>
  <outline>
    <contour>
      <point x="962" y="-8" type="line"/>
      <point x="645" y="582" type="line"/>
      <point x="251" y="1349" type="line"/>
      <point x="24" y="1388" type="line"/>
      <point x="24" y="1500" type="line"/>
      <point x="644" y="1500" type="line"/>
      <point x="644" y="1388" type="line"/>
      <point x="392" y="1347" type="line"/>
      <point x="759" y="626" type="line"/>
      <point x="986" y="221" type="line"/>
      <point x="1040" y="107" type="line"/>
      <point x="1052" y="107" type="line"/>
      <point x="1096" y="221" type="line"/>
      <point x="1295" y="693" type="line"/>
      <point x="1478" y="1096" type="line"/>
      <point x="1358" y="1357" type="line"/>
      <point x="1130" y="1396" type="line"/>
      <point x="1130" y="1500" type="line"/>
      <point x="1733" y="1500" type="line"/>
      <point x="1733" y="1396" type="line"/>
      <point x="1499" y="1355" type="line"/>
      <point x="1742" y="844" type="line"/>
      <point x="2006" y="221" type="line"/>
      <point x="2053" y="107" type="line"/>
      <point x="2066" y="107" type="line"/>
      <point x="2121" y="221" type="line"/>
      <point x="2438" y="803" type="line"/>
      <point x="2762" y="1354" type="line"/>
      <point x="2505" y="1388" type="line"/>
      <point x="2505" y="1500" type="line"/>
      <point x="3130" y="1500" type="line"/>
      <point x="3130" y="1388" type="line"/>
      <point x="2883" y="1349" type="line"/>
      <point x="2529" y="760" type="line"/>
      <point x="2063" y="-8" type="line"/>
      <point x="1966" y="-8" type="line"/>
      <point x="1584" y="867" type="line"/>
      <point x="1537" y="985" type="line"/>
      <point x="1528" y="985" type="line"/>
      <point x="1474" y="867" type="line"/>
      <point x="1054" y="-8" type="line"/>
    </contour>
  </outline>
</glyph>
<glyph name="X" format="2">
  <advance width="2001"/>
  <unicode hex="0058"/>
  <anchor x="941" y="0" name="bottom"/>
  <anchor x="953" y="1500" name="top"/>
  <outline>
    <contour>
      <point x="34" y="0" type="line"/>
      <point x="34" y="98" type="line"/>
      <point x="261" y="133" type="line"/>
      <point x="901" y="816" type="line"/>
      <point x="316" y="1357" type="line"/>
      <point x="99" y="1388" type="line"/>
      <point x="99" y="1500" type="line"/>
      <point x="695" y="1500" type="line"/>
      <point x="695" y="1388" type="line"/>
      <point x="460" y="1355" type="line"/>
      <point x="857" y="966" type="line"/>
      <point x="970" y="864" type="line"/>
      <point x="980" y="864" type="line"/>
      <point x="1080" y="967" type="line"/>
      <point x="1443" y="1362" type="line"/>
      <point x="1204" y="1388" type="line"/>
      <point x="1204" y="1500" type="line"/>
      <point x="1801" y="1500" type="line"/>
      <point x="1801" y="1388" type="line"/>
      <point x="1564" y="1357" type="line"/>
      <point x="1047" y="800" type="line"/>
      <point x="1760" y="133" type="line"/>
      <point x="1987" y="98" type="line"/>
      <point x="1987" y="0" type="line"/>
      <point x="1379" y="0" type="line"/>
      <point x="1379" y="98" type="line"/>
      <point x="1613" y="133" type="line"/>
      <point x="1084" y="657" type="line"/>
      <point x="978" y="753" type="line"/>
      <point x="968" y="753" type="line"/>
      <point x="870" y="656" type="line"/>
      <point x="382" y="128" type="line"/>
      <point x="620" y="98" type="line"/>
      <point x="620" y="0" type="line"/>
    </contour>
  </outline>
</glyph>
<glyph name="Y" format="2">
  <advance width="1863"/>
  <unicode hex="0059"/>
  <anchor x="933" y="0" name="bottom"/>
  <anchor x="930" y="1503" name="top"/>
  <anchor x="-46" y="1500" name="tonos"/>
  <outline>
    <contour>
      <point x="564" y="0" type="line"/>
      <point x="564" y="98" type="line"/>
      <point x="845" y="133" type="line"/>
      <point x="846" y="593" type="line"/>
      <point x="528" y="1004" type="line"/>
      <point x="233" y="1362" type="line"/>
      <point x="12" y="1388" type="line"/>
      <point x="12" y="1500" type="line"/>
      <point x="600" y="1500" type="line"/>
      <point x="600" y="1388" type="line"/>
      <point x="382" y="1353" type="line"/>
      <point x="627" y="1060" type="line"/>
      <point x="920" y="686" type="line"/>
      <point x="929" y="686" type="line"/>
      <point x="1235" y="1067" type="line"/>
      <point x="1474" y="1360" type="line"/>
      <point x="1225" y="1388" type="line"/>
      <point x="1225" y="1500" type="line"/>
      <point x="1825" y="1500" type="line"/>
      <point x="1825" y="1388" type="line"/>
      <point x="1598" y="1361" type="line"/>
      <point x="1311" y="1012" type="line"/>
      <point x="971" y="595" type="line"/>
      <point x="973" y="133" type="line"/>
      <point x="1251" y="98" type="line"/>
      <point x="1251" y="0" type="line"/>
    </contour>
  </outline>
</glyph>
<glyph name="Z" format="2">
  <advance width="1895"/>
  <unicode hex="005A"/>
  <anchor x="908" y="0" name="bottom"/>
  <anchor x="908" y="1500" name="top"/>
  <outline>
    <contour>
      <point x="178" y="0" type="line"/>
      <point x="154" y="69" type="line"/>
      <point x="1541" y="1397" type="line"/>
      <point x="1532" y="1405" type="line"/>
      <point x="350" y="1405" type="line"/>
      <point x="312" y="1046" type="line"/>
      <point x="210" y="1046" type="line"/>
      <point x="210" y="1500" type="line"/>
      <point x="1719" y="1500" type="line"/>
      <point x="1719" y="1432" type="line"/>
      <point x="323" y="93" type="line"/>
      <point x="331" y="87" type="line"/>
      <point x="1574" y="87" type="line"/>
      <point x="1664" y="390" type="line"/>
      <point x="1756" y="390" type="line"/>
      <point x="1716" y="0" type="line"/>
    </contour>
  </outline>
</glyph>
<glyph name="bracketleft" format="2">
  <advance width="1223"/>
  <unicode hex="005B"/>
  <outline>
    <contour>
      <point x="259" y="508" type="line"/>
      <point x="247" y="1364" type="line"/>
      <point x="228" y="1384" type="line"/>
      <point x="228" y="1500" type="line"/>
      <point x="1045" y="1500" type="line"/>
      <point x="1045" y="1383" type="line"/>
      <point x="382" y="1364" type="line"/>
      <point x="370" y="508" type="line"/>
      <point x="382" y="-344" type="line"/>
      <point x="1045" y="-363" type="line"/>
      <point x="1045" y="-480" type="line"/>
      <point x="228" y="-480" type="line"/>
      <point x="228" y="-364" type="line"/>
      <point x="247" y="-344" type="line"/>
    </contour>
  </outline>
</glyph>
<glyph name="backslash" format="2">
  <advance width="1440"/>
  <unicode hex="005C"/>
  <outline>
    <contour>
      <point x="81" y="1480" type="line"/>
      <point x="181" y="1555" type="line"/>
      <point x="1370" y="-86" type="line"/>
      <point x="1271" y="-161" type="line"/>
    </contour>
  </outline>
</glyph>
<glyph name="bracketright" format="2">
  <advance width="1223"/>
  <unicode hex="005D"/>
  <outline>
    <contour>
      <point x="178" y="-480" type="line"/>
      <point x="178" y="-363" type="line"/>
      <point x="841" y="-344" type="line"/>
      <point x="853" y="508" type="line"/>
      <point x="841" y="1364" type="line"/>
      <point x="178" y="1383" type="line"/>
      <point x="178" y="1500" type="line"/>
      <point x="995" y="1500" type="line"/>
      <point x="995" y="1384" type="line"/>
      <point x="976" y="1364" type="line"/>
      <point x="964" y="508" type="line"/>
      <point x="976" y="-344" type="line"/>
      <point x="995" y="-364" type="line"/>
      <point x="995" y="-480" type="line"/>
    </contour>
  </outline>
</glyph>
<glyph name="asciicircum" format="2">
  <advance width="2242"/>
  <unicode hex="005E"/>
  <outline>
    <contour>
      <point x="244" y="917" type="line"/>
      <point x="323" y="967"/>
      <point x="1053" y="1500"/>
      <point x="1089" y="1524" type="qcurve"/>
      <point x="1125" y="1502"/>
      <point x="1918" y="967"/>
      <point x="1997" y="917" type="qcurve"/>
      <point x="1920" y="838" type="line"/>
      <point x="1714" y="962"/>
      <point x="1115" y="1351"/>
      <point x="1090" y="1365" type="qcurve"/>
      <point x="1060" y="1343"/>
      <point x="521" y="968"/>
      <point x="323" y="840" type="qcurve"/>
    </contour>
  </outline>
</glyph>
<glyph name="underscore" format="2">
  <advance width="3108"/>
  <unicode hex="005F"/>
  <outline>
    <contour>
      <point x="94" y="-480" type="line"/>
      <point x="94" y="-369" type="line"/>
      <point x="1561" y="-364" type="line"/>
      <point x="3014" y="-369" type="line"/>
      <point x="3014" y="-480" type="line"/>
      <point x="1561" y="-493" type="line"/>
    </contour>
  </outline>
</glyph>
<glyph name="a" format="2">
  <advance width="1627"/>
  <unicode hex="0061"/>
  <anchor x="775" y="0" name="bottom"/>
  <anchor x="1352" y="0" name="ogonek"/>
  <anchor x="829" y="1051" name="top"/>
  <outline>
    <contour>
      <point x="314" y="241" type="qcurve" smooth="yes"/>
      <point x="314" y="398"/>
      <point x="712" y="620"/>
      <point x="1235" y="649" type="qcurve"/>
      <point x="1235" y="579" type="line"/>
      <point x="859" y="542"/>
      <point x="442" y="404"/>
      <point x="442" y="261" type="qcurve" smooth="yes"/>
      <point x="442" y="175"/>
      <point x="589" y="84"/>
      <point x="718" y="84" type="qcurve" smooth="yes"/>
      <point x="843" y="84"/>
      <point x="1129" y="181"/>
      <point x="1186" y="237" type="qcurve"/>
      <point x="1188" y="670" type="line" smooth="yes"/>
      <point x="1189" y="855"/>
      <point x="983" y="980"/>
      <point x="822" y="980" type="qcurve" smooth="yes"/>
      <point x="675" y="980"/>
      <point x="496" y="917"/>
      <point x="460" y="881" type="qcurve"/>
      <point x="474" y="858"/>
      <point x="491" y="817"/>
      <point x="494" y="796" type="qcurve" smooth="yes"/>
      <point x="499" y="757"/>
      <point x="467" y="702"/>
      <point x="437" y="702" type="qcurve" smooth="yes"/>
      <point x="403" y="702"/>
      <point x="364" y="771"/>
      <point x="364" y="831" type="qcurve" smooth="yes"/>
      <point x="364" y="931"/>
      <point x="621" y="1072"/>
      <point x="835" y="1072" type="qcurve" smooth="yes"/>
      <point x="1061" y="1072"/>
      <point x="1303" y="902"/>
      <point x="1303" y="722" type="qcurve" smooth="yes"/>
      <point x="1303" y="135" type="line"/>
      <point x="1517" y="100" type="line"/>
      <point x="1517" y="0" type="line"/>
      <point x="1255" y="0" type="line"/>
      <point x="1203" y="60" type="line"/>
      <point x="1186" y="161" type="line"/>
      <point x="1126" y="96"/>
      <point x="850" y="-13"/>
      <point x="689" y="-13" type="qcurve" smooth="yes"/>
      <point x="514" y="-13"/>
      <point x="314" y="125"/>
    </contour>
  </outline>
</glyph>
<glyph name="b" format="2">
  <advance width="1640"/>
  <unicode hex="0062"/>
  <anchor x="826" y="0" name="bottom"/>
  <anchor x="826" y="1513" name="top"/>
  <outline>
    <contour>
      <point x="269" y="0" type="line"/>
      <point x="277" y="477" type="line"/>
      <point x="269" y="1336" type="line"/>
      <point x="32" y="1366" type="line"/>
      <point x="32" y="1480" type="line"/>
      <point x="331" y="1514" type="line"/>
      <point x="362" y="1514" type="line"/>
      <point x="390" y="1482" type="line"/>
      <point x="388" y="907" type="line"/>
      <point x="459" y="977"/>
      <point x="710" y="1071"/>
      <point x="880" y="1071" type="qcurve" smooth="yes"/>
      <point x="1131" y="1071"/>
      <point x="1462" y="794"/>
      <point x="1462" y="557" type="qcurve" smooth="yes"/>
      <point x="1462" y="294"/>
      <point x="1117" y="-12"/>
      <point x="812" y="-13" type="qcurve" smooth="yes"/>
      <point x="677" y="-12"/>
      <point x="455" y="49"/>
      <point x="389" y="92" type="qcurve"/>
      <point x="329" y="0" type="line"/>
    </contour>
    <contour>
      <point x="382" y="530" type="line"/>
      <point x="388" y="216" type="line"/>
      <point x="449" y="157"/>
      <point x="691" y="72"/>
      <point x="853" y="72" type="qcurve" smooth="yes"/>
      <point x="1075" y="72"/>
      <point x="1331" y="316"/>
      <point x="1331" y="531" type="qcurve" smooth="yes"/>
      <point x="1331" y="737"/>
      <point x="1078" y="968"/>
      <point x="864" y="968" type="qcurve" smooth="yes"/>
      <point x="700" y="968"/>
      <point x="461" y="874"/>
      <point x="388" y="802" type="qcurve"/>
    </contour>
  </outline>
</glyph>
<glyph name="c" format="2">
  <advance width="1553"/>
  <unicode hex="0063"/>
  <anchor x="812" y="0" name="bottom"/>
  <anchor x="822" y="1051" name="top"/>
  <outline>
    <contour>
      <point x="178" y="515" type="qcurve" smooth="yes"/>
      <point x="178" y="752"/>
      <point x="555" y="1074"/>
      <point x="859" y="1074" type="qcurve" smooth="yes"/>
      <point x="983" y="1074"/>
      <point x="1162" y="1037"/>
      <point x="1207" y="1014" type="qcurve"/>
      <point x="1230" y="1066" type="line"/>
      <point x="1317" y="1066" type="line"/>
      <point x="1317" y="688" type="line"/>
      <point x="1231" y="688" type="line"/>
      <point x="1214" y="767" type="line" smooth="yes"/>
      <point x="1185" y="869"/>
      <point x="990" y="984"/>
      <point x="820" y="984" type="qcurve" smooth="yes"/>
      <point x="587" y="984"/>
      <point x="306" y="762"/>
      <point x="306" y="533" type="qcurve" smooth="yes"/>
      <point x="306" y="315"/>
      <point x="602" y="83"/>
      <point x="845" y="83" type="qcurve" smooth="yes"/>
      <point x="1017" y="83"/>
      <point x="1264" y="161"/>
      <point x="1346" y="217" type="qcurve"/>
      <point x="1385" y="168" type="line"/>
      <point x="1311" y="83"/>
      <point x="1053" y="-22"/>
      <point x="843" y="-22" type="qcurve" smooth="yes"/>
      <point x="564" y="-22"/>
      <point x="178" y="268"/>
    </contour>
  </outline>
</glyph>
<glyph name="d" format="2">
  <advance width="1723"/>
  <unicode hex="0064"/>
  <anchor x="807" y="0" name="bottom"/>
  <anchor x="1321" y="1209" name="center"/>
  <anchor x="807" y="1514" name="top"/>
  <anchor x="1406" y="981" name="topright"/>
  <outline>
    <contour>
      <point x="182" y="502" type="qcurve" smooth="yes"/>
      <point x="182" y="759"/>
      <point x="561" y="1071"/>
      <point x="868" y="1071" type="qcurve" smooth="yes"/>
      <point x="991" y="1071"/>
      <point x="1221" y="1011"/>
      <point x="1287" y="972" type="qcurve"/>
      <point x="1281" y="1336" type="line"/>
      <point x="1044" y="1366" type="line"/>
      <point x="1044" y="1480" type="line"/>
      <point x="1349" y="1514" type="line"/>
      <point x="1378" y="1514" type="line"/>
      <point x="1402" y="1482" type="line"/>
      <point x="1401" y="565" type="line"/>
      <point x="1407" y="136" type="line"/>
      <point x="1629" y="100" type="line"/>
      <point x="1629" y="0" type="line"/>
      <point x="1357" y="0" type="line"/>
      <point x="1306" y="60" type="line"/>
      <point x="1289" y="161" type="line"/>
      <point x="1219" y="93"/>
      <point x="977" y="-9"/>
      <point x="807" y="-9" type="qcurve" smooth="yes"/>
      <point x="529" y="-9"/>
      <point x="182" y="267"/>
    </contour>
    <contour>
      <point x="312" y="525" type="qcurve" smooth="yes"/>
      <point x="312" y="320"/>
      <point x="586" y="93"/>
      <point x="821" y="93" type="qcurve" smooth="yes"/>
      <point x="991" y="93"/>
      <point x="1221" y="191"/>
      <point x="1287" y="259" type="qcurve"/>
      <point x="1293" y="548" type="line"/>
      <point x="1293" y="849" type="line"/>
      <point x="1227" y="909"/>
      <point x="1008" y="982"/>
      <point x="855" y="982" type="qcurve" smooth="yes"/>
      <point x="610" y="982"/>
      <point x="312" y="725"/>
    </contour>
  </outline>
</glyph>
<glyph name="e" format="2">
  <advance width="1545"/>
  <unicode hex="0065"/>
  <anchor x="779" y="0" name="bottom"/>
  <anchor x="1021" y="0" name="ogonek"/>
  <anchor x="790" y="1051" name="top"/>
  <outline>
    <contour>
      <point x="177" y="527" type="qcurve" smooth="yes"/>
      <point x="177" y="768"/>
      <point x="519" y="1074"/>
      <point x="798" y="1074" type="qcurve" smooth="yes"/>
      <point x="1047" y="1074"/>
      <point x="1330" y="836"/>
      <point x="1358" y="614" type="qcurve"/>
      <point x="1358" y="562" type="line"/>
      <point x="199" y="562" type="line"/>
      <point x="201" y="640" type="line"/>
      <point x="1240" y="640" type="line"/>
      <point x="1212" y="810"/>
      <point x="971" y="982"/>
      <point x="784" y="982" type="qcurve" smooth="yes"/>
      <point x="555" y="982"/>
      <point x="303" y="749"/>
      <point x="305" y="547" type="qcurve" smooth="yes"/>
      <point x="307" y="301"/>
      <point x="619" y="83"/>
      <point x="840" y="83" type="qcurve" smooth="yes"/>
      <point x="965" y="83"/>
      <point x="1178" y="155"/>
      <point x="1281" y="243" type="qcurve"/>
      <point x="1322" y="194" type="line"/>
      <point x="1228" y="84"/>
      <point x="979" y="-22"/>
      <point x="830" y="-22" type="qcurve" smooth="yes"/>
      <point x="530" y="-22"/>
      <point x="177" y="258"/>
    </contour>
  </outline>
</glyph>
<glyph name="f" format="2">
  <advance width="1065"/>
  <unicode hex="0066"/>
  <anchor x="504" y="0" name="bottom"/>
  <anchor x="667" y="1517" name="top"/>
  <outline>
    <contour>
      <point x="202" y="0" type="line"/>
      <point x="202" y="100" type="line"/>
      <point x="440" y="135" type="line"/>
      <point x="441" y="530" type="line"/>
      <point x="439" y="942" type="line"/>
      <point x="177" y="944" type="line"/>
      <point x="177" y="1022" type="line"/>
      <point x="441" y="1035" type="line"/>
      <point x="443" y="1158" type="line" smooth="yes"/>
      <point x="445" y="1319"/>
      <point x="613" y="1519"/>
      <point x="739" y="1519" type="qcurve" smooth="yes"/>
      <point x="793" y="1519"/>
      <point x="895" y="1502"/>
      <point x="917" y="1491" type="qcurve" smooth="yes"/>
      <point x="942" y="1481" type="line"/>
      <point x="922" y="1410" type="line"/>
      <point x="892" y="1418" type="line" smooth="yes"/>
      <point x="869" y="1423"/>
      <point x="820" y="1427"/>
      <point x="788" y="1427" type="qcurve" smooth="yes"/>
      <point x="674" y="1427"/>
      <point x="550" y="1278"/>
      <point x="551" y="1156" type="qcurve" smooth="yes"/>
      <point x="556" y="1036" type="line"/>
      <point x="910" y="1036" type="line"/>
      <point x="910" y="947" type="line"/>
      <point x="556" y="947" type="line"/>
      <point x="557" y="530" type="line"/>
      <point x="562" y="135" type="line"/>
      <point x="822" y="100" type="line"/>
      <point x="822" y="0" type="line"/>
    </contour>
  </outline>
</glyph>
<glyph name="g" format="2">
  <advance width="1714"/>
  <unicode hex="0067"/>
  <anchor x="800" y="-416" name="bottom"/>
  <anchor x="760" y="1051" name="top"/>
  <outline>
    <contour>
      <point x="175" y="-249" type="qcurve" smooth="yes"/>
      <point x="175" y="-157"/>
      <point x="249" y="-134"/>
      <point x="176" y="-164" type="qcurve"/>
      <point x="187" y="-263" type="line"/>
      <point x="369" y="-137"/>
      <point x="295" y="-151"/>
      <point x="295" y="-226" type="qcurve" smooth="yes"/>
      <point x="295" y="-320"/>
      <point x="561" y="-433"/>
      <point x="893" y="-433" type="qcurve" smooth="yes"/>
      <point x="1156" y="-433"/>
      <point x="1454" y="-327"/>
      <point x="1454" y="-223" type="qcurve" smooth="yes"/>
      <point x="1454" y="-133"/>
      <point x="1208" y="-72"/>
      <point x="864" y="-58" type="qcurve" smooth="yes"/>
      <point x="534" y="-45"/>
      <point x="230" y="42"/>
      <point x="230" y="159" type="qcurve" smooth="yes"/>
      <point x="230" y="249"/>
      <point x="390" y="358"/>
      <point x="477" y="391" type="qcurve"/>
      <point x="533" y="339" type="line"/>
      <point x="446" y="309"/>
      <point x="324" y="237"/>
      <point x="324" y="182" type="qcurve" smooth="yes"/>
      <point x="324" y="125"/>
      <point x="553" y="70"/>
      <point x="850" y="60" type="qcurve" smooth="yes"/>
      <point x="1253" y="46"/>
      <point x="1566" y="-56"/>
      <point x="1566" y="-183" type="qcurve" smooth="yes"/>
      <point x="1566" y="-330"/>
      <point x="1194" y="-518"/>
      <point x="786" y="-518" type="qcurve" smooth="yes"/>
      <point x="409" y="-518"/>
      <point x="175" y="-370"/>
    </contour>
    <contour>
      <point x="298" y="682" type="qcurve" smooth="yes"/>
      <point x="297" y="857"/>
      <point x="580" y="1073"/>
      <point x="809" y="1073" type="qcurve" smooth="yes"/>
      <point x="1039" y="1073"/>
      <point x="1324" y="873"/>
      <point x="1324" y="685" type="qcurve" smooth="yes"/>
      <point x="1324" y="505"/>
      <point x="1046" y="268"/>
      <point x="816" y="268" type="qcurve" smooth="yes"/>
      <point x="585" y="268"/>
      <point x="298" y="486"/>
    </contour>
    <contour>
      <point x="422" y="690" type="qcurve" smooth="yes"/>
      <point x="422" y="523"/>
      <point x="635" y="350"/>
      <point x="823" y="350" type="qcurve" smooth="yes"/>
      <point x="996" y="350"/>
      <point x="1198" y="516"/>
      <point x="1198" y="679" type="qcurve" smooth="yes"/>
      <point x="1198" y="822"/>
      <point x="987" y="981"/>
      <point x="801" y="981" type="qcurve" smooth="yes"/>
      <point x="627" y="981"/>
      <point x="422" y="830"/>
    </contour>
    <contour>
      <point x="1069" y="990" type="line"/>
      <point x="973" y="1051" type="line"/>
      <point x="1556" y="1051" type="line"/>
      <point x="1556" y="941" type="line"/>
    </contour>
  </outline>
</glyph>
<glyph name="h" format="2">
  <advance width="1705"/>
  <unicode hex="0068"/>
  <anchor x="859" y="0" name="bottom"/>
  <anchor x="450" y="1209" name="center"/>
  <anchor x="416" y="1514" name="top"/>
  <outline>
    <contour>
      <point x="120" y="0" type="line"/>
      <point x="120" y="100" type="line"/>
      <point x="332" y="135" type="line"/>
      <point x="333" y="530" type="line"/>
      <point x="332" y="1336" type="line"/>
      <point x="96" y="1366" type="line"/>
      <point x="96" y="1480" type="line"/>
      <point x="393" y="1514" type="line"/>
      <point x="425" y="1514" type="line"/>
      <point x="453" y="1482" type="line"/>
      <point x="452" y="903" type="line"/>
      <point x="537" y="976"/>
      <point x="801" y="1071"/>
      <point x="944" y="1071" type="qcurve" smooth="yes"/>
      <point x="1159" y="1071"/>
      <point x="1378" y="922"/>
      <point x="1378" y="792" type="qcurve" smooth="yes"/>
      <point x="1378" y="713"/>
      <point x="1374" y="530"/>
      <point x="1374" y="530" type="qcurve"/>
      <point x="1377" y="135" type="line"/>
      <point x="1595" y="100" type="line"/>
      <point x="1595" y="0" type="line"/>
      <point x="1028" y="0" type="line"/>
      <point x="1028" y="100" type="line"/>
      <point x="1257" y="135" type="line"/>
      <point x="1259" y="530" type="line"/>
      <point x="1259" y="776" type="line" smooth="yes"/>
      <point x="1259" y="863"/>
      <point x="1079" y="952"/>
      <point x="934" y="952" type="qcurve" smooth="yes"/>
      <point x="784" y="952"/>
      <point x="525" y="864"/>
      <point x="452" y="799" type="qcurve"/>
      <point x="451" y="551" type="line"/>
      <point x="453" y="135" type="line"/>
      <point x="661" y="100" type="line"/>
      <point x="661" y="0" type="line"/>
    </contour>
  </outline>
</glyph>
<glyph name="l" format="2">
  <advance width="811"/>
  <unicode hex="006C"/>
  <anchor x="407" y="0" name="bottom"/>
  <anchor x="407" y="731" name="center"/>
  <anchor x="407" y="1514" name="top"/>
  <anchor x="481" y="981" name="topright"/>
  <anchor x="811" y="669" name="centerright"/>
  <outline>
    <contour>
      <point x="120" y="0" type="line"/>
      <point x="120" y="100" type="line"/>
      <point x="352" y="135" type="line"/>
      <point x="353" y="527" type="line"/>
      <point x="352" y="1336" type="line"/>
      <point x="96" y="1366" type="line"/>
      <point x="96" y="1480" type="line"/>
      <point x="413" y="1514" type="line"/>
      <point x="445" y="1514" type="line"/>
      <point x="473" y="1482" type="line"/>
      <point x="471" y="527" type="line"/>
      <point x="473" y="135" type="line"/>
      <point x="701" y="100" type="line"/>
      <point x="701" y="0" type="line"/>
    </contour>
  </outline>
</glyph>
<glyph name="m" format="2">
  <advance width="2625"/>
  <unicode hex="006D"/>
  <anchor x="1320" y="0" name="bottom"/>
  <anchor x="1320" y="1051" name="top"/>
  <outline>
    <contour>
      <point x="120" y="0" type="line"/>
      <point x="120" y="100" type="line"/>
      <point x="338" y="135" type="line"/>
      <point x="339" y="527" type="line"/>
      <point x="338" y="872" type="line"/>
      <point x="120" y="902" type="line"/>
      <point x="120" y="1016" type="line"/>
      <point x="401" y="1050" type="line"/>
      <point x="436" y="1023" type="line"/>
      <point x="461" y="904" type="line"/>
      <point x="544" y="981"/>
      <point x="807" y="1071"/>
      <point x="945" y="1071" type="qcurve" smooth="yes"/>
      <point x="1115" y="1071"/>
      <point x="1282" y="976"/>
      <point x="1331" y="890" type="qcurve"/>
      <point x="1452" y="970"/>
      <point x="1722" y="1071"/>
      <point x="1870" y="1071" type="qcurve" smooth="yes"/>
      <point x="2082" y="1071"/>
      <point x="2297" y="922"/>
      <point x="2297" y="792" type="qcurve" smooth="yes"/>
      <point x="2297" y="708"/>
      <point x="2293" y="562"/>
      <point x="2294" y="527" type="qcurve" smooth="yes"/>
      <point x="2297" y="135" type="line"/>
      <point x="2515" y="100" type="line"/>
      <point x="2515" y="0" type="line"/>
      <point x="1949" y="0" type="line"/>
      <point x="1949" y="100" type="line"/>
      <point x="2177" y="135" type="line"/>
      <point x="2178" y="527" type="line"/>
      <point x="2178" y="776" type="line" smooth="yes"/>
      <point x="2178" y="854"/>
      <point x="2009" y="951"/>
      <point x="1863" y="951" type="qcurve" smooth="yes"/>
      <point x="1712" y="951"/>
      <point x="1456" y="875"/>
      <point x="1377" y="805" type="qcurve"/>
      <point x="1374" y="728"/>
      <point x="1374" y="550"/>
      <point x="1374" y="527" type="qcurve" smooth="yes"/>
      <point x="1377" y="135" type="line"/>
      <point x="1595" y="100" type="line"/>
      <point x="1595" y="0" type="line"/>
      <point x="1029" y="0" type="line"/>
      <point x="1029" y="100" type="line"/>
      <point x="1257" y="135" type="line"/>
      <point x="1258" y="527" type="line"/>
      <point x="1258" y="776" type="line" smooth="yes"/>
      <point x="1258" y="854"/>
      <point x="1074" y="951"/>
      <point x="935" y="951" type="qcurve" smooth="yes"/>
      <point x="791" y="951"/>
      <point x="538" y="869"/>
      <point x="460" y="799" type="qcurve"/>
      <point x="460" y="527" type="line"/>
      <point x="461" y="135" type="line"/>
      <point x="666" y="100" type="line"/>
      <point x="666" y="0" type="line"/>
    </contour>
  </outline>
</glyph>
<glyph name="n" format="2">
  <advance width="1713"/>
  <unicode hex="006E"/>
  <anchor x="862" y="0" name="bottom"/>
  <anchor x="859" y="1051" name="top"/>
  <outline>
    <contour>
      <point x="120" y="0" type="line"/>
      <point x="120" y="100" type="line"/>
      <point x="338" y="135" type="line"/>
      <point x="339" y="530" type="line"/>
      <point x="338" y="872" type="line"/>
      <point x="120" y="902" type="line"/>
      <point x="120" y="1016" type="line"/>
      <point x="399" y="1050" type="line"/>
      <point x="434" y="1023" type="line"/>
      <point x="459" y="904" type="line"/>
      <point x="542" y="976"/>
      <point x="807" y="1071"/>
      <point x="950" y="1071" type="qcurve" smooth="yes"/>
      <point x="1166" y="1071"/>
      <point x="1385" y="922"/>
      <point x="1385" y="792" type="qcurve" smooth="yes"/>
      <point x="1385" y="713"/>
      <point x="1380" y="557"/>
      <point x="1380" y="530" type="qcurve" smooth="yes"/>
      <point x="1384" y="135" type="line"/>
      <point x="1603" y="100" type="line"/>
      <point x="1603" y="0" type="line"/>
      <point x="1035" y="0" type="line"/>
      <point x="1035" y="100" type="line"/>
      <point x="1263" y="135" type="line"/>
      <point x="1265" y="530" type="line"/>
      <point x="1265" y="776" type="line" smooth="yes"/>
      <point x="1265" y="859"/>
      <point x="1087" y="951"/>
      <point x="940" y="951" type="qcurve" smooth="yes"/>
      <point x="793" y="951"/>
      <point x="532" y="867"/>
      <point x="458" y="799" type="qcurve"/>
      <point x="457" y="530" type="line"/>
      <point x="459" y="135" type="line"/>
      <point x="667" y="100" type="line"/>
      <point x="667" y="0" type="line"/>
    </contour>
  </outline>
</glyph>
<glyph name="o" format="2">
  <advance width="1627"/>
  <unicode hex="006F"/>
  <anchor x="815" y="0" name="bottom"/>
  <anchor x="815" y="525" name="center"/>
  <anchor x="1024" y="0" name="ogonek"/>
  <anchor x="815" y="1051" name="top"/>
  <anchor x="1028" y="1051" name="topright"/>
  <anchor x="815" y="1051" name="GRKtop"/>
  <outline>
    <contour>
      <point x="178" y="529" type="qcurve" smooth="yes"/>
      <point x="178" y="763"/>
      <point x="519" y="1073"/>
      <point x="812" y="1073" type="qcurve" smooth="yes"/>
      <point x="1099" y="1073"/>
      <point x="1449" y="774"/>
      <point x="1449" y="531" type="qcurve" smooth="yes"/>
      <point x="1449" y="304"/>
      <point x="1107" y="-22"/>
      <point x="818" y="-22" type="qcurve" smooth="yes"/>
      <point x="528" y="-22"/>
      <point x="178" y="288"/>
    </contour>
    <contour>
      <point x="313" y="545" type="qcurve" smooth="yes"/>
      <point x="314" y="345"/>
      <point x="589" y="67"/>
      <point x="818" y="67" type="qcurve" smooth="yes"/>
      <point x="1058" y="67"/>
      <point x="1324" y="324"/>
      <point x="1324" y="531" type="qcurve" smooth="yes"/>
      <point x="1324" y="726"/>
      <point x="1046" y="979"/>
      <point x="820" y="979" type="qcurve" smooth="yes"/>
      <point x="574" y="979"/>
      <point x="312" y="750"/>
    </contour>
  </outline>
</glyph>
<glyph name="p" format="2">
  <advance width="1698"/>
  <unicode hex="0070"/>
  <anchor x="915" y="0" name="bottom"/>
  <anchor x="915" y="1051" name="top"/>
  <outline>
    <contour>
      <point x="105" y="-480" type="line"/>
      <point x="105" y="-380" type="line"/>
      <point x="318" y="-345" type="line"/>
      <point x="320" y="460" type="line"/>
      <point x="318" y="873" type="line"/>
      <point x="100" y="903" type="line"/>
      <point x="100" y="1017" type="line"/>
      <point x="389" y="1051" type="line"/>
      <point x="424" y="1024" type="line"/>
      <point x="441" y="913" type="line"/>
      <point x="512" y="982"/>
      <point x="752" y="1071"/>
      <point x="917" y="1071" type="qcurve" smooth="yes"/>
      <point x="1177" y="1071"/>
      <point x="1516" y="790"/>
      <point x="1516" y="554" type="qcurve" smooth="yes"/>
      <point x="1516" y="299"/>
      <point x="1166" y="-12"/>
      <point x="872" y="-12" type="qcurve" smooth="yes"/>
      <point x="727" y="-12"/>
      <point x="501" y="48"/>
      <point x="437" y="89" type="qcurve"/>
      <point x="439" y="-345" type="line"/>
      <point x="661" y="-380" type="line"/>
      <point x="661" y="-480" type="line"/>
    </contour>
    <contour>
      <point x="437" y="210" type="line"/>
      <point x="497" y="154"/>
      <point x="739" y="72"/>
      <point x="902" y="72" type="qcurve" smooth="yes"/>
      <point x="1128" y="72"/>
      <point x="1387" y="321"/>
      <point x="1387" y="529" type="qcurve" smooth="yes"/>
      <point x="1387" y="731"/>
      <point x="1131" y="967"/>
      <point x="908" y="967" type="qcurve" smooth="yes"/>
      <point x="750" y="967"/>
      <point x="510" y="881"/>
      <point x="440" y="815" type="qcurve"/>
      <point x="435" y="460" type="line"/>
    </contour>
  </outline>
</glyph>
<glyph name="r" format="2">
  <advance width="1244"/>
  <unicode hex="0072"/>
  <anchor x="512" y="0" name="bottom"/>
  <anchor x="700" y="1051" name="top"/>
  <outline>
    <contour>
      <point x="120" y="0" type="line"/>
      <point x="120" y="100" type="line"/>
      <point x="338" y="135" type="line"/>
      <point x="339" y="548" type="line"/>
      <point x="338" y="872" type="line"/>
      <point x="120" y="902" type="line"/>
      <point x="120" y="1016" type="line"/>
      <point x="399" y="1050" type="line"/>
      <point x="434" y="1023" type="line"/>
      <point x="459" y="910" type="line"/>
      <point x="614" y="998"/>
      <point x="856" y="1050"/>
      <point x="947" y="1050" type="qcurve" smooth="yes"/>
      <point x="1100" y="1050" type="line"/>
      <point x="1100" y="753" type="line"/>
      <point x="1001" y="753" type="line"/>
      <point x="966" y="937" type="line"/>
      <point x="765" y="938"/>
      <point x="565" y="864"/>
      <point x="457" y="801" type="qcurve"/>
      <point x="457" y="548" type="line"/>
      <point x="459" y="135" type="line"/>
      <point x="687" y="100" type="line"/>
      <point x="687" y="0" type="line"/>
    </contour>
  </outline>
</glyph>
<glyph name="s" format="2">
  <advance width="1338"/>
  <unicode hex="0073"/>
  <anchor x="684" y="0" name="bottom"/>
  <anchor x="633" y="1051" name="top"/>
  <outline>
    <contour>
      <point x="169" y="-9" type="line"/>
      <point x="169" y="356" type="line"/>
      <point x="267" y="356" type="line"/>
      <point x="285" y="280" type="line" smooth="yes"/>
      <point x="311" y="178"/>
      <point x="528" y="68"/>
      <point x="704" y="68" type="qcurve" smooth="yes"/>
      <point x="861" y="68"/>
      <point x="1064" y="172"/>
      <point x="1064" y="276" type="qcurve" smooth="yes"/>
      <point x="1064" y="366"/>
      <point x="874" y="471"/>
      <point x="609" y="523" type="qcurve" smooth="yes"/>
      <point x="362" y="572"/>
      <point x="203" y="693"/>
      <point x="203" y="806" type="qcurve" smooth="yes"/>
      <point x="203" y="924"/>
      <point x="427" y="1073"/>
      <point x="631" y="1073" type="qcurve" smooth="yes"/>
      <point x="734" y="1073"/>
      <point x="921" y="1040"/>
      <point x="990" y="1010" type="qcurve"/>
      <point x="1006" y="1059" type="line"/>
      <point x="1089" y="1059" type="line"/>
      <point x="1089" y="737" type="line"/>
      <point x="992" y="737" type="line"/>
      <point x="971" y="848" type="line" smooth="yes"/>
      <point x="960" y="899"/>
      <point x="768" y="983"/>
      <point x="644" y="983" type="qcurve" smooth="yes"/>
      <point x="466" y="983"/>
      <point x="319" y="900"/>
      <point x="319" y="823" type="qcurve" smooth="yes"/>
      <point x="319" y="753"/>
      <point x="447" y="675"/>
      <point x="724" y="613" type="qcurve" smooth="yes"/>
      <point x="972" y="558"/>
      <point x="1176" y="428"/>
      <point x="1176" y="294" type="qcurve" smooth="yes"/>
      <point x="1176" y="151"/>
      <point x="898" y="-21"/>
      <point x="695" y="-21" type="qcurve" smooth="yes"/>
      <point x="538" y="-21"/>
      <point x="361" y="23"/>
      <point x="291" y="73" type="qcurve"/>
      <point x="252" y="-9" type="line"/>
    </contour>
  </outline>
</glyph>
<glyph name="t" format="2">
  <advance width="1070"/>
  <unicode hex="0074"/>
  <anchor x="500" y="0" name="bottom"/>
  <anchor x="452" y="622" name="center"/>
  <anchor x="487" y="1179" name="top"/>
  <anchor x="692" y="1000" name="topright"/>
  <outline>
    <contour>
      <point x="140" y="948" type="line"/>
      <point x="140" y="1009" type="line"/>
      <point x="236" y="1032"/>
      <point x="455" y="1166"/>
      <point x="483" y="1238" type="qcurve"/>
      <point x="519" y="1238" type="line"/>
      <point x="542" y="1211" type="line"/>
      <point x="536" y="1031" type="line"/>
      <point x="893" y="1031" type="line"/>
      <point x="893" y="948" type="line"/>
      <point x="535" y="948" type="line"/>
      <point x="528" y="542" type="line"/>
      <point x="531" y="201" type="line" smooth="yes"/>
      <point x="532" y="136"/>
      <point x="629" y="94"/>
      <point x="770" y="94" type="qcurve" smooth="yes"/>
      <point x="893" y="94" type="line"/>
      <point x="893" y="29" type="line"/>
      <point x="604" y="-8" type="line"/>
      <point x="527" y="-8"/>
      <point x="409" y="103"/>
      <point x="409" y="193" type="qcurve" smooth="yes"/>
      <point x="409" y="542" type="line"/>
      <point x="409" y="939" type="line"/>
    </contour>
  </outline>
</glyph>
<glyph name="u" format="2">
  <advance width="1696"/>
  <unicode hex="0075"/>
  <anchor x="776" y="0" name="bottom"/>
  <anchor x="1498" y="20" name="ogonek"/>
  <anchor x="789" y="1051" name="top"/>
  <anchor x="1345" y="1051" name="topright"/>
  <outline>
    <contour>
      <point x="100" y="903" type="line"/>
      <point x="100" y="1017" type="line"/>
      <point x="379" y="1051" type="line"/>
      <point x="414" y="1051" type="line"/>
      <point x="439" y="1015" type="line"/>
      <point x="437" y="503" type="line"/>
      <point x="437" y="276" type="line" smooth="yes"/>
      <point x="437" y="205"/>
      <point x="607" y="89"/>
      <point x="764" y="89" type="qcurve" smooth="yes"/>
      <point x="893" y="89"/>
      <point x="1160" y="167"/>
      <point x="1248" y="243" type="qcurve"/>
      <point x="1248" y="503" type="line"/>
      <point x="1247" y="873" type="line"/>
      <point x="1039" y="903" type="line"/>
      <point x="1039" y="1017" type="line"/>
      <point x="1308" y="1051" type="line"/>
      <point x="1343" y="1051" type="line"/>
      <point x="1368" y="1015" type="line"/>
      <point x="1366" y="503" type="line"/>
      <point x="1368" y="165" type="line"/>
      <point x="1586" y="135" type="line"/>
      <point x="1586" y="34" type="line"/>
      <point x="1307" y="0" type="line"/>
      <point x="1272" y="27" type="line"/>
      <point x="1248" y="147" type="line"/>
      <point x="1156" y="72"/>
      <point x="858" y="-21"/>
      <point x="697" y="-21" type="qcurve" smooth="yes"/>
      <point x="508" y="-21"/>
      <point x="318" y="128"/>
      <point x="318" y="258" type="qcurve" smooth="yes"/>
      <point x="318" y="330"/>
      <point x="321" y="478"/>
      <point x="321" y="503" type="qcurve" smooth="yes"/>
      <point x="318" y="873" type="line"/>
    </contour>
  </outline>
</glyph>
<glyph name="v" format="2">
  <advance width="1520"/>
  <unicode hex="0076"/>
  <anchor x="754" y="0" name="bottom"/>
  <anchor x="754" y="1051" name="top"/>
  <outline>
    <contour>
      <point x="34" y="941" type="line"/>
      <point x="34" y="1051" type="line"/>
      <point x="549" y="1051" type="line"/>
      <point x="549" y="941" type="line"/>
      <point x="353" y="903" type="line"/>
      <point x="542" y="555" type="line"/>
      <point x="696" y="275" type="line"/>
      <point x="760" y="158" type="line"/>
      <point x="770" y="158" type="line"/>
      <point x="833" y="275" type="line"/>
      <point x="990" y="570" type="line"/>
      <point x="1175" y="911" type="line"/>
      <point x="975" y="941" type="line"/>
      <point x="975" y="1051" type="line"/>
      <point x="1506" y="1051" type="line"/>
      <point x="1506" y="941" type="line"/>
      <point x="1280" y="906" type="line"/>
      <point x="1074" y="526" type="line"/>
      <point x="791" y="-8" type="line"/>
      <point x="724" y="-8" type="line"/>
      <point x="447" y="508" type="line"/>
      <point x="230" y="906" type="line"/>
    </contour>
  </outline>
</glyph>
<glyph name="w" format="2">
  <advance width="2308"/>
  <unicode hex="0077"/>
  <anchor x="1066" y="0" name="bottom"/>
  <anchor x="1101" y="1051" name="top"/>
  <outline>
    <contour>
      <point x="655" y="-8" type="line"/>
      <point x="426" y="480" type="line"/>
      <point x="230" y="906" type="line"/>
      <point x="34" y="941" type="line"/>
      <point x="34" y="1051" type="line"/>
      <point x="549" y="1051" type="line"/>
      <point x="549" y="941" type="line"/>
      <point x="353" y="903" type="line"/>
      <point x="530" y="531" type="line"/>
      <point x="650" y="253" type="line"/>
      <point x="702" y="139" type="line"/>
      <point x="716" y="139" type="line"/>
      <point x="779" y="253" type="line"/>
      <point x="927" y="550" type="line"/>
      <point x="1068" y="802" type="line"/>
      <point x="1009" y="907" type="line"/>
      <point x="818" y="941" type="line"/>
      <point x="818" y="1051" type="line"/>
      <point x="1329" y="1051" type="line"/>
      <point x="1329" y="941" type="line"/>
      <point x="1133" y="903" type="line"/>
      <point x="1360" y="520" type="line"/>
      <point x="1500" y="254" type="line"/>
      <point x="1568" y="139" type="line"/>
      <point x="1579" y="139" type="line"/>
      <point x="1640" y="254" type="line"/>
      <point x="1781" y="547" type="line"/>
      <point x="1972" y="911" type="line"/>
      <point x="1769" y="941" type="line"/>
      <point x="1769" y="1051" type="line"/>
      <point x="2294" y="1051" type="line"/>
      <point x="2294" y="941" type="line"/>
      <point x="2068" y="906" type="line"/>
      <point x="1854" y="469" type="line"/>
      <point x="1610" y="-8" type="line"/>
      <point x="1525" y="-8" type="line"/>
      <point x="1199" y="591" type="line"/>
      <point x="1133" y="707" type="line"/>
      <point x="1123" y="707" type="line"/>
      <point x="1061" y="591" type="line"/>
      <point x="740" y="-8" type="line"/>
    </contour>
  </outline>
</glyph>
<glyph name="x" format="2">
  <advance width="1634"/>
  <unicode hex="0078"/>
  <anchor x="770" y="0" name="bottom"/>
  <anchor x="770" y="1051" name="top"/>
  <outline>
    <contour>
      <point x="68" y="0" type="line"/>
      <point x="68" y="100" type="line"/>
      <point x="311" y="135" type="line"/>
      <point x="698" y="522" type="line"/>
      <point x="268" y="906" type="line"/>
      <point x="64" y="941" type="line"/>
      <point x="64" y="1051" type="line"/>
      <point x="621" y="1051" type="line"/>
      <point x="621" y="941" type="line"/>
      <point x="440" y="908" type="line"/>
      <point x="678" y="685" type="line"/>
      <point x="783" y="586" type="line"/>
      <point x="793" y="586" type="line"/>
      <point x="895" y="685" type="line"/>
      <point x="1128" y="913" type="line"/>
      <point x="933" y="941" type="line"/>
      <point x="933" y="1051" type="line"/>
      <point x="1457" y="1051" type="line"/>
      <point x="1457" y="941" type="line"/>
      <point x="1224" y="906" type="line"/>
      <point x="853" y="527" type="line"/>
      <point x="1294" y="135" type="line"/>
      <point x="1507" y="100" type="line"/>
      <point x="1507" y="0" type="line"/>
      <point x="940" y="0" type="line"/>
      <point x="940" y="100" type="line"/>
      <point x="1121" y="132" type="line"/>
      <point x="871" y="366" type="line"/>
      <point x="768" y="465" type="line"/>
      <point x="758" y="465" type="line"/>
      <point x="658" y="366" type="line"/>
      <point x="414" y="127" type="line"/>
      <point x="599" y="100" type="line"/>
      <point x="599" y="0" type="line"/>
    </contour>
  </outline>
</glyph>
<glyph name="y" format="2">
  <advance width="1551"/>
  <unicode hex="0079"/>
  <anchor x="1093" y="0" name="bottom"/>
  <anchor x="763" y="1051" name="top"/>
  <outline>
    <contour>
      <point x="54" y="941" type="line"/>
      <point x="54" y="1051" type="line"/>
      <point x="569" y="1051" type="line"/>
      <point x="569" y="941" type="line"/>
      <point x="366" y="903" type="line"/>
      <point x="576" y="550" type="line"/>
      <point x="710" y="330" type="line"/>
      <point x="781" y="211" type="line"/>
      <point x="791" y="211" type="line"/>
      <point x="861" y="330" type="line"/>
      <point x="995" y="570" type="line"/>
      <point x="1200" y="911" type="line"/>
      <point x="880" y="941" type="line"/>
      <point x="880" y="1051" type="line"/>
      <point x="1537" y="1051" type="line"/>
      <point x="1537" y="941" type="line"/>
      <point x="1316" y="906" type="line"/>
      <point x="1077" y="519" type="line"/>
      <point x="579" y="-287" type="line" smooth="yes"/>
      <point x="512" y="-394"/>
      <point x="381" y="-492"/>
      <point x="252" y="-492" type="qcurve"/>
      <point x="121" y="-464" type="line"/>
      <point x="121" y="-390" type="line"/>
      <point x="201" y="-390" type="line" smooth="yes"/>
      <point x="291" y="-390"/>
      <point x="445" y="-323"/>
      <point x="522" y="-195" type="qcurve" smooth="yes"/>
      <point x="709" y="139" type="line"/>
      <point x="706" y="139" type="line"/>
      <point x="478" y="510" type="line"/>
      <point x="242" y="906" type="line"/>
    </contour>
  </outline>
</glyph>
<glyph name="z" format="2">
  <advance width="1401"/>
  <unicode hex="007A"/>
  <anchor x="697" y="0" name="bottom"/>
  <anchor x="697" y="1051" name="top"/>
  <outline>
    <contour>
      <point x="146" y="0" type="line"/>
      <point x="146" y="90" type="line"/>
      <point x="1048" y="957" type="line"/>
      <point x="301" y="957" type="line"/>
      <point x="274" y="765" type="line"/>
      <point x="175" y="765" type="line"/>
      <point x="175" y="1051" type="line"/>
      <point x="1237" y="1051" type="line"/>
      <point x="1237" y="962" type="line"/>
      <point x="326" y="93" type="line"/>
      <point x="1126" y="93" type="line"/>
      <point x="1153" y="286" type="line"/>
      <point x="1252" y="286" type="line"/>
      <point x="1252" y="0" type="line"/>
    </contour>
  </outline>
</glyph>
<glyph name="braceleft" format="2">
  <advance width="1156"/>
  <unicode hex="007B"/>
  <outline>
    <contour>
      <point x="174" y="491" type="line"/>
      <point x="174" y="577" type="line"/>
      <point x="305" y="589" type="line" smooth="yes"/>
      <point x="361" y="593"/>
      <point x="410" y="660"/>
      <point x="410" y="716" type="qcurve" smooth="yes"/>
      <point x="410" y="834"/>
      <point x="293" y="1072"/>
      <point x="293" y="1184" type="qcurve" smooth="yes"/>
      <point x="293" y="1343"/>
      <point x="453" y="1510"/>
      <point x="594" y="1510" type="qcurve" smooth="yes"/>
      <point x="659" y="1510"/>
      <point x="969" y="1503"/>
      <point x="1032" y="1500" type="qcurve"/>
      <point x="1032" y="1388" type="line"/>
      <point x="940" y="1390"/>
      <point x="860" y="1390"/>
      <point x="773" y="1390" type="qcurve" smooth="yes"/>
      <point x="624" y="1390"/>
      <point x="445" y="1296"/>
      <point x="445" y="1198" type="qcurve" smooth="yes"/>
      <point x="445" y="1095"/>
      <point x="522" y="868"/>
      <point x="522" y="768" type="qcurve" smooth="yes"/>
      <point x="522" y="682"/>
      <point x="473" y="573"/>
      <point x="431" y="550" type="qcurve"/>
      <point x="482" y="516"/>
      <point x="522" y="408"/>
      <point x="522" y="329" type="qcurve" smooth="yes"/>
      <point x="522" y="229"/>
      <point x="393" y="-79"/>
      <point x="393" y="-182" type="qcurve" smooth="yes"/>
      <point x="393" y="-280"/>
      <point x="580" y="-376"/>
      <point x="727" y="-376" type="qcurve" smooth="yes"/>
      <point x="816" y="-376"/>
      <point x="931" y="-376"/>
      <point x="1024" y="-374" type="qcurve"/>
      <point x="1024" y="-484" type="line"/>
      <point x="962" y="-487"/>
      <point x="818" y="-495"/>
      <point x="699" y="-495" type="qcurve" smooth="yes"/>
      <point x="550" y="-495"/>
      <point x="265" y="-327"/>
      <point x="265" y="-168" type="qcurve" smooth="yes"/>
      <point x="265" y="-50"/>
      <point x="409" y="246"/>
      <point x="409" y="364" type="qcurve"/>
      <point x="409" y="491" type="line"/>
    </contour>
  </outline>
</glyph>
<glyph name="bar" format="2">
  <advance width="832"/>
  <unicode hex="007C"/>
  <outline>
    <contour>
      <point x="348" y="-540" type="line"/>
      <point x="356" y="-58" type="line"/>
      <point x="361" y="250" type="line"/>
      <point x="359" y="830" type="line"/>
      <point x="354" y="1138" type="line"/>
      <point x="346" y="1490" type="line"/>
      <point x="490" y="1550" type="line"/>
      <point x="480" y="1138" type="line"/>
      <point x="472" y="830" type="line"/>
      <point x="473" y="250" type="line"/>
      <point x="480" y="-58" type="line"/>
      <point x="488" y="-480" type="line"/>
    </contour>
  </outline>
</glyph>
<glyph name="braceright" format="2">
  <advance width="1151"/>
  <unicode hex="007D"/>
  <outline>
    <contour>
      <point x="132" y="-484" type="qcurve"/>
      <point x="132" y="-374" type="line"/>
      <point x="225" y="-376"/>
      <point x="310" y="-376"/>
      <point x="400" y="-376" type="qcurve" smooth="yes"/>
      <point x="546" y="-376"/>
      <point x="727" y="-280"/>
      <point x="727" y="-181" type="qcurve" smooth="yes"/>
      <point x="727" y="-79"/>
      <point x="629" y="229"/>
      <point x="629" y="329" type="qcurve" smooth="yes"/>
      <point x="629" y="408"/>
      <point x="669" y="516"/>
      <point x="721" y="550" type="qcurve"/>
      <point x="678" y="573"/>
      <point x="630" y="682"/>
      <point x="630" y="768" type="qcurve" smooth="yes"/>
      <point x="630" y="868"/>
      <point x="736" y="1095"/>
      <point x="736" y="1198" type="qcurve" smooth="yes"/>
      <point x="736" y="1296"/>
      <point x="562" y="1390"/>
      <point x="416" y="1390" type="qcurve" smooth="yes"/>
      <point x="327" y="1390"/>
      <point x="217" y="1390"/>
      <point x="124" y="1388" type="qcurve"/>
      <point x="124" y="1500" type="line"/>
      <point x="187" y="1503"/>
      <point x="325" y="1510"/>
      <point x="448" y="1510" type="qcurve" smooth="yes"/>
      <point x="713" y="1510"/>
      <point x="869" y="1343"/>
      <point x="869" y="1184" type="qcurve" smooth="yes"/>
      <point x="869" y="1072"/>
      <point x="741" y="834"/>
      <point x="741" y="716" type="qcurve" smooth="yes"/>
      <point x="741" y="660"/>
      <point x="790" y="593"/>
      <point x="846" y="589" type="qcurve" smooth="yes"/>
      <point x="977" y="577" type="line"/>
      <point x="977" y="491" type="line"/>
      <point x="742" y="491" type="line"/>
      <point x="742" y="364" type="line"/>
      <point x="742" y="246"/>
      <point x="869" y="-50"/>
      <point x="869" y="-168" type="qcurve" smooth="yes"/>
      <point x="869" y="-327"/>
      <point x="696" y="-495"/>
      <point x="430" y="-495" type="qcurve" smooth="yes"/>
      <point x="308" y="-495"/>
      <point x="195" y="-487"/>
    </contour>
  </outline>
</glyph>
<glyph name="asciitilde" format="2">
  <advance width="1733"/>
  <unicode hex="007E"/>
  <outline>
    <contour>
      <point x="145" y="601" type="line"/>
      <point x="207" y="694"/>
      <point x="504" y="784"/>
      <point x="623" y="784" type="qcurve"/>
      <point x="1179" y="643" type="line"/>
      <point x="1239" y="643"/>
      <point x="1434" y="704"/>
      <point x="1514" y="804" type="qcurve"/>
      <point x="1588" y="761" type="line"/>
      <point x="1531" y="641"/>
      <point x="1259" y="539"/>
      <point x="1127" y="539" type="qcurve"/>
      <point x="582" y="677" type="line"/>
      <point x="492" y="679"/>
      <point x="257" y="602"/>
      <point x="201" y="548" type="qcurve"/>
    </contour>
  </outline>
</glyph>
<glyph name="exclamdown" format="2">
  <advance width="832"/>
  <unicode hex="00A1"/>
  <outline>
    <contour>
      <point x="524" y="1236" type="qcurve" smooth="yes"/>
      <point x="524" y="1193"/>
      <point x="463" y="1128"/>
      <point x="416" y="1128" type="qcurve" smooth="yes"/>
      <point x="369" y="1128"/>
      <point x="309" y="1193"/>
      <point x="309" y="1236" type="qcurve" smooth="yes"/>
      <point x="309" y="1278"/>
      <point x="369" y="1342"/>
      <point x="416" y="1342" type="qcurve" smooth="yes"/>
      <point x="463" y="1342"/>
      <point x="524" y="1278"/>
    </contour>
    <contour>
      <point x="483" y="-86" type="line" smooth="yes"/>
      <point x="485" y="-154"/>
      <point x="457" y="-241"/>
      <point x="417" y="-242" type="qcurve" smooth="yes"/>
      <point x="378" y="-243"/>
      <point x="347" y="-156"/>
      <point x="349" y="-87" type="qcurve" smooth="yes"/>
      <point x="359" y="212" type="line"/>
      <point x="379" y="520" type="line"/>
      <point x="379" y="891" type="line"/>
      <point x="455" y="891" type="line"/>
      <point x="455" y="520" type="line"/>
      <point x="473" y="212" type="line"/>
    </contour>
  </outline>
</glyph>
<glyph name="cent" format="2">
  <advance width="1561"/>
  <unicode hex="00A2"/>
  <outline>
    <contour>
      <point x="178" y="488" type="qcurve" smooth="yes"/>
      <point x="178" y="714"/>
      <point x="525" y="1022"/>
      <point x="829" y="1022" type="qcurve" smooth="yes"/>
      <point x="937" y="1022"/>
      <point x="1143" y="993"/>
      <point x="1198" y="965" type="qcurve"/>
      <point x="1230" y="1019" type="line"/>
      <point x="1303" y="995" type="line"/>
      <point x="1319" y="663" type="line"/>
      <point x="1237" y="648" type="line"/>
      <point x="1206" y="716" type="line" smooth="yes"/>
      <point x="1167" y="803"/>
      <point x="943" y="933"/>
      <point x="818" y="933" type="qcurve" smooth="yes"/>
      <point x="587" y="933"/>
      <point x="306" y="722"/>
      <point x="306" y="517" type="qcurve" smooth="yes"/>
      <point x="306" y="302"/>
      <point x="624" y="83"/>
      <point x="912" y="83" type="qcurve" smooth="yes"/>
      <point x="1037" y="83"/>
      <point x="1275" y="163"/>
      <point x="1394" y="257" type="qcurve"/>
      <point x="1439" y="210" type="line"/>
      <point x="1336" y="94"/>
      <point x="1036" y="-22"/>
      <point x="875" y="-22" type="qcurve" smooth="yes"/>
      <point x="558" y="-22"/>
      <point x="178" y="246"/>
    </contour>
    <contour>
      <point x="755" y="-210" type="line"/>
      <point x="755" y="52" type="line"/>
      <point x="776" y="52" type="line"/>
      <point x="776" y="520" type="line"/>
      <point x="860" y="478" type="line"/>
      <point x="860" y="52" type="line"/>
      <point x="882" y="52" type="line"/>
      <point x="882" y="-170" type="line"/>
    </contour>
    <contour>
      <point x="754" y="1170" type="line"/>
      <point x="880" y="1201" type="line"/>
      <point x="880" y="988" type="line"/>
      <point x="860" y="988" type="line"/>
      <point x="860" y="478" type="line"/>
      <point x="776" y="520" type="line"/>
      <point x="776" y="988" type="line"/>
      <point x="754" y="988" type="line"/>
    </contour>
  </outline>
</glyph>
<glyph name="sterling" format="2">
  <advance width="1643"/>
  <unicode hex="00A3"/>
  <outline>
    <contour>
      <point x="904" y="526" type="qcurve" smooth="yes"/>
      <point x="904" y="403"/>
      <point x="649" y="162"/>
      <point x="463" y="120" type="qcurve"/>
      <point x="474" y="87" type="line"/>
      <point x="1260" y="87" type="line"/>
      <point x="1394" y="372" type="line"/>
      <point x="1487" y="372" type="line"/>
      <point x="1388" y="0" type="line"/>
      <point x="184" y="0" type="line"/>
      <point x="131" y="88" type="line"/>
      <point x="153" y="109" type="line"/>
      <point x="464" y="110"/>
      <point x="779" y="353"/>
      <point x="779" y="496" type="qcurve" smooth="yes"/>
      <point x="779" y="550"/>
      <point x="655" y="698"/>
      <point x="570" y="769" type="qcurve" smooth="yes"/>
      <point x="459" y="864"/>
      <point x="249" y="1052"/>
      <point x="249" y="1151" type="qcurve" smooth="yes"/>
      <point x="249" y="1280"/>
      <point x="564" y="1501"/>
      <point x="807" y="1501" type="qcurve" smooth="yes"/>
      <point x="1027" y="1501"/>
      <point x="1348" y="1402"/>
      <point x="1466" y="1328" type="qcurve"/>
      <point x="1381" y="1243" type="line"/>
      <point x="1280" y="1303"/>
      <point x="1002" y="1396"/>
      <point x="808" y="1396" type="qcurve" smooth="yes"/>
      <point x="591" y="1396"/>
      <point x="369" y="1262"/>
      <point x="369" y="1171" type="qcurve" smooth="yes"/>
      <point x="369" y="1089"/>
      <point x="554" y="922"/>
      <point x="662" y="833" type="qcurve" smooth="yes"/>
      <point x="754" y="759"/>
      <point x="904" y="607"/>
    </contour>
    <contour>
      <point x="240" y="598" type="line"/>
      <point x="220" y="707" type="line"/>
      <point x="1355" y="707" type="line"/>
      <point x="1331" y="598" type="line"/>
    </contour>
  </outline>
</glyph>
<glyph name="yen" format="2">
  <advance width="1911"/>
  <unicode hex="00A5"/>
  <outline>
    <contour>
      <point x="521" y="631" type="line"/>
      <point x="497" y="732" type="line"/>
      <point x="1407" y="732" type="line"/>
      <point x="1383" y="631" type="line"/>
    </contour>
    <contour>
      <point x="891" y="610" type="line"/>
      <point x="571" y="1006" type="line"/>
      <point x="272" y="1360" type="line"/>
      <point x="44" y="1386" type="line"/>
      <point x="44" y="1500" type="line"/>
      <point x="640" y="1500" type="line"/>
      <point x="640" y="1386" type="line"/>
      <point x="421" y="1351" type="line"/>
      <point x="672" y="1063" type="line"/>
      <point x="969" y="691" type="line"/>
      <point x="1268" y="1061" type="line"/>
      <point x="1512" y="1358" type="line"/>
      <point x="1262" y="1386" type="line"/>
      <point x="1262" y="1500" type="line"/>
      <point x="1867" y="1500" type="line"/>
      <point x="1867" y="1386" type="line"/>
      <point x="1636" y="1359" type="line"/>
      <point x="1345" y="1007" type="line"/>
      <point x="1016" y="610" type="line"/>
      <point x="1018" y="135" type="line"/>
      <point x="1296" y="100" type="line"/>
      <point x="1296" y="0" type="line"/>
      <point x="609" y="0" type="line"/>
      <point x="609" y="100" type="line"/>
      <point x="890" y="135" type="line"/>
    </contour>
    <contour>
      <point x="581" y="331" type="line"/>
      <point x="557" y="432" type="line"/>
      <point x="1347" y="432" type="line"/>
      <point x="1323" y="331" type="line"/>
    </contour>
  </outline>
</glyph>
<glyph name="section" format="2">
  <advance width="1478"/>
  <unicode hex="00A7"/>
  <outline>
    <contour>
      <point x="1265" y="124" type="qcurve" smooth="yes"/>
      <point x="1265" y="-35"/>
      <point x="993" y="-253"/>
      <point x="760" y="-253" type="qcurve" smooth="yes"/>
      <point x="635" y="-253"/>
      <point x="456" y="-187"/>
      <point x="376" y="-135" type="qcurve"/>
      <point x="335" y="-235" type="line"/>
      <point x="255" y="-235" type="line"/>
      <point x="255" y="196" type="line"/>
      <point x="343" y="196" type="line"/>
      <point x="373" y="103" type="line" smooth="yes"/>
      <point x="416" y="-37"/>
      <point x="620" y="-157"/>
      <point x="760" y="-157" type="qcurve" smooth="yes"/>
      <point x="976" y="-157"/>
      <point x="1170" y="-20"/>
      <point x="1170" y="92" type="qcurve" smooth="yes"/>
      <point x="1170" y="228"/>
      <point x="902" y="362"/>
      <point x="620" y="428" type="qcurve" smooth="yes"/>
      <point x="421" y="470"/>
      <point x="218" y="642"/>
      <point x="218" y="765" type="qcurve" smooth="yes"/>
      <point x="218" y="855"/>
      <point x="308" y="985"/>
      <point x="394" y="1032" type="qcurve"/>
      <point x="340" y="1059"/>
      <point x="270" y="1151"/>
      <point x="270" y="1239" type="qcurve" smooth="yes"/>
      <point x="270" y="1349"/>
      <point x="488" y="1512"/>
      <point x="687" y="1512" type="qcurve" smooth="yes"/>
      <point x="804" y="1512"/>
      <point x="966" y="1472"/>
      <point x="1024" y="1449" type="qcurve"/>
      <point x="1038" y="1480" type="line"/>
      <point x="1114" y="1480" type="line"/>
      <point x="1114" y="1184" type="line"/>
      <point x="1025" y="1184" type="line"/>
      <point x="992" y="1297" type="line" smooth="yes"/>
      <point x="975" y="1353"/>
      <point x="809" y="1423"/>
      <point x="680" y="1423" type="qcurve" smooth="yes"/>
      <point x="517" y="1423"/>
      <point x="366" y="1339"/>
      <point x="366" y="1276" type="qcurve" smooth="yes"/>
      <point x="366" y="1198"/>
      <point x="502" y="1100"/>
      <point x="752" y="1056" type="qcurve" smooth="yes"/>
      <point x="985" y="1015"/>
      <point x="1236" y="894"/>
      <point x="1236" y="775" type="qcurve" smooth="yes"/>
      <point x="1236" y="663"/>
      <point x="1088" y="504"/>
      <point x="939" y="477" type="qcurve"/>
      <point x="1095" y="433"/>
      <point x="1265" y="261"/>
    </contour>
    <contour>
      <point x="302" y="800" type="qcurve" smooth="yes"/>
      <point x="302" y="710"/>
      <point x="475" y="582"/>
      <point x="708" y="528" type="qcurve"/>
      <point x="916" y="535"/>
      <point x="1147" y="651"/>
      <point x="1147" y="748" type="qcurve" smooth="yes"/>
      <point x="1147" y="834"/>
      <point x="920" y="924"/>
      <point x="681" y="961" type="qcurve" smooth="yes"/>
      <point x="625" y="973"/>
      <point x="526" y="998"/>
      <point x="488" y="1007" type="qcurve"/>
      <point x="387" y="985"/>
      <point x="302" y="876"/>
    </contour>
  </outline>
</glyph>
<glyph name="copyright" format="2">
  <advance width="2276"/>
  <unicode hex="00A9"/>
  <outline>
    <contour>
      <point x="663" y="662" type="qcurve" smooth="yes"/>
      <point x="663" y="901"/>
      <point x="926" y="1209"/>
      <point x="1154" y="1209" type="qcurve" smooth="yes"/>
      <point x="1218" y="1209"/>
      <point x="1340" y="1176"/>
      <point x="1370" y="1152" type="qcurve"/>
      <point x="1402" y="1206" type="line"/>
      <point x="1476" y="1182" type="line"/>
      <point x="1492" y="848" type="line"/>
      <point x="1410" y="834" type="line"/>
      <point x="1361" y="1019" type="line"/>
      <point x="1318" y="1065"/>
      <point x="1214" y="1120"/>
      <point x="1156" y="1120" type="qcurve" smooth="yes"/>
      <point x="1015" y="1120"/>
      <point x="843" y="898"/>
      <point x="843" y="696" type="qcurve" smooth="yes"/>
      <point x="843" y="485"/>
      <point x="1043" y="270"/>
      <point x="1175" y="270" type="qcurve" smooth="yes"/>
      <point x="1293" y="270"/>
      <point x="1485" y="377"/>
      <point x="1535" y="441" type="qcurve"/>
      <point x="1584" y="380" type="line"/>
      <point x="1522" y="287"/>
      <point x="1284" y="165"/>
      <point x="1174" y="165" type="qcurve" smooth="yes"/>
      <point x="943" y="165"/>
      <point x="663" y="433"/>
    </contour>
    <contour>
      <point x="215" y="685" type="qcurve" smooth="yes"/>
      <point x="215" y="1061"/>
      <point x="736" y="1570"/>
      <point x="1140" y="1570" type="qcurve" smooth="yes"/>
      <point x="1542" y="1570"/>
      <point x="2061" y="1087"/>
      <point x="2061" y="706" type="qcurve" smooth="yes"/>
      <point x="2061" y="288"/>
      <point x="1549" y="-242"/>
      <point x="1152" y="-242" type="qcurve" smooth="yes"/>
      <point x="743" y="-242"/>
      <point x="215" y="276"/>
    </contour>
    <contour>
      <point x="347" y="682" type="qcurve" smooth="yes"/>
      <point x="347" y="323"/>
      <point x="819" y="-142"/>
      <point x="1165" y="-142" type="qcurve" smooth="yes"/>
      <point x="1502" y="-142"/>
      <point x="1929" y="346"/>
      <point x="1929" y="700" type="qcurve" smooth="yes"/>
      <point x="1929" y="1022"/>
      <point x="1483" y="1470"/>
      <point x="1124" y="1470" type="qcurve" smooth="yes"/>
      <point x="780" y="1470"/>
      <point x="347" y="1010"/>
    </contour>
  </outline>
</glyph>
<glyph name="ordfeminine" format="2">
  <advance width="1340"/>
  <unicode hex="00AA"/>
  <outline>
    <contour>
      <point x="184" y="878" type="qcurve" smooth="yes"/>
      <point x="184" y="1002"/>
      <point x="560" y="1176"/>
      <point x="981" y="1206" type="qcurve"/>
      <point x="991" y="1135" type="line"/>
      <point x="679" y="1111"/>
      <point x="296" y="1015"/>
      <point x="296" y="899" type="qcurve" smooth="yes"/>
      <point x="296" y="827"/>
      <point x="434" y="763"/>
      <point x="543" y="763" type="qcurve" smooth="yes"/>
      <point x="650" y="763"/>
      <point x="893" y="838"/>
      <point x="943" y="882" type="qcurve"/>
      <point x="946" y="1202" type="line" smooth="yes"/>
      <point x="947" y="1364"/>
      <point x="800" y="1459"/>
      <point x="664" y="1459" type="qcurve" smooth="yes"/>
      <point x="533" y="1459"/>
      <point x="365" y="1411"/>
      <point x="320" y="1383" type="qcurve"/>
      <point x="340" y="1371"/>
      <point x="360" y="1337"/>
      <point x="363" y="1325" type="qcurve" smooth="yes"/>
      <point x="365" y="1299"/>
      <point x="328" y="1262"/>
      <point x="299" y="1262" type="qcurve" smooth="yes"/>
      <point x="264" y="1262"/>
      <point x="224" y="1315"/>
      <point x="224" y="1342" type="qcurve" smooth="yes"/>
      <point x="224" y="1430"/>
      <point x="474" y="1543"/>
      <point x="673" y="1543" type="qcurve" smooth="yes"/>
      <point x="858" y="1543"/>
      <point x="1050" y="1385"/>
      <point x="1052" y="1194" type="qcurve" smooth="yes"/>
      <point x="1054" y="780" type="line"/>
      <point x="1184" y="751" type="line"/>
      <point x="1184" y="684" type="line"/>
      <point x="1007" y="684" type="line"/>
      <point x="963" y="734" type="line"/>
      <point x="952" y="789" type="line"/>
      <point x="889" y="745"/>
      <point x="630" y="670"/>
      <point x="487" y="670" type="qcurve" smooth="yes"/>
      <point x="353" y="670"/>
      <point x="184" y="765"/>
    </contour>
  </outline>
</glyph>
<glyph name="guillemotleft" format="2">
  <advance width="1674"/>
  <unicode hex="00AB"/>
  <outline>
    <contour>
      <point x="25" y="624" type="line"/>
      <point x="151" y="679"/>
      <point x="867" y="979"/>
      <point x="997" y="1034" type="qcurve" smooth="yes"/>
      <point x="1059" y="1057"/>
      <point x="1104" y="963"/>
      <point x="1049" y="942" type="qcurve" smooth="yes"/>
      <point x="919" y="878"/>
      <point x="254" y="632"/>
      <point x="206" y="611" type="qcurve"/>
      <point x="254" y="590"/>
      <point x="921" y="327"/>
      <point x="1041" y="262" type="qcurve" smooth="yes"/>
      <point x="1097" y="238"/>
      <point x="1064" y="146"/>
      <point x="1000" y="166" type="qcurve" smooth="yes"/>
      <point x="904" y="203"/>
      <point x="133" y="531"/>
      <point x="25" y="584" type="qcurve"/>
    </contour>
    <contour>
      <point x="582" y="624" type="line"/>
      <point x="708" y="679"/>
      <point x="1425" y="979"/>
      <point x="1554" y="1034" type="qcurve" smooth="yes"/>
      <point x="1616" y="1057"/>
      <point x="1662" y="963"/>
      <point x="1606" y="942" type="qcurve" smooth="yes"/>
      <point x="1477" y="878"/>
      <point x="812" y="632"/>
      <point x="764" y="611" type="qcurve"/>
      <point x="811" y="590"/>
      <point x="1479" y="327"/>
      <point x="1598" y="262" type="qcurve" smooth="yes"/>
      <point x="1655" y="238"/>
      <point x="1621" y="146"/>
      <point x="1558" y="166" type="qcurve" smooth="yes"/>
      <point x="1462" y="203"/>
      <point x="690" y="531"/>
      <point x="582" y="584" type="qcurve"/>
    </contour>
  </outline>
</glyph>
<glyph name="logicalnot" format="2">
  <advance width="1878"/>
  <unicode hex="00AC"/>
  <outline>
    <contour>
      <point x="205" y="694" type="line"/>
      <point x="1679" y="694" type="line"/>
      <point x="1679" y="200" type="line"/>
      <point x="1550" y="200" type="line"/>
      <point x="1550" y="572" type="line"/>
      <point x="205" y="572" type="line"/>
    </contour>
  </outline>
</glyph>
<glyph name="registered" format="2">
  <advance width="2276"/>
  <unicode hex="00AE"/>
  <outline>
    <contour>
      <point x="221" y="681" type="qcurve" smooth="yes"/>
      <point x="221" y="1057"/>
      <point x="738" y="1570"/>
      <point x="1142" y="1570" type="qcurve" smooth="yes"/>
      <point x="1544" y="1570"/>
      <point x="2061" y="1080"/>
      <point x="2061" y="698" type="qcurve" smooth="yes"/>
      <point x="2061" y="285"/>
      <point x="1549" y="-242"/>
      <point x="1152" y="-242" type="qcurve" smooth="yes"/>
      <point x="743" y="-242"/>
      <point x="221" y="272"/>
    </contour>
    <contour>
      <point x="353" y="678" type="qcurve" smooth="yes"/>
      <point x="353" y="319"/>
      <point x="819" y="-142"/>
      <point x="1165" y="-142" type="qcurve" smooth="yes"/>
      <point x="1502" y="-142"/>
      <point x="1928" y="343"/>
      <point x="1928" y="691" type="qcurve" smooth="yes"/>
      <point x="1928" y="1016"/>
      <point x="1483" y="1470"/>
      <point x="1127" y="1470" type="qcurve" smooth="yes"/>
      <point x="781" y="1470"/>
      <point x="353" y="1005"/>
    </contour>
    <contour>
      <point x="667" y="176" type="line"/>
      <point x="657" y="266" type="line"/>
      <point x="816" y="290" type="line"/>
      <point x="827" y="723" type="line"/>
      <point x="816" y="1088" type="line"/>
      <point x="647" y="1111" type="line"/>
      <point x="647" y="1209" type="line"/>
      <point x="1162" y="1209" type="line" smooth="yes"/>
      <point x="1320" y="1209"/>
      <point x="1473" y="1082"/>
      <point x="1473" y="968" type="qcurve" smooth="yes"/>
      <point x="1473" y="841"/>
      <point x="1286" y="664"/>
      <point x="1160" y="664" type="qcurve" smooth="yes"/>
      <point x="1109" y="664"/>
      <point x="969" y="673"/>
      <point x="945" y="673" type="qcurve"/>
      <point x="945" y="742" type="line"/>
      <point x="1102" y="741" type="line" smooth="yes"/>
      <point x="1221" y="740"/>
      <point x="1305" y="862"/>
      <point x="1305" y="963" type="qcurve" smooth="yes"/>
      <point x="1305" y="1051"/>
      <point x="1213" y="1127"/>
      <point x="1110" y="1127" type="qcurve" smooth="yes"/>
      <point x="1003" y="1127" type="line"/>
      <point x="982" y="1114" type="line"/>
      <point x="969" y="723" type="line"/>
      <point x="980" y="290" type="line"/>
      <point x="1154" y="266" type="line"/>
      <point x="1154" y="176" type="line"/>
    </contour>
    <contour>
      <point x="1069" y="701" type="line"/>
      <point x="1222" y="727" type="line"/>
      <point x="1464" y="393" type="line" smooth="yes"/>
      <point x="1541" y="287"/>
      <point x="1664" y="266"/>
      <point x="1714" y="266" type="qcurve"/>
      <point x="1714" y="176" type="line"/>
      <point x="1481" y="176" type="line"/>
      <point x="1439" y="190" type="line"/>
    </contour>
  </outline>
</glyph>
<glyph name="degree" format="2">
  <advance width="1110"/>
  <unicode hex="00B0"/>
  <outline>
    <contour>
      <point x="238" y="1243" type="qcurve" smooth="yes"/>
      <point x="238" y="1371"/>
      <point x="416" y="1560"/>
      <point x="555" y="1560" type="qcurve" smooth="yes"/>
      <point x="694" y="1560"/>
      <point x="872" y="1371"/>
      <point x="872" y="1243" type="qcurve" smooth="yes"/>
      <point x="872" y="1118"/>
      <point x="694" y="928"/>
      <point x="555" y="928" type="qcurve" smooth="yes"/>
      <point x="416" y="928"/>
      <point x="238" y="1118"/>
    </contour>
    <contour>
      <point x="359" y="1243" type="qcurve" smooth="yes"/>
      <point x="359" y="1167"/>
      <point x="470" y="1049"/>
      <point x="555" y="1049" type="qcurve" smooth="yes"/>
      <point x="641" y="1049"/>
      <point x="751" y="1167"/>
      <point x="751" y="1243" type="qcurve" smooth="yes"/>
      <point x="751" y="1323"/>
      <point x="641" y="1439"/>
      <point x="555" y="1439" type="qcurve" smooth="yes"/>
      <point x="470" y="1439"/>
      <point x="359" y="1323"/>
    </contour>
  </outline>
</glyph>
<glyph name="plusminus" format="2">
  <advance width="1877"/>
  <unicode hex="00B1"/>
  <outline>
    <contour>
      <point x="194" y="755" type="line"/>
      <point x="194" y="877" type="line"/>
      <point x="1683" y="877" type="line"/>
      <point x="1683" y="755" type="line"/>
    </contour>
    <contour>
      <point x="875" y="238" type="line"/>
      <point x="875" y="1377" type="line"/>
      <point x="1003" y="1377" type="line"/>
      <point x="1003" y="238" type="line"/>
    </contour>
    <contour>
      <point x="194" y="26" type="line"/>
      <point x="194" y="142" type="line"/>
      <point x="1683" y="142" type="line"/>
      <point x="1683" y="26" type="line"/>
    </contour>
  </outline>
</glyph>
<glyph name="twosuperior" format="2">
  <advance width="1271"/>
  <unicode hex="00B2"/>
  <outline>
    <contour>
      <point x="198" y="671" type="line"/>
      <point x="195" y="777" type="line"/>
      <point x="221" y="851"/>
      <point x="408" y="1007"/>
      <point x="645" y="1083" type="qcurve" smooth="yes"/>
      <point x="841" y="1146"/>
      <point x="948" y="1235"/>
      <point x="942" y="1305" type="qcurve" smooth="yes"/>
      <point x="937" y="1366"/>
      <point x="790" y="1430"/>
      <point x="688" y="1430" type="qcurve" smooth="yes"/>
      <point x="542" y="1430"/>
      <point x="347" y="1383"/>
      <point x="246" y="1331" type="qcurve"/>
      <point x="186" y="1398" type="line"/>
      <point x="254" y="1449"/>
      <point x="478" y="1520"/>
      <point x="642" y="1520" type="qcurve" smooth="yes"/>
      <point x="821" y="1520"/>
      <point x="1048" y="1413"/>
      <point x="1048" y="1304" type="qcurve" smooth="yes"/>
      <point x="1048" y="1188"/>
      <point x="854" y="1073"/>
      <point x="696" y="1020" type="qcurve" smooth="yes"/>
      <point x="492" y="954"/>
      <point x="324" y="869"/>
      <point x="307" y="821" type="qcurve"/>
      <point x="307" y="763" type="line"/>
      <point x="1081" y="763" type="line"/>
      <point x="1081" y="671" type="line"/>
    </contour>
  </outline>
</glyph>
<glyph name="threesuperior" format="2">
  <advance width="1205"/>
  <unicode hex="00B3"/>
  <outline>
    <contour>
      <point x="156" y="739" type="qcurve"/>
      <point x="196" y="814" type="line"/>
      <point x="293" y="771"/>
      <point x="482" y="735"/>
      <point x="615" y="735" type="qcurve" smooth="yes"/>
      <point x="749" y="735"/>
      <point x="903" y="814"/>
      <point x="903" y="903" type="qcurve" smooth="yes"/>
      <point x="903" y="992"/>
      <point x="679" y="1069"/>
      <point x="462" y="1069" type="qcurve" smooth="yes"/>
      <point x="402" y="1069" type="line"/>
      <point x="389" y="1146" type="line"/>
      <point x="489" y="1149" type="line" smooth="yes"/>
      <point x="687" y="1155"/>
      <point x="861" y="1241"/>
      <point x="861" y="1318" type="qcurve" smooth="yes"/>
      <point x="861" y="1374"/>
      <point x="753" y="1436"/>
      <point x="643" y="1436" type="qcurve" smooth="yes"/>
      <point x="519" y="1436"/>
      <point x="346" y="1397"/>
      <point x="255" y="1361" type="qcurve"/>
      <point x="219" y="1422" type="line"/>
      <point x="301" y="1468"/>
      <point x="507" y="1520"/>
      <point x="631" y="1520" type="qcurve" smooth="yes"/>
      <point x="793" y="1520"/>
      <point x="979" y="1418"/>
      <point x="979" y="1337" type="qcurve" smooth="yes"/>
      <point x="979" y="1252"/>
      <point x="830" y="1141"/>
      <point x="684" y="1118" type="qcurve"/>
      <point x="684" y="1114" type="line"/>
      <point x="837" y="1111"/>
      <point x="1013" y="1001"/>
      <point x="1013" y="905" type="qcurve" smooth="yes"/>
      <point x="1013" y="783"/>
      <point x="778" y="649"/>
      <point x="586" y="649" type="qcurve" smooth="yes"/>
      <point x="478" y="649"/>
      <point x="234" y="697"/>
    </contour>
  </outline>
</glyph>
<glyph name="micro" format="2">
  <advance width="1651"/>
  <unicode hex="00B5"/>
  <outline>
    <contour>
      <point x="99" y="-317" type="line"/>
      <point x="139" y="-293" type="line"/>
      <point x="176" y="-135"/>
      <point x="234" y="112"/>
      <point x="247" y="181" type="qcurve" smooth="yes"/>
      <point x="360" y="822" type="line"/>
      <point x="217" y="819" type="line"/>
      <point x="219" y="915" type="line"/>
      <point x="430" y="1002" type="line"/>
      <point x="464" y="1002" type="line"/>
      <point x="495" y="943" type="line"/>
      <point x="370" y="286" type="line" smooth="yes"/>
      <point x="353" y="198"/>
      <point x="429" y="141"/>
      <point x="557" y="141" type="qcurve" smooth="yes"/>
      <point x="710" y="141"/>
      <point x="1060" y="259"/>
      <point x="1160" y="326" type="qcurve"/>
      <point x="1279" y="976" type="line"/>
      <point x="1270" y="1000" type="line"/>
      <point x="1366" y="1016" type="line"/>
      <point x="1397" y="957" type="line"/>
      <point x="1278" y="362" type="line"/>
      <point x="1252" y="134" type="line"/>
      <point x="1388" y="134" type="line"/>
      <point x="1390" y="47" type="line"/>
      <point x="1182" y="-15" type="line"/>
      <point x="1140" y="76" type="line"/>
      <point x="1148" y="215" type="line"/>
      <point x="1024" y="136"/>
      <point x="652" y="23"/>
      <point x="493" y="23" type="qcurve" smooth="yes"/>
      <point x="442" y="23"/>
      <point x="364" y="35"/>
      <point x="321" y="48" type="qcurve"/>
      <point x="264" y="-274" type="line"/>
      <point x="410" y="-282" type="line"/>
      <point x="402" y="-371" type="line"/>
      <point x="122" y="-399" type="line"/>
    </contour>
  </outline>
</glyph>
<glyph name="paragraph" format="2">
  <advance width="1625"/>
  <unicode hex="00B6"/>
  <outline>
    <contour>
      <point x="1443" y="100" type="line"/>
      <point x="1443" y="0" type="line"/>
      <point x="597" y="0" type="line"/>
      <point x="597" y="100" type="line"/>
      <point x="1133" y="132" type="line"/>
      <point x="1135" y="787" type="line"/>
      <point x="1075" y="780"/>
      <point x="829" y="773"/>
      <point x="750" y="773" type="qcurve" smooth="yes"/>
      <point x="472" y="773"/>
      <point x="146" y="989"/>
      <point x="146" y="1155" type="qcurve" smooth="yes"/>
      <point x="146" y="1326"/>
      <point x="453" y="1500"/>
      <point x="719" y="1500" type="qcurve" smooth="yes"/>
      <point x="1496" y="1500" type="line"/>
      <point x="1496" y="1386" type="line"/>
      <point x="1235" y="1352" type="line"/>
      <point x="1234" y="754" type="line"/>
      <point x="1235" y="137" type="line"/>
    </contour>
    <contour>
      <point x="955" y="46" type="line"/>
      <point x="845" y="46" type="line"/>
      <point x="846" y="907" type="line"/>
      <point x="953" y="907" type="line"/>
    </contour>
  </outline>
</glyph>
<glyph name="periodcentered" format="2">
  <advance width="739"/>
  <unicode hex="00B7"/>
  <outline>
    <contour>
      <point x="262" y="674" type="qcurve" smooth="yes"/>
      <point x="262" y="717"/>
      <point x="322" y="781"/>
      <point x="369" y="781" type="qcurve" smooth="yes"/>
      <point x="416" y="781"/>
      <point x="477" y="717"/>
      <point x="477" y="674" type="qcurve" smooth="yes"/>
      <point x="477" y="632"/>
      <point x="416" y="567"/>
      <point x="369" y="567" type="qcurve" smooth="yes"/>
      <point x="322" y="567"/>
      <point x="262" y="632"/>
    </contour>
  </outline>
</glyph>
<glyph name="onesuperior" format="2">
  <advance width="1193"/>
  <unicode hex="00B9"/>
  <outline>
    <contour>
      <point x="229" y="670" type="line"/>
      <point x="229" y="754" type="line"/>
      <point x="537" y="784" type="line"/>
      <point x="542" y="1109" type="line"/>
      <point x="537" y="1393" type="line"/>
      <point x="226" y="1412" type="line"/>
      <point x="226" y="1480" type="line"/>
      <point x="598" y="1513" type="line"/>
      <point x="652" y="1478" type="line"/>
      <point x="643" y="1109" type="line"/>
      <point x="646" y="784" type="line"/>
      <point x="954" y="754" type="line"/>
      <point x="954" y="670" type="line"/>
    </contour>
  </outline>
</glyph>
<glyph name="ordmasculine" format="2">
  <advance width="1501"/>
  <unicode hex="00BA"/>
  <outline>
    <contour>
      <point x="186" y="1094" type="qcurve" smooth="yes"/>
      <point x="186" y="1280"/>
      <point x="492" y="1542"/>
      <point x="749" y="1542" type="qcurve" smooth="yes"/>
      <point x="1009" y="1542"/>
      <point x="1315" y="1297"/>
      <point x="1315" y="1099" type="qcurve" smooth="yes"/>
      <point x="1315" y="914"/>
      <point x="1016" y="646"/>
      <point x="758" y="646" type="qcurve" smooth="yes"/>
      <point x="497" y="646"/>
      <point x="186" y="894"/>
    </contour>
    <contour>
      <point x="312" y="1111" type="qcurve" smooth="yes"/>
      <point x="312" y="947"/>
      <point x="554" y="716"/>
      <point x="746" y="716" type="qcurve" smooth="yes"/>
      <point x="953" y="716"/>
      <point x="1185" y="927"/>
      <point x="1185" y="1098" type="qcurve" smooth="yes"/>
      <point x="1185" y="1258"/>
      <point x="943" y="1468"/>
      <point x="749" y="1468" type="qcurve" smooth="yes"/>
      <point x="540" y="1468"/>
      <point x="311" y="1277"/>
    </contour>
  </outline>
</glyph>
<glyph name="guillemotright" format="2">
  <advance width="1674"/>
  <unicode hex="00BB"/>
  <outline>
    <contour>
      <point x="1643" y="584" type="line"/>
      <point x="1537" y="531"/>
      <point x="759" y="199"/>
      <point x="664" y="164" type="qcurve" smooth="yes"/>
      <point x="600" y="145"/>
      <point x="570" y="238"/>
      <point x="626" y="262" type="qcurve" smooth="yes"/>
      <point x="747" y="327"/>
      <point x="1414" y="594"/>
      <point x="1462" y="617" type="qcurve"/>
      <point x="1413" y="635"/>
      <point x="749" y="877"/>
      <point x="620" y="942" type="qcurve" smooth="yes"/>
      <point x="564" y="964"/>
      <point x="613" y="1056"/>
      <point x="674" y="1032" type="qcurve" smooth="yes"/>
      <point x="805" y="975"/>
      <point x="1515" y="679"/>
      <point x="1643" y="624" type="qcurve"/>
    </contour>
    <contour>
      <point x="1085" y="584" type="line"/>
      <point x="979" y="531"/>
      <point x="202" y="199"/>
      <point x="107" y="164" type="qcurve" smooth="yes"/>
      <point x="43" y="145"/>
      <point x="13" y="238"/>
      <point x="69" y="262" type="qcurve" smooth="yes"/>
      <point x="189" y="327"/>
      <point x="857" y="594"/>
      <point x="904" y="617" type="qcurve"/>
      <point x="856" y="635"/>
      <point x="191" y="877"/>
      <point x="63" y="942" type="qcurve" smooth="yes"/>
      <point x="7" y="964"/>
      <point x="55" y="1056"/>
      <point x="117" y="1032" type="qcurve" smooth="yes"/>
      <point x="248" y="975"/>
      <point x="958" y="679"/>
      <point x="1085" y="624" type="qcurve"/>
    </contour>
  </outline>
</glyph>
<glyph name="questiondown" format="2">
  <advance width="1382"/>
  <unicode hex="00BF"/>
  <outline>
    <contour>
      <point x="897" y="1242" type="qcurve" smooth="yes"/>
      <point x="897" y="1198"/>
      <point x="837" y="1134"/>
      <point x="790" y="1134" type="qcurve" smooth="yes"/>
      <point x="743" y="1134"/>
      <point x="682" y="1198"/>
      <point x="682" y="1242" type="qcurve" smooth="yes"/>
      <point x="682" y="1284"/>
      <point x="743" y="1348"/>
      <point x="790" y="1348" type="qcurve" smooth="yes"/>
      <point x="837" y="1348"/>
      <point x="897" y="1284"/>
    </contour>
    <contour>
      <point x="1235" y="78" type="qcurve" smooth="yes"/>
      <point x="1235" y="-54"/>
      <point x="950" y="-214"/>
      <point x="689" y="-214" type="qcurve" smooth="yes"/>
      <point x="437" y="-214"/>
      <point x="134" y="-17"/>
      <point x="134" y="163" type="qcurve" smooth="yes"/>
      <point x="134" y="359"/>
      <point x="330" y="497"/>
      <point x="529" y="595" type="qcurve" smooth="yes"/>
      <point x="629" y="646"/>
      <point x="763" y="724"/>
      <point x="762" y="804" type="qcurve" smooth="yes"/>
      <point x="762" y="891" type="line"/>
      <point x="842" y="891" type="line"/>
      <point x="855" y="807" type="line" smooth="yes"/>
      <point x="866" y="732"/>
      <point x="780" y="577"/>
      <point x="615" y="502" type="qcurve" smooth="yes"/>
      <point x="468" y="437"/>
      <point x="267" y="326"/>
      <point x="267" y="176" type="qcurve" smooth="yes"/>
      <point x="267" y="31"/>
      <point x="518" y="-125"/>
      <point x="717" y="-125" type="qcurve" smooth="yes"/>
      <point x="910" y="-125"/>
      <point x="1127" y="-34"/>
      <point x="1127" y="29" type="qcurve" smooth="yes"/>
      <point x="1127" y="61"/>
      <point x="1036" y="104"/>
      <point x="1034" y="140" type="qcurve" smooth="yes"/>
      <point x="1032" y="170"/>
      <point x="1078" y="219"/>
      <point x="1123" y="219" type="qcurve" smooth="yes"/>
      <point x="1173" y="219"/>
      <point x="1235" y="146"/>
    </contour>
  </outline>
</glyph>
<glyph name="AE" format="2">
  <advance width="3004"/>
  <unicode hex="00C6"/>
  <anchor x="1845" y="1500" name="top"/>
  <outline>
    <contour>
      <point x="25" y="0" type="line"/>
      <point x="25" y="98" type="line"/>
      <point x="274" y="133" type="line"/>
      <point x="650" y="532" type="line"/>
      <point x="1436" y="1369" type="line"/>
      <point x="1258" y="1388" type="line"/>
      <point x="1258" y="1500" type="line"/>
      <point x="2730" y="1500" type="line"/>
      <point x="2730" y="1162" type="line"/>
      <point x="2638" y="1162" type="line"/>
      <point x="2603" y="1405" type="line"/>
      <point x="1670" y="1405" type="line"/>
      <point x="1641" y="1385" type="line"/>
      <point x="1639" y="783" type="line"/>
      <point x="1641" y="111" type="line"/>
      <point x="1671" y="87" type="line"/>
      <point x="2666" y="87" type="line"/>
      <point x="2742" y="368" type="line"/>
      <point x="2834" y="368" type="line"/>
      <point x="2794" y="0" type="line"/>
      <point x="1245" y="0" type="line"/>
      <point x="1245" y="98" type="line"/>
      <point x="1513" y="135" type="line"/>
      <point x="1515" y="783" type="line"/>
      <point x="1513" y="1280" type="line"/>
      <point x="1489" y="1306" type="line"/>
      <point x="736" y="491" type="line"/>
      <point x="398" y="128" type="line"/>
      <point x="639" y="98" type="line"/>
      <point x="639" y="0" type="line"/>
    </contour>
    <contour>
      <point x="656" y="465" type="line"/>
      <point x="751" y="562" type="line"/>
      <point x="1260" y="549" type="line"/>
      <point x="1260" y="465" type="line"/>
    </contour>
    <contour>
      <point x="1260" y="549" type="line"/>
      <point x="1588" y="563" type="line"/>
      <point x="1588" y="465" type="line"/>
      <point x="1260" y="465" type="line"/>
    </contour>
    <contour>
      <point x="1578" y="746" type="line"/>
      <point x="1578" y="824" type="line"/>
      <point x="2457" y="834" type="line"/>
      <point x="2492" y="1000" type="line"/>
      <point x="2584" y="1000" type="line"/>
      <point x="2584" y="572" type="line"/>
      <point x="2492" y="572" type="line"/>
      <point x="2457" y="736" type="line"/>
    </contour>
  </outline>
</glyph>
<glyph name="multiply" format="2">
  <advance width="1877"/>
  <unicode hex="00D7"/>
  <outline>
    <contour>
      <point x="420" y="34" type="line"/>
      <point x="339" y="115" type="line"/>
      <point x="1456" y="1232" type="line"/>
      <point x="1537" y="1151" type="line"/>
    </contour>
    <contour>
      <point x="1453" y="29" type="line"/>
      <point x="335" y="1146" type="line"/>
      <point x="424" y="1235" type="line"/>
      <point x="1542" y="118" type="line"/>
    </contour>
  </outline>
</glyph>
<glyph name="Thorn" format="2">
  <advance width="1750"/>
  <unicode hex="00DE"/>
  <outline>
    <contour>
      <point x="136" y="0" type="line"/>
      <point x="136" y="98" type="line"/>
      <point x="404" y="135" type="line"/>
      <point x="406" y="754" type="line"/>
      <point x="404" y="1354" type="line"/>
      <point x="136" y="1388" type="line"/>
      <point x="136" y="1500" type="line"/>
      <point x="821" y="1500" type="line"/>
      <point x="821" y="1402" type="line"/>
      <point x="534" y="1362" type="line"/>
      <point x="532" y="1249" type="line"/>
      <point x="920" y="1249" type="line" smooth="yes"/>
      <point x="1246" y="1249"/>
      <point x="1586" y="1040"/>
      <point x="1586" y="836" type="qcurve" smooth="yes"/>
      <point x="1586" y="638"/>
      <point x="1226" y="381"/>
      <point x="884" y="381" type="qcurve" smooth="yes"/>
      <point x="755" y="381"/>
      <point x="563" y="389"/>
      <point x="474" y="405" type="qcurve"/>
      <point x="485" y="491" type="line"/>
      <point x="574" y="479"/>
      <point x="752" y="472"/>
      <point x="909" y="472" type="qcurve" smooth="yes"/>
      <point x="1172" y="472"/>
      <point x="1448" y="666"/>
      <point x="1448" y="838" type="qcurve" smooth="yes"/>
      <point x="1448" y="996"/>
      <point x="1181" y="1154"/>
      <point x="929" y="1154" type="qcurve" smooth="yes"/>
      <point x="533" y="1154" type="line"/>
      <point x="531" y="764" type="line"/>
      <point x="533" y="130" type="line"/>
      <point x="821" y="98" type="line"/>
      <point x="821" y="0" type="line"/>
    </contour>
  </outline>
</glyph>
<glyph name="germandbls" format="2">
  <advance width="1853"/>
  <unicode hex="00DF"/>
  <outline>
    <contour>
      <point x="1387" y="1225" type="qcurve" smooth="yes"/>
      <point x="1387" y="1095"/>
      <point x="1207" y="977"/>
      <point x="1071" y="940" type="qcurve" smooth="yes"/>
      <point x="1001" y="920"/>
      <point x="906" y="855"/>
      <point x="906" y="793" type="qcurve" smooth="yes"/>
      <point x="906" y="725"/>
      <point x="1055" y="637"/>
      <point x="1212" y="603" type="qcurve" smooth="yes"/>
      <point x="1441" y="556"/>
      <point x="1691" y="416"/>
      <point x="1691" y="276" type="qcurve" smooth="yes"/>
      <point x="1691" y="153"/>
      <point x="1432" y="-23"/>
      <point x="1233" y="-23" type="qcurve" smooth="yes"/>
      <point x="1102" y="-23"/>
      <point x="926" y="31"/>
      <point x="851" y="73" type="qcurve"/>
      <point x="812" y="0" type="line"/>
      <point x="728" y="0" type="line"/>
      <point x="728" y="346" type="line"/>
      <point x="826" y="346" type="line"/>
      <point x="842" y="280" type="line" smooth="yes"/>
      <point x="869" y="180"/>
      <point x="1102" y="66"/>
      <point x="1255" y="66" type="qcurve" smooth="yes"/>
      <point x="1380" y="66"/>
      <point x="1575" y="162"/>
      <point x="1575" y="257" type="qcurve" smooth="yes"/>
      <point x="1575" y="354"/>
      <point x="1380" y="452"/>
      <point x="1180" y="494" type="qcurve" smooth="yes"/>
      <point x="959" y="541"/>
      <point x="791" y="667"/>
      <point x="791" y="772" type="qcurve" smooth="yes"/>
      <point x="791" y="869"/>
      <point x="928" y="990"/>
      <point x="1042" y="1019" type="qcurve" smooth="yes"/>
      <point x="1165" y="1052"/>
      <point x="1280" y="1140"/>
      <point x="1280" y="1216" type="qcurve" smooth="yes"/>
      <point x="1280" y="1301"/>
      <point x="1107" y="1411"/>
      <point x="917" y="1411" type="qcurve" smooth="yes"/>
      <point x="697" y="1411"/>
      <point x="449" y="1243"/>
      <point x="450" y="1067" type="qcurve"/>
      <point x="454" y="527" type="line"/>
      <point x="467" y="45" type="line"/>
      <point x="438" y="0" type="line"/>
      <point x="168" y="0" type="line"/>
      <point x="168" y="100" type="line"/>
      <point x="336" y="135" type="line"/>
      <point x="337" y="527" type="line"/>
      <point x="339" y="1088" type="line" smooth="yes"/>
      <point x="340" y="1271"/>
      <point x="651" y="1502"/>
      <point x="903" y="1502" type="qcurve" smooth="yes"/>
      <point x="1138" y="1502"/>
      <point x="1387" y="1348"/>
    </contour>
  </outline>
</glyph>
<glyph name="ae" format="2">
  <advance width="2424"/>
  <unicode hex="00E6"/>
  <anchor x="1190" y="1051" name="top"/>
  <outline>
    <contour>
      <point x="196" y="252" type="qcurve" smooth="yes"/>
      <point x="196" y="399"/>
      <point x="597" y="614"/>
      <point x="1093" y="649" type="qcurve"/>
      <point x="1101" y="586" type="line"/>
      <point x="755" y="553"/>
      <point x="324" y="411"/>
      <point x="324" y="261" type="qcurve" smooth="yes"/>
      <point x="324" y="175"/>
      <point x="458" y="79"/>
      <point x="590" y="79" type="qcurve" smooth="yes"/>
      <point x="734" y="79"/>
      <point x="1046" y="171"/>
      <point x="1112" y="253" type="qcurve"/>
      <point x="1094" y="293"/>
      <point x="1068" y="438"/>
      <point x="1068" y="510" type="qcurve" smooth="yes"/>
      <point x="1068" y="647" type="line" smooth="yes"/>
      <point x="1068" y="858"/>
      <point x="871" y="981"/>
      <point x="702" y="981" type="qcurve" smooth="yes"/>
      <point x="564" y="981"/>
      <point x="375" y="928"/>
      <point x="340" y="896" type="qcurve"/>
      <point x="356" y="870"/>
      <point x="382" y="820"/>
      <point x="386" y="796" type="qcurve" smooth="yes"/>
      <point x="390" y="757"/>
      <point x="359" y="702"/>
      <point x="329" y="702" type="qcurve" smooth="yes"/>
      <point x="291" y="702"/>
      <point x="252" y="767"/>
      <point x="252" y="824" type="qcurve" smooth="yes"/>
      <point x="252" y="919"/>
      <point x="498" y="1072"/>
      <point x="727" y="1072" type="qcurve" smooth="yes"/>
      <point x="909" y="1072"/>
      <point x="1125" y="952"/>
      <point x="1156" y="852" type="qcurve"/>
      <point x="1162" y="852" type="line"/>
      <point x="1238" y="955"/>
      <point x="1469" y="1072"/>
      <point x="1643" y="1072" type="qcurve" smooth="yes"/>
      <point x="1901" y="1072"/>
      <point x="2212" y="834"/>
      <point x="2237" y="617" type="qcurve"/>
      <point x="2237" y="562" type="line"/>
      <point x="1221" y="562" type="line"/>
      <point x="1220" y="640" type="line"/>
      <point x="2119" y="640" type="line"/>
      <point x="2088" y="805"/>
      <point x="1847" y="982"/>
      <point x="1661" y="982" type="qcurve" smooth="yes"/>
      <point x="1434" y="982"/>
      <point x="1182" y="737"/>
      <point x="1184" y="532" type="qcurve" smooth="yes"/>
      <point x="1187" y="300"/>
      <point x="1495" y="83"/>
      <point x="1713" y="83" type="qcurve" smooth="yes"/>
      <point x="1833" y="83"/>
      <point x="2055" y="151"/>
      <point x="2160" y="240" type="qcurve"/>
      <point x="2201" y="191" type="line"/>
      <point x="2108" y="82"/>
      <point x="1848" y="-22"/>
      <point x="1693" y="-22" type="qcurve" smooth="yes"/>
      <point x="1487" y="-22"/>
      <point x="1234" y="95"/>
      <point x="1173" y="181" type="qcurve"/>
      <point x="1093" y="108"/>
      <point x="761" y="-15"/>
      <point x="584" y="-15" type="qcurve" smooth="yes"/>
      <point x="403" y="-15"/>
      <point x="196" y="131"/>
    </contour>
  </outline>
</glyph>
<glyph name="eth" format="2">
  <advance width="1747"/>
  <unicode hex="00F0"/>
  <outline>
    <contour>
      <point x="179" y="490" type="qcurve" smooth="yes"/>
      <point x="179" y="707"/>
      <point x="565" y="1004"/>
      <point x="879" y="1004" type="qcurve" smooth="yes"/>
      <point x="1195" y="1004"/>
      <point x="1505" y="721"/>
      <point x="1516" y="499" type="qcurve"/>
      <point x="1431" y="499" type="line"/>
      <point x="1451" y="671"/>
      <point x="1157" y="911"/>
      <point x="864" y="911" type="qcurve" smooth="yes"/>
      <point x="594" y="911"/>
      <point x="304" y="701"/>
      <point x="306" y="510" type="qcurve" smooth="yes"/>
      <point x="307" y="308"/>
      <point x="611" y="66"/>
      <point x="861" y="67" type="qcurve" smooth="yes"/>
      <point x="1147" y="68"/>
      <point x="1441" y="342"/>
      <point x="1441" y="621" type="qcurve" smooth="yes"/>
      <point x="1441" y="985"/>
      <point x="855" y="1398"/>
      <point x="364" y="1495" type="qcurve"/>
      <point x="393" y="1574" type="line"/>
      <point x="1048" y="1468"/>
      <point x="1566" y="949"/>
      <point x="1566" y="624" type="qcurve" smooth="yes"/>
      <point x="1566" y="325"/>
      <point x="1203" y="-22"/>
      <point x="872" y="-22" type="qcurve" smooth="yes"/>
      <point x="562" y="-22"/>
      <point x="179" y="257"/>
    </contour>
    <contour>
      <point x="638" y="1221" type="line"/>
      <point x="1377" y="1526" type="line"/>
      <point x="1442" y="1440" type="line"/>
      <point x="704" y="1134" type="line"/>
    </contour>
  </outline>
</glyph>
<glyph name="divide" format="2">
  <advance width="1877"/>
  <unicode hex="00F7"/>
  <outline>
    <contour>
      <point x="194" y="572" type="line"/>
      <point x="194" y="694" type="line"/>
      <point x="1683" y="694" type="line"/>
      <point x="1683" y="572" type="line"/>
    </contour>
    <contour>
      <point x="841" y="307" type="qcurve" smooth="yes"/>
      <point x="841" y="346"/>
      <point x="896" y="405"/>
      <point x="939" y="405" type="qcurve" smooth="yes"/>
      <point x="981" y="405"/>
      <point x="1036" y="346"/>
      <point x="1036" y="307" type="qcurve" smooth="yes"/>
      <point x="1036" y="269"/>
      <point x="981" y="210"/>
      <point x="939" y="210" type="qcurve" smooth="yes"/>
      <point x="896" y="210"/>
      <point x="841" y="269"/>
    </contour>
    <contour>
      <point x="841" y="958" type="qcurve" smooth="yes"/>
      <point x="841" y="997"/>
      <point x="896" y="1056"/>
      <point x="939" y="1056" type="qcurve" smooth="yes"/>
      <point x="981" y="1056"/>
      <point x="1036" y="997"/>
      <point x="1036" y="958" type="qcurve" smooth="yes"/>
      <point x="1036" y="920"/>
      <point x="981" y="861"/>
      <point x="939" y="861" type="qcurve" smooth="yes"/>
      <point x="896" y="861"/>
      <point x="841" y="920"/>
    </contour>
  </outline>
</glyph>
<glyph name="thorn" format="2">
  <advance width="1654"/>
  <unicode hex="00FE"/>
  <outline>
    <contour>
      <point x="133" y="-480" type="line"/>
      <point x="133" y="-380" type="line"/>
      <point x="276" y="-345" type="line"/>
      <point x="278" y="427" type="line"/>
      <point x="277" y="1336" type="line"/>
      <point x="111" y="1366" type="line"/>
      <point x="111" y="1480" type="line"/>
      <point x="338" y="1514" type="line"/>
      <point x="370" y="1514" type="line"/>
      <point x="398" y="1482" type="line"/>
      <point x="401" y="905" type="line"/>
      <point x="471" y="978"/>
      <point x="711" y="1071"/>
      <point x="878" y="1071" type="qcurve" smooth="yes"/>
      <point x="1137" y="1071"/>
      <point x="1472" y="792"/>
      <point x="1472" y="557" type="qcurve" smooth="yes"/>
      <point x="1472" y="301"/>
      <point x="1124" y="-12"/>
      <point x="830" y="-12" type="qcurve" smooth="yes"/>
      <point x="685" y="-12"/>
      <point x="460" y="51"/>
      <point x="397" y="94" type="qcurve"/>
      <point x="397" y="-345" type="line"/>
      <point x="549" y="-380" type="line"/>
      <point x="549" y="-480" type="line"/>
    </contour>
    <contour>
      <point x="398" y="234" type="line"/>
      <point x="453" y="168"/>
      <point x="697" y="72"/>
      <point x="863" y="72" type="qcurve" smooth="yes"/>
      <point x="1087" y="72"/>
      <point x="1344" y="319"/>
      <point x="1344" y="533" type="qcurve" smooth="yes"/>
      <point x="1344" y="737"/>
      <point x="1088" y="967"/>
      <point x="870" y="967" type="qcurve" smooth="yes"/>
      <point x="708" y="967"/>
      <point x="471" y="875"/>
      <point x="400" y="805" type="qcurve"/>
      <point x="395" y="446" type="line"/>
    </contour>
  </outline>
</glyph>
<glyph name="idotless" format="2">
  <advance width="818"/>
  <unicode hex="0131"/>
  <anchor x="412" y="0" name="bottom"/>
  <anchor x="406" y="1041" name="top"/>
  <anchor x="578" y="0" name="ogonek"/>
  <outline>
    <contour>
      <point x="121" y="0" type="line"/>
      <point x="121" y="100" type="line"/>
      <point x="359" y="135" type="line"/>
      <point x="360" y="530" type="line"/>
      <point x="356" y="873" type="line"/>
      <point x="116" y="903" type="line"/>
      <point x="116" y="1017" type="line"/>
      <point x="413" y="1051" type="line"/>
      <point x="460" y="1051" type="line"/>
      <point x="483" y="1012" type="line"/>
      <point x="478" y="530" type="line"/>
      <point x="480" y="135" type="line"/>
      <point x="718" y="100" type="line"/>
      <point x="718" y="0" type="line"/>
    </contour>
  </outline>
</glyph>
<glyph name="kgreenlandic" format="2">
  <advance width="1663"/>
  <unicode hex="0138"/>
  <outline>
    <contour>
      <point x="189" y="0" type="line"/>
      <point x="189" y="100" type="line"/>
      <point x="328" y="135" type="line"/>
      <point x="330" y="554" type="line"/>
      <point x="328" y="916" type="line"/>
      <point x="189" y="951" type="line"/>
      <point x="189" y="1051" type="line"/>
      <point x="588" y="1051" type="line"/>
      <point x="588" y="951" type="line"/>
      <point x="450" y="916" type="line"/>
      <point x="448" y="533" type="line"/>
      <point x="450" y="135" type="line"/>
      <point x="588" y="100" type="line"/>
      <point x="588" y="0" type="line"/>
    </contour>
    <contour>
      <point x="599" y="652" type="line"/>
      <point x="599" y="741" type="line"/>
      <point x="1106" y="911" type="line"/>
      <point x="971" y="938" type="line"/>
      <point x="976" y="1051" type="line"/>
      <point x="1404" y="1051" type="line"/>
      <point x="1404" y="938" type="line"/>
      <point x="1218" y="906" type="line"/>
    </contour>
    <contour>
      <point x="618" y="665" type="line"/>
      <point x="768" y="660" type="line"/>
      <point x="1360" y="135" type="line"/>
      <point x="1494" y="100" type="line"/>
      <point x="1494" y="0" type="line"/>
      <point x="1161" y="0" type="line"/>
      <point x="1143" y="99" type="line"/>
      <point x="1198" y="131" type="line"/>
    </contour>
  </outline>
</glyph>
<glyph name="OE" format="2">
  <advance width="3043"/>
  <unicode hex="0152"/>
  <outline>
    <contour>
      <point x="194" y="737" type="qcurve" smooth="yes"/>
      <point x="194" y="1068"/>
      <point x="747" y="1518"/>
      <point x="1219" y="1518" type="qcurve" smooth="yes"/>
      <point x="1305" y="1518"/>
      <point x="1710" y="1500"/>
      <point x="1770" y="1500" type="qcurve" smooth="yes"/>
      <point x="2769" y="1500" type="line"/>
      <point x="2769" y="1160" type="line"/>
      <point x="2677" y="1160" type="line"/>
      <point x="2642" y="1405" type="line"/>
      <point x="1807" y="1405" type="line"/>
      <point x="1778" y="1385" type="line"/>
      <point x="1776" y="783" type="line"/>
      <point x="1778" y="111" type="line"/>
      <point x="1808" y="87" type="line"/>
      <point x="2705" y="87" type="line"/>
      <point x="2781" y="370" type="line"/>
      <point x="2873" y="370" type="line"/>
      <point x="2833" y="0" type="line"/>
      <point x="1779" y="0" type="line" smooth="yes"/>
      <point x="1716" y="0"/>
      <point x="1344" y="-26"/>
      <point x="1226" y="-26" type="qcurve" smooth="yes"/>
      <point x="764" y="-26"/>
      <point x="194" y="396"/>
    </contour>
    <contour>
      <point x="329" y="773" type="qcurve" smooth="yes"/>
      <point x="329" y="469"/>
      <point x="801" y="73"/>
      <point x="1204" y="73" type="qcurve" smooth="yes"/>
      <point x="1329" y="73"/>
      <point x="1555" y="89"/>
      <point x="1649" y="104" type="qcurve"/>
      <point x="1652" y="785" type="line"/>
      <point x="1649" y="1384" type="line"/>
      <point x="1588" y="1391"/>
      <point x="1324" y="1413"/>
      <point x="1204" y="1413" type="qcurve" smooth="yes"/>
      <point x="764" y="1413"/>
      <point x="329" y="1066"/>
    </contour>
    <contour>
      <point x="1714" y="747" type="line"/>
      <point x="1714" y="824" type="line"/>
      <point x="2496" y="834" type="line"/>
      <point x="2531" y="996" type="line"/>
      <point x="2623" y="996" type="line"/>
      <point x="2623" y="576" type="line"/>
      <point x="2531" y="576" type="line"/>
      <point x="2496" y="737" type="line"/>
    </contour>
  </outline>
</glyph>
<glyph name="oe" format="2">
  <advance width="2682"/>
  <unicode hex="0153"/>
  <outline>
    <contour>
      <point x="178" y="525" type="qcurve" smooth="yes"/>
      <point x="178" y="753"/>
      <point x="539" y="1072"/>
      <point x="832" y="1072" type="qcurve" smooth="yes"/>
      <point x="1060" y="1072"/>
      <point x="1319" y="891"/>
      <point x="1368" y="779" type="qcurve"/>
      <point x="1377" y="779" type="line"/>
      <point x="1446" y="900"/>
      <point x="1730" y="1072"/>
      <point x="1938" y="1072" type="qcurve" smooth="yes"/>
      <point x="2184" y="1072"/>
      <point x="2469" y="834"/>
      <point x="2495" y="617" type="qcurve"/>
      <point x="2495" y="564" type="line"/>
      <point x="1421" y="564" type="line"/>
      <point x="1422" y="641" type="line"/>
      <point x="2377" y="641" type="line"/>
      <point x="2345" y="814"/>
      <point x="2106" y="980"/>
      <point x="1920" y="980" type="qcurve" smooth="yes"/>
      <point x="1692" y="980"/>
      <point x="1440" y="759"/>
      <point x="1442" y="547" type="qcurve" smooth="yes"/>
      <point x="1445" y="297"/>
      <point x="1758" y="83"/>
      <point x="1978" y="83" type="qcurve" smooth="yes"/>
      <point x="2101" y="83"/>
      <point x="2317" y="157"/>
      <point x="2421" y="243" type="qcurve"/>
      <point x="2462" y="195" type="line"/>
      <point x="2369" y="84"/>
      <point x="2108" y="-22"/>
      <point x="1975" y="-22" type="qcurve" smooth="yes"/>
      <point x="1729" y="-22"/>
      <point x="1445" y="140"/>
      <point x="1383" y="301" type="qcurve"/>
      <point x="1371" y="301" type="line"/>
      <point x="1306" y="159"/>
      <point x="1025" y="-22"/>
      <point x="824" y="-22" type="qcurve" smooth="yes"/>
      <point x="532" y="-22"/>
      <point x="178" y="281"/>
    </contour>
    <contour>
      <point x="315" y="548" type="qcurve" smooth="yes"/>
      <point x="317" y="347"/>
      <point x="592" y="67"/>
      <point x="818" y="67" type="qcurve" smooth="yes"/>
      <point x="1061" y="67"/>
      <point x="1324" y="322"/>
      <point x="1324" y="533" type="qcurve" smooth="yes"/>
      <point x="1324" y="726"/>
      <point x="1049" y="979"/>
      <point x="821" y="979" type="qcurve" smooth="yes"/>
      <point x="576" y="979"/>
      <point x="314" y="749"/>
    </contour>
  </outline>
</glyph>
<glyph name="Schwa" format="2">
  <advance width="2144"/>
  <unicode hex="018F"/>
  <outline>
    <contour>
      <point x="178" y="1199" type="line"/>
      <point x="305" y="1344"/>
      <point x="712" y="1519"/>
      <point x="1006" y="1519" type="qcurve" smooth="yes"/>
      <point x="1458" y="1519"/>
      <point x="1950" y="1094"/>
      <point x="1950" y="789" type="qcurve" smooth="yes"/>
      <point x="1950" y="445"/>
      <point x="1427" y="-30"/>
      <point x="1031" y="-30" type="qcurve" smooth="yes"/>
      <point x="654" y="-30"/>
      <point x="226" y="281"/>
      <point x="226" y="578" type="qcurve" smooth="yes"/>
      <point x="226" y="682" type="line"/>
      <point x="1719" y="682" type="line"/>
      <point x="1786" y="575" type="line"/>
      <point x="988" y="583" type="line"/>
      <point x="366" y="577" type="line"/>
      <point x="366" y="472" type="line" smooth="yes"/>
      <point x="366" y="299"/>
      <point x="705" y="72"/>
      <point x="1032" y="72" type="qcurve" smooth="yes"/>
      <point x="1380" y="72"/>
      <point x="1818" y="452"/>
      <point x="1815" y="751" type="qcurve" smooth="yes"/>
      <point x="1811" y="1061"/>
      <point x="1332" y="1403"/>
      <point x="1012" y="1403" type="qcurve" smooth="yes"/>
      <point x="733" y="1403"/>
      <point x="347" y="1249"/>
      <point x="254" y="1140" type="qcurve"/>
    </contour>
  </outline>
</glyph>
<glyph name="florin" format="2">
  <advance width="1126"/>
  <unicode hex="0192"/>
  <outline>
    <contour>
      <point x="626" y="16" type="line" smooth="yes"/>
      <point x="628" y="-122"/>
      <point x="450" y="-309"/>
      <point x="319" y="-309" type="qcurve" smooth="yes"/>
      <point x="279" y="-309"/>
      <point x="191" y="-301"/>
      <point x="157" y="-291" type="qcurve" smooth="yes"/>
      <point x="127" y="-281" type="line"/>
      <point x="155" y="-190" type="line"/>
      <point x="195" y="-201" type="line" smooth="yes"/>
      <point x="220" y="-208"/>
      <point x="280" y="-214"/>
      <point x="315" y="-214" type="qcurve" smooth="yes"/>
      <point x="416" y="-214"/>
      <point x="526" y="-97"/>
      <point x="523" y="40" type="qcurve" smooth="yes"/>
      <point x="503" y="880" type="line"/>
      <point x="171" y="890" type="line"/>
      <point x="163" y="966" type="line"/>
      <point x="496" y="980" type="line"/>
      <point x="491" y="1228" type="line" smooth="yes"/>
      <point x="487" y="1369"/>
      <point x="658" y="1518"/>
      <point x="783" y="1518" type="qcurve" smooth="yes"/>
      <point x="831" y="1518"/>
      <point x="919" y="1506"/>
      <point x="956" y="1494" type="qcurve" smooth="yes"/>
      <point x="983" y="1486" type="line"/>
      <point x="961" y="1403" type="line"/>
      <point x="933" y="1411" type="line" smooth="yes"/>
      <point x="911" y="1417"/>
      <point x="841" y="1428"/>
      <point x="806" y="1428" type="qcurve" smooth="yes"/>
      <point x="718" y="1428"/>
      <point x="597" y="1330"/>
      <point x="602" y="1215" type="qcurve" smooth="yes"/>
      <point x="611" y="981" type="line"/>
      <point x="972" y="981" type="line"/>
      <point x="972" y="898" type="line"/>
      <point x="613" y="890" type="line"/>
    </contour>
  </outline>
</glyph>
<glyph name="schwa" format="2">
  <advance width="1546"/>
  <unicode hex="0259"/>
  <outline>
    <contour>
      <point x="1365" y="525" type="qcurve" smooth="yes"/>
      <point x="1365" y="299"/>
      <point x="1022" y="-22"/>
      <point x="743" y="-22" type="qcurve" smooth="yes"/>
      <point x="496" y="-22"/>
      <point x="210" y="216"/>
      <point x="183" y="436" type="qcurve"/>
      <point x="183" y="488" type="line"/>
      <point x="1241" y="488" type="line"/>
      <point x="1241" y="410" type="line"/>
      <point x="303" y="410" type="line"/>
      <point x="335" y="246"/>
      <point x="576" y="70"/>
      <point x="761" y="70" type="qcurve" smooth="yes"/>
      <point x="989" y="70"/>
      <point x="1240" y="303"/>
      <point x="1237" y="505" type="qcurve" smooth="yes"/>
      <point x="1237" y="733"/>
      <point x="937" y="969"/>
      <point x="701" y="969" type="qcurve" smooth="yes"/>
      <point x="555" y="969"/>
      <point x="351" y="919"/>
      <point x="285" y="875" type="qcurve"/>
      <point x="244" y="924" type="line"/>
      <point x="306" y="987"/>
      <point x="547" y="1074"/>
      <point x="725" y="1074" type="qcurve" smooth="yes"/>
      <point x="1012" y="1074"/>
      <point x="1365" y="791"/>
    </contour>
  </outline>
</glyph>
<glyph name="gravecomb" format="2">
  <advance width="1396"/>
  <unicode hex="0300"/>
  <anchor x="697" y="1000" name="_top"/>
  <anchor x="697" y="1497" name="top"/>
  <outline>
    <contour>
      <point x="259" y="1448" type="qcurve" smooth="yes"/>
      <point x="246" y="1475"/>
      <point x="278" y="1528"/>
      <point x="304" y="1537" type="qcurve" smooth="yes"/>
      <point x="331" y="1550"/>
      <point x="411" y="1521"/>
      <point x="447" y="1514" type="qcurve" smooth="yes"/>
      <point x="985" y="1238" type="line"/>
      <point x="953" y="1154" type="line"/>
      <point x="363" y="1387" type="line" smooth="yes"/>
      <point x="322" y="1394"/>
      <point x="275" y="1412"/>
    </contour>
  </outline>
</glyph>
<glyph name="acutecomb" format="2">
  <advance width="1396"/>
  <unicode hex="0301"/>
  <anchor x="697" y="1000" name="_top"/>
  <anchor x="697" y="1524" name="top"/>
  <outline>
    <contour>
      <point x="1135" y="1445" type="qcurve" smooth="yes"/>
      <point x="1119" y="1408"/>
      <point x="1072" y="1389"/>
      <point x="1031" y="1383" type="qcurve" smooth="yes"/>
      <point x="443" y="1155" type="line"/>
      <point x="409" y="1238" type="line"/>
      <point x="947" y="1510" type="line" smooth="yes"/>
      <point x="983" y="1517"/>
      <point x="1063" y="1546"/>
      <point x="1089" y="1534" type="qcurve" smooth="yes"/>
      <point x="1116" y="1525"/>
      <point x="1148" y="1471"/>
    </contour>
  </outline>
</glyph>
<glyph name="circumflexcomb" format="2">
  <advance width="1396"/>
  <unicode hex="0302"/>
  <anchor x="697" y="1000" name="_top"/>
  <anchor x="697" y="1539" name="top"/>
  <outline>
    <contour>
      <point x="697" y="1539" type="qcurve" smooth="yes"/>
      <point x="755" y="1539"/>
      <point x="832" y="1508"/>
      <point x="884" y="1466" type="qcurve" smooth="yes"/>
      <point x="1172" y="1217" type="line"/>
      <point x="1109" y="1158" type="line"/>
      <point x="697" y="1441" type="line"/>
      <point x="286" y="1158" type="line"/>
      <point x="223" y="1217" type="line"/>
      <point x="509" y="1464" type="line" smooth="yes"/>
      <point x="561" y="1508"/>
      <point x="639" y="1539"/>
    </contour>
  </outline>
</glyph>
<glyph name="tildecomb" format="2">
  <advance width="1396"/>
  <unicode hex="0303"/>
  <anchor x="703" y="1000" name="_top"/>
  <anchor x="703" y="1402" name="top"/>
  <outline>
    <contour>
      <point x="194" y="1223" type="line"/>
      <point x="240" y="1286"/>
      <point x="409" y="1382"/>
      <point x="497" y="1384" type="qcurve" smooth="yes"/>
      <point x="556" y="1385"/>
      <point x="671" y="1347"/>
      <point x="725" y="1324" type="qcurve" smooth="yes"/>
      <point x="769" y="1306"/>
      <point x="908" y="1254"/>
      <point x="966" y="1256" type="qcurve" smooth="yes"/>
      <point x="1024" y="1257"/>
      <point x="1128" y="1322"/>
      <point x="1162" y="1365" type="qcurve"/>
      <point x="1215" y="1301" type="line"/>
      <point x="1168" y="1231"/>
      <point x="1013" y="1155"/>
      <point x="940" y="1152" type="qcurve" smooth="yes"/>
      <point x="872" y="1151"/>
      <point x="734" y="1197"/>
      <point x="691" y="1216" type="qcurve" smooth="yes"/>
      <point x="640" y="1238"/>
      <point x="517" y="1277"/>
      <point x="474" y="1276" type="qcurve" smooth="yes"/>
      <point x="405" y="1275"/>
      <point x="282" y="1193"/>
      <point x="252" y="1158" type="qcurve"/>
    </contour>
  </outline>
</glyph>
<glyph name="brevecomb" format="2">
  <advance width="1396"/>
  <unicode hex="0306"/>
  <anchor x="697" y="1000" name="_top"/>
  <anchor x="697" y="1464" name="top"/>
  <outline>
    <contour>
      <point x="973" y="1463" type="qcurve"/>
      <point x="1051" y="1410" type="line"/>
      <point x="1038" y="1317"/>
      <point x="827" y="1143"/>
      <point x="698" y="1143" type="qcurve" smooth="yes"/>
      <point x="569" y="1143"/>
      <point x="365" y="1297"/>
      <point x="343" y="1407" type="qcurve"/>
      <point x="425" y="1464" type="line"/>
      <point x="457" y="1407"/>
      <point x="602" y="1301"/>
      <point x="699" y="1299" type="qcurve" smooth="yes"/>
      <point x="799" y="1301"/>
      <point x="946" y="1409"/>
    </contour>
  </outline>
</glyph>
<glyph name="dieresiscomb" format="2">
  <advance width="1396"/>
  <unicode hex="0308"/>
  <anchor x="697" y="1000" name="_top"/>
  <anchor x="697" y="1327" name="top"/>
  <anchor x="697" y="1000" name="_GRKtop"/>
  <outline>
    <contour>
      <point x="920" y="1213" type="qcurve" smooth="yes"/>
      <point x="920" y="1258"/>
      <point x="969" y="1307"/>
      <point x="1016" y="1307" type="qcurve" smooth="yes"/>
      <point x="1060" y="1307"/>
      <point x="1112" y="1255"/>
      <point x="1112" y="1213" type="qcurve" smooth="yes"/>
      <point x="1112" y="1168"/>
      <point x="1063" y="1119"/>
      <point x="1016" y="1119" type="qcurve" smooth="yes"/>
      <point x="972" y="1119"/>
      <point x="920" y="1170"/>
    </contour>
    <contour>
      <point x="282" y="1213" type="qcurve" smooth="yes"/>
      <point x="282" y="1258"/>
      <point x="332" y="1307"/>
      <point x="379" y="1307" type="qcurve" smooth="yes"/>
      <point x="423" y="1307"/>
      <point x="475" y="1255"/>
      <point x="475" y="1213" type="qcurve" smooth="yes"/>
      <point x="475" y="1168"/>
      <point x="426" y="1119"/>
      <point x="379" y="1119" type="qcurve" smooth="yes"/>
      <point x="335" y="1119"/>
      <point x="282" y="1170"/>
    </contour>
  </outline>
</glyph>
<glyph name="ringcomb" format="2">
  <advance width="1396"/>
  <unicode hex="030A"/>
  <anchor x="697" y="1000" name="_top"/>
  <anchor x="697" y="1565" name="top"/>
  <outline>
    <contour>
      <point x="479" y="1347" type="qcurve" smooth="yes"/>
      <point x="479" y="1435"/>
      <point x="606" y="1557"/>
      <point x="697" y="1557" type="qcurve" smooth="yes"/>
      <point x="789" y="1557"/>
      <point x="916" y="1434"/>
      <point x="916" y="1347" type="qcurve" smooth="yes"/>
      <point x="916" y="1259"/>
      <point x="789" y="1137"/>
      <point x="697" y="1137" type="qcurve" smooth="yes"/>
      <point x="606" y="1137"/>
      <point x="479" y="1259"/>
    </contour>
    <contour>
      <point x="578" y="1347" type="qcurve" smooth="yes"/>
      <point x="578" y="1296"/>
      <point x="645" y="1230"/>
      <point x="697" y="1230" type="qcurve" smooth="yes"/>
      <point x="753" y="1230"/>
      <point x="816" y="1292"/>
      <point x="816" y="1347" type="qcurve" smooth="yes"/>
      <point x="816" y="1397"/>
      <point x="750" y="1464"/>
      <point x="697" y="1464" type="qcurve" smooth="yes"/>
      <point x="642" y="1464"/>
      <point x="578" y="1402"/>
    </contour>
  </outline>
</glyph>
<glyph name="caroncomb" format="2">
  <advance width="1396"/>
  <unicode hex="030C"/>
  <anchor x="697" y="1000" name="_top"/>
  <anchor x="697" y="1511" name="top"/>
  <outline>
    <contour>
      <point x="697" y="1122" type="qcurve" smooth="yes"/>
      <point x="639" y="1122"/>
      <point x="563" y="1153"/>
      <point x="510" y="1195" type="qcurve" smooth="yes"/>
      <point x="223" y="1444" type="line"/>
      <point x="286" y="1503" type="line"/>
      <point x="697" y="1220" type="line"/>
      <point x="1109" y="1503" type="line"/>
      <point x="1172" y="1444" type="line"/>
      <point x="886" y="1197" type="line" smooth="yes"/>
      <point x="834" y="1153"/>
      <point x="756" y="1122"/>
    </contour>
  </outline>
</glyph>
<glyph name="commaaccentcomb" format="2">
  <advance width="1396"/>
  <unicode hex="0326"/>
  <anchor x="697" y="0" name="_bottom"/>
  <anchor x="697" y="-700" name="bottom"/>
  <outline>
    <contour>
      <point x="547" y="-638" type="line"/>
      <point x="587" y="-608"/>
      <point x="692" y="-493"/>
      <point x="706" y="-433" type="qcurve"/>
      <point x="647" y="-432"/>
      <point x="570" y="-360"/>
      <point x="570" y="-303" type="qcurve" smooth="yes"/>
      <point x="570" y="-247"/>
      <point x="648" y="-165"/>
      <point x="709" y="-165" type="qcurve" smooth="yes"/>
      <point x="766" y="-165"/>
      <point x="848" y="-238"/>
      <point x="848" y="-312" type="qcurve" smooth="yes"/>
      <point x="848" y="-429"/>
      <point x="695" y="-641"/>
      <point x="600" y="-700" type="qcurve"/>
    </contour>
  </outline>
</glyph>
<glyph name="cedillacomb" format="2">
  <advance width="1396"/>
  <unicode hex="0327"/>
  <anchor x="718" y="0" name="_bottom"/>
  <anchor x="700" y="-541" name="bottom"/>
  <outline>
    <contour>
      <point x="754" y="4" type="line"/>
      <point x="678" y="-137" type="line"/>
      <point x="697" y="-129"/>
      <point x="756" y="-116"/>
      <point x="789" y="-116" type="qcurve" smooth="yes"/>
      <point x="869" y="-116"/>
      <point x="986" y="-203"/>
      <point x="986" y="-289" type="qcurve" smooth="yes"/>
      <point x="986" y="-382"/>
      <point x="844" y="-494"/>
      <point x="753" y="-494" type="qcurve" smooth="yes"/>
      <point x="664" y="-494"/>
      <point x="507" y="-450"/>
      <point x="455" y="-408" type="qcurve"/>
      <point x="497" y="-320" type="line"/>
      <point x="545" y="-359"/>
      <point x="667" y="-399"/>
      <point x="733" y="-399" type="qcurve" smooth="yes"/>
      <point x="786" y="-399"/>
      <point x="877" y="-342"/>
      <point x="877" y="-286" type="qcurve" smooth="yes"/>
      <point x="877" y="-238"/>
      <point x="794" y="-195"/>
      <point x="733" y="-195" type="qcurve" smooth="yes"/>
      <point x="699" y="-195"/>
      <point x="643" y="-205"/>
      <point x="621" y="-213" type="qcurve"/>
      <point x="573" y="-155" type="line"/>
      <point x="681" y="47" type="line"/>
    </contour>
  </outline>
</glyph>
<glyph name="macronbelowcomb" format="2">
  <advance width="1396"/>
  <unicode hex="0331"/>
  <anchor x="697" y="0" name="_bottom"/>
  <anchor x="697" y="-300" name="bottom"/>
  <outline>
    <contour>
      <point x="401" y="-300" type="line"/>
      <point x="401" y="-144" type="line"/>
      <point x="993" y="-144" type="line"/>
      <point x="993" y="-300" type="line"/>
    </contour>
  </outline>
</glyph>
<glyph name="numeralsign" format="2">
  <advance width="577"/>
  <unicode hex="0374"/>
  <outline>
    <contour>
      <point x="225" y="1000" type="line"/>
      <point x="134" y="1033" type="line"/>
      <point x="240" y="1500" type="line"/>
      <point x="399" y="1482" type="line"/>
      <point x="425" y="1437" type="line"/>
    </contour>
  </outline>
</glyph>
<glyph name="Gamma" format="2">
  <advance width="1659"/>
  <unicode hex="0393"/>
  <anchor x="893" y="1500" name="top"/>
  <anchor x="532" y="760" name="center"/>
  <outline>
    <contour>
      <point x="196" y="0" type="line"/>
      <point x="196" y="98" type="line"/>
      <point x="404" y="135" type="line"/>
      <point x="405" y="760" type="line"/>
      <point x="404" y="1354" type="line"/>
      <point x="196" y="1388" type="line"/>
      <point x="196" y="1500" type="line"/>
      <point x="1486" y="1500" type="line"/>
      <point x="1486" y="1050" type="line"/>
      <point x="1377" y="1050" type="line"/>
      <point x="1341" y="1405" type="line"/>
      <point x="562" y="1405" type="line"/>
      <point x="532" y="1385" type="line"/>
      <point x="530" y="760" type="line"/>
      <point x="532" y="130" type="line"/>
      <point x="760" y="98" type="line"/>
      <point x="760" y="0" type="line"/>
    </contour>
  </outline>
</glyph>
<glyph name="Delta" format="2">
  <advance width="1985"/>
  <unicode hex="0394"/>
  <outline>
    <contour>
      <point x="137" y="0" type="line"/>
      <point x="137" y="81" type="line"/>
      <point x="415" y="567" type="line"/>
      <point x="974" y="1508" type="line"/>
      <point x="1041" y="1508" type="line"/>
      <point x="1577" y="577" type="line"/>
      <point x="1857" y="82" type="line"/>
      <point x="1857" y="0" type="line"/>
    </contour>
    <contour>
      <point x="281" y="87" type="line"/>
      <point x="997" y="81" type="line"/>
      <point x="1697" y="87" type="line"/>
      <point x="1710" y="93" type="line"/>
      <point x="1464" y="500" type="line"/>
      <point x="1062" y="1197" type="line"/>
      <point x="991" y="1313" type="line"/>
      <point x="971" y="1313" type="line"/>
      <point x="902" y="1197" type="line"/>
      <point x="500" y="486" type="line"/>
      <point x="268" y="93" type="line"/>
    </contour>
  </outline>
</glyph>
<glyph name="Theta" format="2">
  <advance width="2358"/>
  <unicode hex="0398"/>
  <outline>
    <contour>
      <point x="1199" y="-31" type="qcurve"/>
      <point x="757" y="-31"/>
      <point x="194" y="396"/>
      <point x="194" y="704" type="qcurve" smooth="yes"/>
      <point x="194" y="948"/>
      <point x="737" y="1520"/>
      <point x="1179" y="1520" type="qcurve" smooth="yes"/>
      <point x="1625" y="1520"/>
      <point x="2164" y="1097"/>
      <point x="2164" y="781" type="qcurve" smooth="yes"/>
      <point x="2164" y="551"/>
      <point x="1637" y="-31"/>
    </contour>
    <contour>
      <point x="1189" y="75" type="qcurve"/>
      <point x="1587" y="75"/>
      <point x="2029" y="318"/>
      <point x="2029" y="745" type="qcurve"/>
      <point x="2029" y="1040"/>
      <point x="1516" y="1408"/>
      <point x="1189" y="1408" type="qcurve"/>
      <point x="775" y="1408"/>
      <point x="329" y="1192"/>
      <point x="329" y="878" type="qcurve" smooth="yes"/>
      <point x="329" y="552"/>
      <point x="963" y="75"/>
    </contour>
    <contour>
      <point x="607" y="675" type="line"/>
      <point x="607" y="798" type="line"/>
      <point x="616" y="798" type="line"/>
      <point x="1175" y="784" type="line"/>
      <point x="1184" y="784" type="line"/>
      <point x="1742" y="798" type="line"/>
      <point x="1751" y="798" type="line"/>
      <point x="1751" y="675" type="line"/>
      <point x="1742" y="675" type="line"/>
      <point x="1184" y="687" type="line"/>
      <point x="1175" y="687" type="line"/>
      <point x="616" y="675" type="line"/>
    </contour>
  </outline>
</glyph>
